<svg id="svg1" xmlns="http://www.w3.org/2000/svg" viewBox="0 0 776.58 1167.61"><defs><style>.cls-1{fill:#1d283a;}.cls-2{fill:#fffef9;}.cls-3{fill:#395b75;}.cls-4{fill:#8da6a0;}.cls-5{fill:#6d8a9c;}.cls-6{fill:#bcc8b6;}.cls-7{fill:#f9b499;}.cls-8{fill:#f48155;}.cls-9{fill:#935763;}.cls-10{fill:#539683;}.cls-11{fill:#f8cc73;}.cls-12{fill:#fffcea;}.cls-13{fill:#f79043;}</style></defs><g id="g1"><g id="group-R5"><path id="path25" class="cls-1" d="M1313.18,699.61,1311,706q-8.51,28.58-28.27,47.65a3.69,3.69,0,0,0,.36,5.6q9.89,7.4,19.29,13.15c6.26,3.82,11.91,13.65,17.49,19.21,3.86,3.85,7.94,7.32,9.95,12.61,4.2,11,7.15,21.55,15.21,30.66q11.09,12.54,22.31,24.85c4.16,4.57,2.59,10.69,4.93,15.75a97.75,97.75,0,0,0,11.08,18.4c5.75,7.52,7.76,13.57,10.92,21.82a2.71,2.71,0,0,0,1.51,1.5,74.64,74.64,0,0,1,26.2,16.82c6,8.5,13.71,12.83,19.64,20.88a39.61,39.61,0,0,0,15.47,12.55,3.93,3.93,0,0,1,1.81,1.68l4.19,8.07a3.74,3.74,0,0,0,1.72,1.64c10.21,4.85,14.89,15.54,19,26.6,4.32,11.69,2.87,23.65,1.47,35.74l-2.26-.49-.09-3-.59-14.65c-6-16-21.73-24.16-34.78-33.68q-7.6-5.52-6.82-14.17c.6-6.74.38-11.26-7.57-11.16a42.78,42.78,0,0,0-18.37,4.26l-4.42-.44a1.46,1.46,0,0,1-1.3-1.26,13.56,13.56,0,0,1,.66-5.47l10.07-5.88a1.69,1.69,0,0,0,.63-2.23l-5.32-10a2.66,2.66,0,0,0-2-1.41,9.55,9.55,0,0,0-6,.77,22,22,0,0,0-9.2-.25,3.06,3.06,0,0,1-2.14-.4c-9.92-6.21-12.92-15.09-20.71-20.77a1.87,1.87,0,0,0-2-.12A86.65,86.65,0,0,0,1347,942.19c-1.92-.22-2.66-1.36-2.24-3.43,9.39-9.19,21.27-21.21,34.5-23.88q-.81-11.32-14.59-6.59l-1.61-.8c-1.38-.68-1.32-1.24.14-1.68l4.5-1.33a.9.9,0,0,0,.54-.47.86.86,0,0,0,0-.7c-.83-2-4.41-7.51-1.84-9.67l1.48-.72a.79.79,0,0,0,.43-.64.76.76,0,0,0-.36-.69c-12.44-8.44-25.4,1.64-38.88,9.77a15.12,15.12,0,0,1-5.46,1.64c-.8.12-.87,0-.21-.52q10.86-7.5,21.84-14.85c8.07-5.42,5.93-11.72.07-17.94-9.35-10-11.2-16.92-15.26-27.68a23.36,23.36,0,0,0-5.41-8,72.94,72.94,0,0,1-12.09-16.59,1.55,1.55,0,0,0-2.84.32q-3.46,12.42-16.68,10.08a3,3,0,0,1-1.88-1.14l-.92-1.18c-2.37-4.08-4.92-13.1-10.94-11.6a1.42,1.42,0,0,0-1,1.38l.29,12.24a1.33,1.33,0,0,1-.46,1,1.37,1.37,0,0,1-1.11.31,6.5,6.5,0,0,1-2.55-1l-1.76-.58a4.92,4.92,0,0,0,.09-3.92.83.83,0,0,0-1.39-.16,16.58,16.58,0,0,0-3.16,14.94,1.49,1.49,0,0,0,1.76,1,4.11,4.11,0,0,0,2.7-1.95l1.85-1.08,10.9-3a1.61,1.61,0,0,0,1.22-1.53l.11-4.23a.42.42,0,0,1,.19-.32.33.33,0,0,1,.37,0,1.61,1.61,0,0,1,.59.37,19.51,19.51,0,0,0,11,4.64,1.67,1.67,0,0,1,1.47,1.27c1.25,4.33-.16,8.82-.37,12a219.64,219.64,0,0,1-10,53.72,1.14,1.14,0,0,0,.8,1.45l8.79,2.16c.93,3.16.38,5.4-1.67,6.75a106.07,106.07,0,0,0-31-2.91,1.5,1.5,0,0,0-1.38,1.23,205,205,0,0,0-3.57,35.2,1.27,1.27,0,0,0,1.36,1.26c2.44-.17,5.86-28,6.45-31.85a1.23,1.23,0,0,1,1.34-1l33.18,3.88a26.82,26.82,0,0,1,1.1,5.43c.66,6.36,7.22,13.76,11.3,18.49-5.63,6.57-14.46,21-5.76,28.23a5.56,5.56,0,0,1-3.52,4.69c-2.34-2.33-4.82-2.63-7.43-.85-1.22.82-1.09,1.29.38,1.38l3.93.28a1.66,1.66,0,0,1,1.19.6,1.64,1.64,0,0,1,.38,1.27l-2.1,19.67a2,2,0,0,1-1.2,1.6,9.4,9.4,0,0,1-7.72,0,1.53,1.53,0,0,0-1.42.12,1.58,1.58,0,0,0-.73,1.24l-2.85,58.42-.61,13.58c-2.21,6.75-7.46,18.59-3.69,19.83a33.47,33.47,0,0,1,15.42,21.68,129,129,0,0,0-1.47,34.76l8.41,12.21c5.53,17.67,13.36,34.8,18,52.59q2.6,10,5.43,20c2.77,9.74-1.61,20.53,1.13,31,4.4,16.81,7.66,27.62,4.38,43.1a29.63,29.63,0,0,0,.21,10c5.2,21.1,11.65,42.5,1.67,60a2.9,2.9,0,0,0-.31,2.08L1340,1384h-1c0-2.39-1-3.59-2.88-3.56a4,4,0,0,0-3.73,2.62,66.06,66.06,0,0,0-3.93,17.34c-3.69,19.88-4.76,33.06-22.84,45.17a5.17,5.17,0,0,0-1.54,1.65l-3.94,7.08-1.38-.3c-18.73-5-33.73-7.5-52.22-19.07-17.63-11.07-49.45-32.77-58.43-51.59a1,1,0,0,0-.64-.52,1,1,0,0,0-.79.19q-5.88,4.92-3,12.12l-1.27,1.27-3-3.62a188.6,188.6,0,0,1,13-27.77,4.52,4.52,0,0,0,.58-2.2c-.07-10.25-5.57-18.09-6.14-28.8-.49-9.45-1-22.46-5.41-30.92-12.57-24.19-22.31-49.46-32.81-74.41a1,1,0,0,0-.88-.59,1,1,0,0,0-.89.56c-13.94,29.42-10.35,65.11-37.78,83.46a5.08,5.08,0,0,0-2.24,4.22c0,14.23.8,19.24-9.52,30.13a83.41,83.41,0,0,0-15.45,23c-6.28,13.88-31.45,19-44.76,21.63l-1.27-1.27c-1.17-16.33-25.15-28.68-39.07-36.91q-8.79-3.54-7.87-11.53,22.3,11.86,44,22.12,12.75,6,23,5.56a2.86,2.86,0,0,0,2-.93,5.42,5.42,0,0,0,.93-6.43c-4.8-8.87-18.18-14.25-25.92-18.55-16-8.82-24.12-17.73-36.07-32-5.58-6.66-32.22-30.23-43.57-29l-.59-.36a.78.78,0,0,1-.34-1l.93-2.39,4.83-1,1.62-.17c30.82,12.28,46.33,37.39,73.24,54.09a232.67,232.67,0,0,0,47.51,19.77c3.63,1.05,6.93.17,8.15-3.46l6-11c2.56-1.76.47-3.87-1.62-4.58a188.69,188.69,0,0,1-38.86-18.44q-9.26-7.14-18.51-14.32c-21.7-16.82-37.27-36.12-67.13-36.56l-3.51-.19-.59-2.15,11.72-1.76a22.08,22.08,0,0,0,9.38-.77,144.44,144.44,0,0,1,25.24,6.44q46,16.22,90.19,36.92l2.34,1.17,1.76.79a1.77,1.77,0,0,0,2-.35c8.37-8.64-64.34-49.66-71.9-53.74q-3.72,1-3.34-1.59h2.35c12.52,3.07,23,6.16,35.09,12.63a283.31,283.31,0,0,0,35.78,16c14,5.13,18.64-14.81,18.8-24.35.12-7.9-4.1-9.72-10.6-12.07q-13.61-4.9-27.48-10.07c-9.24-7.06-18.75-10.89-26-15.19-.71-.42-.67-.76.11-1,7.6-2.41,19.81,1.71,27.92,3a127.72,127.72,0,0,0,39.75,11.82,1.5,1.5,0,0,0,1.61-.92c7-16.17,11.79-35.39,2.07-49.59q-11-16.14-29.7-28.2l-20.2-16.87c-.67-.56-.59-.73.25-.5a90.38,90.38,0,0,1,30.5,15,84.53,84.53,0,0,0,21.82,14.16,1.89,1.89,0,0,0,2.21-.49,1.92,1.92,0,0,0,.18-2.28,54.36,54.36,0,0,0-13.57-14.42,184.87,184.87,0,0,1-16.55-17.27c-4.78-5.64-9.44-7.08-15.65-10.4a155.16,155.16,0,0,1,54,35.9,2.68,2.68,0,0,0,4.47-1c1.67-4.8-9.49-17.25-12.34-21.41l-1.3-5.61q-.27-1.17.75-.54l1.81,1.1q22.62,26.58,50.48,6.49c.6-.43.68-.36.24.24a64.35,64.35,0,0,0-10.69,22.38.87.87,0,0,0,1.22,1q15.94-7.8,32.63-14.84,4.14-1.75,6.51,2.35a1.24,1.24,0,0,1-.45,1.69c-12.14,7.33-24.77,13.12-36.23,22.42-3.84,3.12-4.87,7.27-6.16,11.75a1,1,0,0,0,.38,1.12,1,1,0,0,0,1.19,0,272.69,272.69,0,0,1,43.82-25.2,155,155,0,0,1,74-13.94q.59-9.78,2.37-23.18c2.38-17.88-12.26-24.44-24.52-32.77a12.49,12.49,0,0,0-11.63-1.71q-19.38,6.16-44.72,16.53l-22.68,2.15q-1.28-12.91,10.45-17.08a112.34,112.34,0,0,1,50.35-10.88c3.14.07,6.6-.87,9.63-1.57a.87.87,0,0,0,.61-.51.84.84,0,0,0-.08-.8,4.93,4.93,0,0,0-4.26-2.58q-68.62-1.5-128.88-8.49c-34.48-4.21-69.61-10.14-104.37-9a2.13,2.13,0,0,0-1.78,1.1l-8.81,15.87-3,.3a1.53,1.53,0,0,0-1.33,1.29l-.28,1.83c-2.72,9.86-2.72,29.08-8.75,36.42-10.19,12.42-11.15,24.63-13.59,42.63-1.6,11.72-4.94,19-9.8,29.59-6.56,14.36-4.52,33.58-12.56,47.15-4.76,8-4.2,14.76-1.5,23l-2,7h-1a10,10,0,0,1,.35-4.31,4.1,4.1,0,0,0,0-2.25q-4.23-13.79,2.25-25.57c4.53-8.22,4.79-17.13,6.15-26,3-19.55,14.1-33.68,16.31-53.58a86.56,86.56,0,0,1,9.54-33q10.51-10.21,9.19-25.19l2.13-16.29a1.12,1.12,0,0,0-.25-.86,1,1,0,0,0-.78-.39l-8-.42a158.75,158.75,0,0,1-42.83-14.37q-14.12-16.83-15.14-40.92-1.44-34.84-1.83-71.67a3,3,0,0,0-1.32-2.48,3,3,0,0,0-2.77-.33c-5.88,2.22-23.32,27.58-25.93,33.93-6.49,15.92-10.78,35.89-27.65,44.07a1.52,1.52,0,0,0-.83,1.66l7.5,35.94,5.37,16.3a18.62,18.62,0,0,1,.69,9.89,2.71,2.71,0,0,1-1.27,1.79c-10.76,6.51-22.83-12.12-26.18-20.16a1.22,1.22,0,0,0-2.3.1l-6,19-11.37,28.88c-3.71,6.65-8.65,19.14-18.57,16.31a2.37,2.37,0,0,1-1.56-1.46l-2-5.67c5.68-12,24.92-56.33,17.47-67.41q-14.37-21.39-40.29-20.72a3.57,3.57,0,0,1-2.11-.58l-1.08-.7a.72.72,0,0,1-.32-.69.71.71,0,0,1,.46-.6c21.31-7.83,34.2,3.75,49.76,16.08a1.21,1.21,0,0,0,1.2.16,1.16,1.16,0,0,0,.69-1c1.27-16-33.32-38.17-47.81-27.16-.07.06-.12,0-.14-.05l-.18-.56,6.44-8.81a1.3,1.3,0,0,0,.22-1,1.18,1.18,0,0,0-.57-.81l-4-2.4a2,2,0,0,1-1-1.8q.36-14.28.49-28.6c.14-14.27,10.47-17.62,14-29.4q1.47-4.85,2.57-9.71c4.76-16.05,6.92-21.09,20.46-31.33a3,3,0,0,0,1.11-1.91c1.52-12.16-.78-20.88,9.68-31.12q11.92-11.75,31-18.31a3.61,3.61,0,0,0,1.8-1.33,19.8,19.8,0,0,1,9.06-6.92v1.76L891,847.64a1.93,1.93,0,0,0-2.39.31,1.57,1.57,0,0,0-.09,2.41c21,18.68,36.82,40.59,53.27,63.72a1.84,1.84,0,0,0,1.85.73,7.93,7.93,0,0,0,4-1.92l4.69-3.52c12.12-6.65-.66-30.06-6.44-39.84-6.75-11.65-26.21-36-41.84-36.12a2,2,0,0,0-1.76,1.11,3.6,3.6,0,0,0-.35,1.61l-3.7,2.94c2.49-8.28,4.78-18.08,11.58-24.08a193.79,193.79,0,0,0,33.86-39.11,4.19,4.19,0,0,1,1.79-1.57l1.82-.9a1.07,1.07,0,0,0,.6-.8,1,1,0,0,0-.32-.93c-1.87-1.76-.44-37.32.66-41.75,3.24-12.78,2.32-25.45,2.16-38.52V672.65L952,629a2.23,2.23,0,0,1,1.74-2.09l33.53-7.71c10.9-2.17,23.72-7,34.55-7.52a1.46,1.46,0,0,0,1.34-1.23c4.55-29.24,24.58-55.25,55.71-59.08a.77.77,0,0,0,.55-.32.76.76,0,0,0,.15-.61L1078,540.25a1.05,1.05,0,0,0-1.09-.89q-60.74,3.92-80.65,59.43-4.65,12.86-8.35,18.88c-.94-.38-1.22-.72-.84-1.74,11.76-31.18,21.14-57.16,54.42-70.66,46.57-18.88,97.24-2.42,146-6.26a159.76,159.76,0,0,1,59.16,6.34c28.78,8.66,44.6,27.46,59.06,52.26a42.85,42.85,0,0,0,6.54,8.46c11.46,11.69,13.79,27.09,3.26,39.89a2.76,2.76,0,0,0-.61,2.08,173.46,173.46,0,0,1-1.71,51.57" transform="translate(-764.52 -536)"/><path id="path26" class="cls-2" d="M1149,545l-.58,2.16a227.15,227.15,0,0,1-45.45,3.14,1.15,1.15,0,0,1-.85-.39,1.17,1.17,0,0,1-.3-.89l.92-8.78a1.36,1.36,0,0,1,.52-.93,1.41,1.41,0,0,1,1-.28l44.69,6" transform="translate(-764.52 -536)"/><path id="path27" class="cls-2" d="M987.3,619.24l.59-1.57q3.71-6,8.34-18.88,19.93-55.5,80.66-59.43a1.05,1.05,0,0,1,1.09.89l1.62,10.23a.76.76,0,0,1-.15.61.77.77,0,0,1-.55.32c-31.13,3.83-51.17,29.84-55.71,59.08a1.46,1.46,0,0,1-1.34,1.23c-10.83.56-23.65,5.35-34.55,7.52" transform="translate(-764.52 -536)"/><path id="path28" class="cls-2" d="M1098.09,550.21h-14a1.14,1.14,0,0,1-1.11-1l-1.5-8.88a1.13,1.13,0,0,1,.25-.9,1.1,1.1,0,0,1,.86-.4h15.46a1.13,1.13,0,0,1,1.13,1.12v8.9a1.13,1.13,0,0,1-1.13,1.12" transform="translate(-764.52 -536)"/><path id="path29" class="cls-2" d="M1127.51,619.17c-9-2.16-20.4-5.38-29.58-5.74a1.78,1.78,0,0,1-1.55-2.55,125.77,125.77,0,0,1,47-53.31c25.92-16.46,72.33-26,96.71,0,.53.57.4.85-.38.85-42.47,0-86.46,18.75-108.89,56.24a3.12,3.12,0,0,0-.42,2.09c.3,2.14-1,2.91-2.93,2.44" transform="translate(-764.52 -536)"/><path id="path30" class="cls-3" d="M1149,545l5.89.87c.9.12.94.39.11.77a9.62,9.62,0,0,1-6.58.52L1149,545" transform="translate(-764.52 -536)"/><path id="path31" class="cls-2" d="M1013,689.6c.46-.09.68-.48.68-1.15q.15-40,3.47-72.18a1.64,1.64,0,0,1,1.36-1.42l6.86-.93a1.31,1.31,0,0,0,1.13-1.15q4.83-44.25,47.37-57a10.77,10.77,0,0,1,8.16.5c.73.36.75.74.06,1.17-35.36,21.56-39,40.12-40.85,79.64q-1.87,40.2-3.21,80.39a1.37,1.37,0,0,1-1.19,1.32q-46.74,5.88-76.57,41.24c-2.62,3.12-4.76,7.92-9.43,10.57a.78.78,0,0,1-1.16-.61,159.28,159.28,0,0,1,1.7-43.26c4.83-27.24,1.93-59.61,2-87.48a37.76,37.76,0,0,1,1.18-9.42,2,2,0,0,1,1.6-1.46,532.25,532.25,0,0,0,56.53-12.1.75.75,0,0,1,.69.16.77.77,0,0,1,.27.65q-2.75,35.63-2.07,71.37a1.21,1.21,0,0,0,.45.92,1.16,1.16,0,0,0,1,.23h0" transform="translate(-764.52 -536)"/><path id="path32" class="cls-2" d="M1249.8,565.52a4.83,4.83,0,0,1-2.34,5.28c-45-5.88-87.35,16.92-112.6,53.81l-1.16-.58c.25-11,15.51-25.54,22.57-31.46q40.44-33.87,93.53-27.05" transform="translate(-764.52 -536)"/><path id="path33" class="cls-4" d="M1249.8,565.52c22.15,4.81,37.11,12.73,50.56,31.33a.55.55,0,0,1-.11.7.53.53,0,0,1-.69,0q-23.05-20.92-52.1-26.76a4.83,4.83,0,0,0,2.34-5.28" transform="translate(-764.52 -536)"/><path id="path34" class="cls-2" d="M1229.08,592.49A49.86,49.86,0,0,1,1243.41,625a3.55,3.55,0,0,1-2.56,3.63c-45.44,13.24-86.27,49.4-92.69,98.2a.64.64,0,0,1-.48.55.68.68,0,0,1-.7-.27,64.05,64.05,0,0,1-10.33-23.39c-10.52-47.81,17.15-90.3,60.77-108a59.71,59.71,0,0,1,29.7-4.17,3.12,3.12,0,0,1,2,1" transform="translate(-764.52 -536)"/><path id="path35" class="cls-5" d="M1115.53,649.21l-3.37,1.18a1.35,1.35,0,0,0-.92,1.38l1.55,16.2,1,19.86a1.13,1.13,0,0,1-.32.84,1.15,1.15,0,0,1-.83.32,104.25,104.25,0,0,1-16.78-2c-11.37-2.31-17.16-2.64-18.84-14.86-1.55-11.16-4.15-52.45,17.36-50.1a177.37,177.37,0,0,1,28.46,5.45.85.85,0,0,1,.56.53.92.92,0,0,1-.07.79,41.07,41.07,0,0,0-5.56,13.28,1.1,1.1,0,0,1-1.31.85l-34.75-7.36c-.87-.17-1.11.14-.73.94,2.48,5.16,40.48,5.16,34.59,12.74" transform="translate(-764.52 -536)"/><path id="path36" class="cls-6" d="M1133.7,624l1.16.58a81.11,81.11,0,0,0-8.08,27.16c-.17,1.47-.58,1.54-1.22.19l-2.25-4.64a2.29,2.29,0,0,1,0-2L1133.7,624" transform="translate(-764.52 -536)"/><path id="path39" class="cls-4" d="M1057.92,654.75c-2.84,0-6.7-1.08-9.28-.6a.84.84,0,0,1-.68-.19.83.83,0,0,1-.3-.64V634.71a1.41,1.41,0,0,1,.49-1.07,1.33,1.33,0,0,1,1.12-.29l9.45,1.72a1.73,1.73,0,0,1,1.41,1.74l-.64,16.44a1.57,1.57,0,0,1-1.57,1.5" transform="translate(-764.52 -536)"/><path id="path40" class="cls-1" d="M1006.15,658l-2.46,17.91a5.53,5.53,0,0,1-.77,2.12l-1,1.55-29.53,6c-.81.16-.87.47-.16.91,2.39,1.56,29.16-4.94,30.28-5.2l4.6-4.59-.1,5.83a1.42,1.42,0,0,1-1.24,1.41q-13.17,1.86-26.16,4.31c-5.37,1-11,.49-16.43,1.08a2.08,2.08,0,0,1-1.6-.51,2.14,2.14,0,0,1-.7-1.55q0-21.06.8-39.14c.37-8,35.21-13,41.79-13.7a1.72,1.72,0,0,1,1.28.42,1.68,1.68,0,0,1,.57,1.21l.8,21.89" transform="translate(-764.52 -536)"/><path id="path42" class="cls-2" d="M966.07,649.67c1.29-7,28-10.34,34.22-11.23a1.12,1.12,0,0,1,.86.25,1.13,1.13,0,0,1,.36.83l-.52,36.31a1.91,1.91,0,0,1-1.55,1.86l-33.67,6.56a1.28,1.28,0,0,1-1-.25,1.3,1.3,0,0,1-.48-1q-.75-19.42,1.83-33.37" transform="translate(-764.52 -536)"/><path id="path43" class="cls-3" d="M1115.53,649.21l.3,9.36a2.26,2.26,0,0,0,1.09,1.83l.91.56a1.67,1.67,0,0,1,.82,1.51,165.66,165.66,0,0,1-1.73,19.61c-.84,5.68-1.26,5.67-1.29-.08,0-3.49.09-7,.35-10.49a2,2,0,0,0-.78-1.7l-2.41-1.84-1.55-16.2a1.35,1.35,0,0,1,.92-1.38l3.37-1.18" transform="translate(-764.52 -536)"/><path id="path44" class="cls-3" d="M1122.66,658.69l-1.15,3.95c-3.31-3.61-3.93-7.6-1.85-11.92q1.46-3,1.24.32l-.42,6a1.45,1.45,0,0,0,1,1.49,2.85,2.85,0,0,0,1.18.12" transform="translate(-764.52 -536)"/><path id="path46" class="cls-1" d="M970.8,657.16l-1.63,2.29c-1,1.35-1.42,1.19-1.3-.46l.4-5.3a1,1,0,0,1,.51-.78,1,1,0,0,1,1,0l4.94,2.43a2.18,2.18,0,0,1,1.22,1.81l1.19,14a1.29,1.29,0,0,1-.5,1.16,1.31,1.31,0,0,1-1.25.21l-1.46-.49a1.26,1.26,0,0,1-.77-1.68,18.41,18.41,0,0,0,.42-12.75c-.61-1.94-1.51-2.09-2.72-.45" transform="translate(-764.52 -536)"/><path id="path47" class="cls-6" d="M1122.07,694.83l-1.08.09a217.51,217.51,0,0,1,.52-32.28l1.15-3.95a3,3,0,0,1,1-.85c.83-.41,1.16-.17,1,.75a139.31,139.31,0,0,0-2.58,36.24" transform="translate(-764.52 -536)"/><path id="path48" class="cls-3" d="M1006.15,658l1,18.75-4.6,4.59-.59-1.76,1-1.55a5.53,5.53,0,0,0,.77-2.12l2.46-17.91" transform="translate(-764.52 -536)"/><path id="path49" class="cls-6" d="M1046.89,685.49a2.22,2.22,0,0,1-1.6-2.29l1.26-21.77a1.17,1.17,0,0,1,.62-.95,1.12,1.12,0,0,1,1.12,0,15.74,15.74,0,0,0,8.67,2.31,1.18,1.18,0,0,1,1.18,1.13c.13,7.79,3.91,26.13-11.25,21.53" transform="translate(-764.52 -536)"/><path id="path55" class="cls-6" d="M1002,679.59l.59,1.76c-1.12.26-27.89,6.76-30.28,5.2-.71-.44-.65-.75.16-.91l29.53-6" transform="translate(-764.52 -536)"/><path id="path56" class="cls-5" d="M1118,700.28c-5.65.6-32.44-.57-33.4-8.2a2.74,2.74,0,0,0,2-.28,3.31,3.31,0,0,1,2.2-.37l27.26,5.37a1.23,1.23,0,0,1,.94,1.61l-.33,1.08a.57.57,0,0,0,0,.46.61.61,0,0,0,.4.25l.84.08" transform="translate(-764.52 -536)"/><path id="path57" class="cls-2" d="M1084.57,692.08c1,7.63,27.75,8.8,33.4,8.2,2.3-.88,3.3-2.67,3-5.36l1.08-.09q10.37,48.24,52.76,75a.67.67,0,0,1,.2.85.7.7,0,0,1-.81.35q-38.37-15.53-62.16-50.39c-.45-.67-.5-.64-.14.07A106.7,106.7,0,0,0,1150.78,763l-2.44,5.17A221.65,221.65,0,0,1,1090.43,723c-6.85-7.39-6.3-19.55-7.57-29.13-.16-1.23.44-2,1.71-1.79" transform="translate(-764.52 -536)"/><path id="path59" class="cls-2" d="M1057.2,862.57a122.54,122.54,0,0,0,22.22-24.52,129.13,129.13,0,0,0,16.33-35.69c6.75-23.23-2.3-50.51-15.28-70l-4.8-9.45a1.43,1.43,0,0,0-.9-.73,1.47,1.47,0,0,0-1.14.14,9.46,9.46,0,0,1-5.42,1.39c-1.33,0-1.54.44-.63,1.43,2.53,2.74,4.64,4.32,6.53,7.53a95.23,95.23,0,0,1,13.48,48.41c-.86,8.26-4.31,32.51-11.72,36.92q20.19-46.32-6.67-86.53-1.11-1.66-6.54-6a1,1,0,0,1-.36-.74.93.93,0,0,1,.36-.74c6.47-5.1,14.23-6.28,20.43.34q30.78,32.76,16.06,78.16c-7,21.52-21.7,49.36-42,60.14" transform="translate(-764.52 -536)"/><path id="path60" class="cls-7" d="M1080.47,732.33a2.12,2.12,0,0,0-2.06,1,2,2,0,0,0,.07,2.08c3.75,5.75,18.88,35.77,11.67,40.64a.47.47,0,0,1-.4,0,.49.49,0,0,1-.28-.3l-.17-.63c-.33-1.12-.58-1.12-.77,0l-.94,5.81a95.23,95.23,0,0,0-13.48-48.41c-1.89-3.21-4-4.79-6.53-7.53-.91-1-.7-1.47.63-1.43a9.46,9.46,0,0,0,5.42-1.39,1.47,1.47,0,0,1,1.14-.14,1.43,1.43,0,0,1,.9.73l4.8,9.45" transform="translate(-764.52 -536)"/><path id="path61" class="cls-2" d="M1069.29,801.53Q1078.4,763,1053.47,733q-4.92-5.91-11.84-5.89c-.83,0-.94.29-.35.85q37.58,35.22,13.36,82.36c-5.48,10.68-17.09,12.28-19.22,24a1.76,1.76,0,0,1-1.85,1.66.51.51,0,0,1-.56-.44l-.09-.61,1.94-11.25a2.75,2.75,0,0,0-2.22-3.16l-5.25-1a1.13,1.13,0,0,0-1.28.8l-3.39,11.72-1.45-11.72a2.22,2.22,0,0,0-1.18-1.64c-5.07-2.51-8.37-4.55-9.86-6.12-6.05-6.38-38.87-43.36-45.82-41.51a1.29,1.29,0,0,0-.64,2.08c16.29,18.61,30,38.47,35.25,63L997.9,844a32.63,32.63,0,0,1-13.48,6.65,5.54,5.54,0,0,1-5.67-2.1c-5.67-7.64-12.47-19.59-21.14-23.7-.72-.34-1-.12-.91.68,1.22,8.72,2.72,11.91.86,21a1,1,0,0,1-.49.67,1,1,0,0,1-.85,0L927,835.64a19,19,0,0,0-11.18-2.76.16.16,0,0,1-.14-.08.18.18,0,0,1,0-.19c.59-1.49-2.77-1.21-3.31-1.08l-6.49-2a1.42,1.42,0,0,1-1-1.57c.53-3.28,1.28-5.42,2.25-6.38,11.09-11.22,20.9-20.53,31.5-34.1,7.1-9.1,15.65-15.8,22.94-24.59,16.08-19.36,70.08-57.6,94.11-31.15q26.8,29.56,13.66,69.84" transform="translate(-764.52 -536)"/><path id="path62" class="cls-6" d="M1069.29,801.53c-5,19.91-17.42,39.92-37.69,46.92a1.18,1.18,0,0,1-1.55-1.37l2.87-12.12.09.61a.51.51,0,0,0,.56.44,1.76,1.76,0,0,0,1.85-1.66c2.13-11.74,13.74-13.34,19.22-24q24.21-47.13-13.36-82.36c-.59-.56-.48-.85.35-.85q6.91,0,11.84,5.89,24.93,29.94,15.82,68.52" transform="translate(-764.52 -536)"/><path id="path64" class="cls-3" d="M1095.19,731.23c1.57,1.94,3.7,3.21,4.64,5.72a.6.6,0,0,1-.08.53.61.61,0,0,1-.48.24l-.63,0a.59.59,0,0,1-.48-.22l-3.8-5.19a.49.49,0,0,1-.09-.37.56.56,0,0,1,.21-.36l.54-.35a.13.13,0,0,1,.17,0" transform="translate(-764.52 -536)"/><path id="path65" class="cls-8" d="M1080.47,732.33c13,19.52,22,46.8,15.28,70a129.13,129.13,0,0,1-16.33,35.69,122.54,122.54,0,0,1-22.22,24.52,16.69,16.69,0,0,1-9.83,6.22,1.4,1.4,0,0,1-1.43-.63,1.37,1.37,0,0,1,.1-1.56A195,195,0,0,0,1075.87,818c7.41-4.41,10.86-28.66,11.72-36.92l.94-5.81c.19-1.16.44-1.16.77,0l.17.63a.49.49,0,0,0,.28.3.47.47,0,0,0,.4,0c7.21-4.87-7.92-34.89-11.67-40.64a2,2,0,0,1-.07-2.08,2.12,2.12,0,0,1,2.06-1" transform="translate(-764.52 -536)"/><path id="path66" class="cls-2" d="M1146.86,775.17a23.23,23.23,0,0,1-13.78-2.93,1.64,1.64,0,0,0-2.31,2.16,19.51,19.51,0,0,0,11.71,10.17,247.68,247.68,0,0,1,31.41,12.88c-8.41,1.19-18.49-4.12-25,4.82-7.64,10.45-6.61,49.94-6,62.72q.45,9.13,7.75,17.38-7.38-1.7-9.34-8.62-3.7-13-2.79-30.94c0-.65-.16-.73-.56-.21-2.77,3.52,2,31.88,2.27,33.37a14.78,14.78,0,0,0,7.36,10.2,1.71,1.71,0,0,1,.77,1.87l-.47,1.91c-8.34-.31-33.18,0-36.24,11.81a76.5,76.5,0,0,0,.59,27c-.93,2.81-60.06,1-67,.94a1.46,1.46,0,0,1-1.37-.94q-2.77-7.49,3.8-10.8a2,2,0,0,0,1.08-1.74l.43-14.6c42.34-16.93,65.45-63.05,71.81-105.61.51-3.49,1.26-34.13-.94-35.48a.66.66,0,0,0-.64,0,.65.65,0,0,0-.35.52l-1.38,22.87a1.14,1.14,0,0,1-.5.87,1.11,1.11,0,0,1-1,.12,2.88,2.88,0,0,1-1.78-2,70.48,70.48,0,0,0-2.6-32.44c-.24-.72-.08-.82.47-.29a183.86,183.86,0,0,0,34.63,25.09" transform="translate(-764.52 -536)"/><path id="path67" class="cls-6" d="M1049.14,901.57q-1.86-11.7,5-16.1a105,105,0,0,0,21.54-17.7c20.11-22.17,34-55.54,38.63-85a2.88,2.88,0,0,0,1.78,2,1.11,1.11,0,0,0,1-.12,1.14,1.14,0,0,0,.5-.87L1119,761a.65.65,0,0,1,.35-.52.66.66,0,0,1,.64,0c2.2,1.35,1.45,32,.94,35.48-6.36,42.56-29.47,88.68-71.81,105.61" transform="translate(-764.52 -536)"/><path id="path70" class="cls-4" d="M1150.78,763c32.55,18.65,73.8,27.86,109.39,10.89a.83.83,0,0,1,1,.33.85.85,0,0,1-.19,1.1c-30.42,23.16-82.76,10.94-112.69-7.15l2.44-5.17" transform="translate(-764.52 -536)"/><path id="path72" class="cls-6" d="M1022.72,832.11a128.27,128.27,0,0,1-11.3,24.37,1.44,1.44,0,0,1-1.38.67,1.38,1.38,0,0,1-1.15-1A69.18,69.18,0,0,0,999,836.23c-5.27-24.56-19-44.42-35.25-63a1.29,1.29,0,0,1,.64-2.08c7-1.85,39.77,35.13,45.82,41.51,1.49,1.57,4.79,3.61,9.86,6.12a2.22,2.22,0,0,1,1.18,1.64l1.45,11.72" transform="translate(-764.52 -536)"/><path id="path73" class="cls-6" d="M1146.86,775.17c32.42,18.68,74.28,25.75,110.11,12.54a1.47,1.47,0,0,1,1.67.49,69.72,69.72,0,0,0,12.8,13.39.88.88,0,0,1,.32.8.91.91,0,0,1-.51.7c-2.91,1.31-5.74.48-8.25,1.22-7.71,2.17-13.61,6.37-16.39,14.33-7,20.25-2,46.56,23.89,48.6a1.14,1.14,0,0,1,.81.41,1.27,1.27,0,0,1,.25.9l-3.87,27.8a1.34,1.34,0,0,1-1.48,1.14c-39.44-4.08-78.73-7.7-118.36-7.54l.47-1.91a1.71,1.71,0,0,0-.77-1.87,14.78,14.78,0,0,1-7.36-10.2c-.28-1.49-5-29.85-2.27-33.37.4-.52.59-.44.56.21q-.93,17.91,2.79,30.94,2,6.91,9.34,8.62,45,4.07,92,4.88a3.13,3.13,0,0,0,2.3-1,3.09,3.09,0,0,0,.84-2.35l-.4-5.81a2.16,2.16,0,0,0-1.24-1.8l-11-5.2a1.56,1.56,0,0,1-.81-1.75c2.34-9.6,6-18.07,5.76-28q-.22-10.76-.91-22a4.35,4.35,0,0,0-4-4.08l-48.4-3.86c1.59-1.32,1.81-2.67.67-4l54,2.85a1.66,1.66,0,0,0,1.72-1.39l.49-3.16a1.74,1.74,0,0,0-1.24-1.94,58.84,58.84,0,0,0-13.29-1.83q-23.2-.94-53.23-4.51a247.68,247.68,0,0,0-31.41-12.88,19.51,19.51,0,0,1-11.71-10.17,1.64,1.64,0,0,1,2.31-2.16,23.23,23.23,0,0,0,13.78,2.93" transform="translate(-764.52 -536)"/><path id="path74" class="cls-4" d="M1274.18,775.73a56.81,56.81,0,0,1,12.52,33.72,1.78,1.78,0,0,1-1.37,1.79l-1.1.25a1.63,1.63,0,0,1-1.82-.84q-7.46-14.22-14.09-28.82a5.48,5.48,0,0,1,.89-6.16,3.09,3.09,0,0,1,2.49-1.15,3.19,3.19,0,0,1,2.48,1.21" transform="translate(-764.52 -536)"/><path id="path78" class="cls-7" d="M1073.18,837a.52.52,0,0,1-.19-.61c2.7-7.52,8.09-13.36,10.18-20.82q3.64-13.16,9.16-27.41a1.28,1.28,0,0,1,2.48.41c.61,17.44-8.29,34.16-17.92,48.12-.87,1.26-2.1,1.35-3.71.31" transform="translate(-764.52 -536)"/><path id="path79" class="cls-1" d="M1173.89,797.45q30,3.57,53.23,4.51a58.84,58.84,0,0,1,13.29,1.83,1.74,1.74,0,0,1,1.24,1.94l-.49,3.16a1.65,1.65,0,0,1-1.71,1.39l-54-2.85q-14.18-1.3-28.19-3.64c-5.2-.87-8.06,1.16-8.58,6.12-1.26,12-5.42,42-1.34,50.25a2.46,2.46,0,0,0,1.65,1.28l14.34,3.52a2.26,2.26,0,0,0,1.91-.39,2.29,2.29,0,0,0,1-1.69l3.42-48.64a3.15,3.15,0,0,1,3.17-2.93l12,.12,48.4,3.86a4.35,4.35,0,0,1,4,4.08q.67,11.21.91,22c.21,10-3.42,18.43-5.76,28a1.52,1.52,0,0,0,.81,1.73l11,5.22a2.16,2.16,0,0,1,1.24,1.8l.4,5.81a3.09,3.09,0,0,1-.84,2.35,3.13,3.13,0,0,1-2.3,1q-47-.81-92-4.88-7.3-8.24-7.75-17.38c-.61-12.78-1.64-52.27,6-62.72,6.54-8.94,16.62-3.63,25-4.82" transform="translate(-764.52 -536)"/><path id="path81" class="cls-2" d="M1185.44,807.43c1.14,1.33.92,2.68-.67,4l-12-.12a3.15,3.15,0,0,0-3.17,2.93l-3.42,48.64a2.29,2.29,0,0,1-1,1.69,2.26,2.26,0,0,1-1.91.39L1149,861.45a2.51,2.51,0,0,1-1.64-1.29c-4.08-8.28.08-38.25,1.34-50.25.52-5,3.38-7,8.58-6.12q14,2.34,28.19,3.64" transform="translate(-764.52 -536)"/><path id="path82" class="cls-3" d="M1161.61,861.8c.47-6.15,1.64-50.93,3.8-52.35.59-.36.84-.21.75.47a315.07,315.07,0,0,0-2.3,45.11,13.58,13.58,0,0,1-1.71,6.93c-.43.75-.6.69-.54-.16" transform="translate(-764.52 -536)"/><path id="path83" class="cls-8" d="M1264.8,853.41c-12.51-8-7.38-41.34,9-39.66a.76.76,0,0,1,.61.41.73.73,0,0,1-.05.73q-3.67,5.88-7.68,11.16c-11,14.54,5.55,31.22,16.12,15.22a1.26,1.26,0,0,1,1.45-.5l.71.24a.38.38,0,0,1,.23.48c-2.44,7.79-10.33,18.36-20.39,11.92" transform="translate(-764.52 -536)"/><path id="path84" class="cls-8" d="M1290.23,825.49l-2.34,2a1.61,1.61,0,0,0-.59-.37.33.33,0,0,0-.37,0,.42.42,0,0,0-.19.32l-.11,4.23a1.61,1.61,0,0,1-1.22,1.53l-10.9,3q-4.15-4.29-.09-8.3a6.5,6.5,0,0,0,2.55,1,1.37,1.37,0,0,0,1.11-.31,1.33,1.33,0,0,0,.46-1l-.28-12.24a1.39,1.39,0,0,1,1-1.38c6-1.5,8.57,7.52,10.94,11.6" transform="translate(-764.52 -536)"/><path id="path86" class="cls-6" d="M1366.4,893.64c-16.93,2.68-27.28,11-40.8,20.43a2.47,2.47,0,0,1-2.08.32c-9-2.67-10.91-9.72-7.32-18.26,5.3-12.52,11.13-25,4.53-36.3a.78.78,0,0,0-.63-.38.76.76,0,0,0-.64.34,138,138,0,0,0-19.94,42.93l-8.79-2.16a1.14,1.14,0,0,1-.8-1.45,219.64,219.64,0,0,0,10-53.72c.21-3.22,1.62-7.71.37-12a1.67,1.67,0,0,0-1.47-1.27,19.51,19.51,0,0,1-11-4.64l2.34-2,.92,1.18a3,3,0,0,0,1.87,1.14q13.21,2.34,16.69-10.08a1.55,1.55,0,0,1,2.84-.32A72.94,72.94,0,0,0,1324.64,834a23.36,23.36,0,0,1,5.41,8c4.06,10.76,5.91,17.72,15.26,27.68,5.86,6.22,8,12.52-.07,17.94q-11,7.35-21.84,14.85c-.66.47-.59.64.21.52a15.12,15.12,0,0,0,5.46-1.64c13.48-8.13,26.44-18.21,38.88-9.77a.76.76,0,0,1,.36.69.79.79,0,0,1-.43.64l-1.48.72" transform="translate(-764.52 -536)"/><path id="path88" class="cls-8" d="M1272.66,827.25c-2.29,3.16-2.29,6.47,0,10a4.11,4.11,0,0,1-2.7,1.95,1.49,1.49,0,0,1-1.76-1,16.58,16.58,0,0,1,3.16-14.94.83.83,0,0,1,1.39.16,4.92,4.92,0,0,1-.09,3.92" transform="translate(-764.52 -536)"/><path id="path90" class="cls-6" d="M997.9,844c-1,7-6.61,29.56-18.31,21.45q-7.47-5.22-14.51-10.88c-.48-.38-.65-.29-.51.3l2.06,8.7a1.55,1.55,0,0,1-.35,1.4,1.57,1.57,0,0,1-1.36.5l-5.18-.62a3.59,3.59,0,0,1-2-.93,265.12,265.12,0,0,0-31.92-24.72l1.17-3.52,29.27,11.53a1,1,0,0,0,.85,0,1,1,0,0,0,.49-.67c1.86-9.05.36-12.24-.86-21-.12-.8.19-1,.91-.68,8.67,4.11,15.47,16.06,21.14,23.7a5.54,5.54,0,0,0,5.67,2.1A32.63,32.63,0,0,0,997.9,844" transform="translate(-764.52 -536)"/><path id="path91" class="cls-9" d="M1272.66,827.25l1.76.58q-4.07,4,.09,8.3l-1.85,1.08c-2.29-3.49-2.29-6.8,0-10" transform="translate(-764.52 -536)"/><path id="path92" class="cls-8" d="M1222.73,847a18.91,18.91,0,1,1-18.91-18.91A18.91,18.91,0,0,1,1222.73,847" transform="translate(-764.52 -536)"/><path id="path93" class="cls-4" d="M912.3,831.53c.54-.13,3.9-.41,3.31,1.08a.18.18,0,0,0,0,.19.16.16,0,0,0,.14.08A19,19,0,0,1,927,835.64l-1.17,3.52v.63a.26.26,0,0,1-.11.2.24.24,0,0,1-.22,0,38,38,0,0,1-13.15-8.47" transform="translate(-764.52 -536)"/><path id="path94" class="cls-2" d="M945.8,869.53c-4.81,1.5-4.46-3-6.35-5.53a108,108,0,0,0-21.87-22c-3.54-2.65-6.94-2.9-11.13-3.44l-3.52-1.94-1.08-.5a3.6,3.6,0,0,1,.35-1.61,2,2,0,0,1,1.76-1.11c15.63.15,35.09,24.47,41.84,36.12" transform="translate(-764.52 -536)"/><path id="path95" class="cls-7" d="M901.85,836.13l1.08.5c-.75,2.1,18.35,18.09,21.07,20.62s34.61,42,28.08,47.14a.75.75,0,0,1-.58.13.67.67,0,0,1-.47-.35q-10.62-19.51-25.2-30.58a86.13,86.13,0,0,1-12.33-10.86,3.07,3.07,0,0,0-1.81-1c-2.79-.52-4-2.12-3.51-4.79a1.94,1.94,0,0,0-.73-1.89l-12.81-10.11v-1.76l3.51-4.09,3.7-2.94" transform="translate(-764.52 -536)"/><path id="path96" class="cls-9" d="M902.93,836.63l3.52,1.94c22.87,17.64,42.11,36,49.47,62.51a1.94,1.94,0,0,1-.51,1.95,10.54,10.54,0,0,0-3.17,6.34l-4.69,3.52c-3.7-1.44-6.58-2.65-8.88-6.21a353,353,0,0,0-47.72-59l3.69-2.72L907.45,855a1.94,1.94,0,0,1,.73,1.89c-.46,2.67.72,4.27,3.51,4.79a3.07,3.07,0,0,1,1.81,1,86.13,86.13,0,0,0,12.33,10.86q14.58,11.05,25.19,30.58a.71.71,0,0,0,.48.35.75.75,0,0,0,.58-.13c6.53-5.14-25.5-44.72-28.08-47.14s-21.82-18.52-21.07-20.62" transform="translate(-764.52 -536)"/><path id="path97" class="cls-7" d="M906.45,838.57c4.19.54,7.59.79,11.13,3.44a108,108,0,0,1,21.87,22c1.89,2.55,1.54,7,6.35,5.53,5.78,9.78,18.56,33.19,6.44,39.84a10.54,10.54,0,0,1,3.17-6.34,1.94,1.94,0,0,0,.51-1.95c-7.36-26.49-26.6-44.87-49.47-62.51" transform="translate(-764.52 -536)"/><path id="path98" class="cls-7" d="M891,847.64a353,353,0,0,1,47.72,59c2.3,3.56,5.18,4.77,8.88,6.21a7.93,7.93,0,0,1-4,1.92,1.84,1.84,0,0,1-1.85-.73c-16.45-23.13-32.27-45-53.27-63.72a1.57,1.57,0,0,1,.09-2.41,1.93,1.93,0,0,1,2.39-.31" transform="translate(-764.52 -536)"/><path id="path99" class="cls-2" d="M906.54,883,905,886a2.39,2.39,0,0,0-.1,2l4.41,10.92a3.14,3.14,0,0,1,.07,2.2,18.29,18.29,0,0,0-.52,9.59,2.27,2.27,0,0,1-.42,1.85l-1.1,1.48a1.28,1.28,0,0,0-.23,1,1.31,1.31,0,0,0,.51.84,3.72,3.72,0,0,1,1.71,4.09,233.94,233.94,0,0,0-35.51-17.39c-7.12-2.77-15.6-2.93-23.57-4.9a2.21,2.21,0,0,1-1.53-1.38c-7.57-20.4,15.44-34.88,30.94-39.56a2.16,2.16,0,0,1,2,.42A160.32,160.32,0,0,1,906.54,883" transform="translate(-764.52 -536)"/><path id="path100" class="cls-1" d="M1366.4,893.64c-2.57,2.16,1,7.65,1.84,9.67a.86.86,0,0,1,0,.7.9.9,0,0,1-.54.47l-4.5,1.33c-1.46.44-1.52,1-.14,1.68l1.61.8A70.45,70.45,0,0,0,1341.31,927q-6.35,6.75.12,12.17a1.88,1.88,0,0,0,2,.25l1.32-.61c-.42,2.07.32,3.21,2.24,3.43,3.18,7.89,8.91,16.26,2,24.17-6.36,7.25-15.69,16.91-18,26.39a10.47,10.47,0,0,0,3.7,10.37,22.25,22.25,0,0,0,12.5,4.91.94.94,0,0,0,.67-.24.87.87,0,0,0,.25-.66l-.06-4.57a1.58,1.58,0,0,1,1.7-1.59c5.38.42-1.56,23.86,7.3,23.34l4.69,1q7.85-.07,12.75,7.86,8.07,13.11,25.92,24.56a17.36,17.36,0,0,0,7,6.84l11,8.3,5.87,4.06a1.22,1.22,0,0,0,1.2.1,1.19,1.19,0,0,0,.69-1c3.31-27.31,29.72-48.89,56.8-35.32l2.26.49a116.53,116.53,0,0,0,20.12,14.24l11.56,14,10.1,22.15a52.87,52.87,0,0,1,12.88,19.92,120.53,120.53,0,0,1,0,33.4,48.4,48.4,0,0,1-9,22.06c-7.47,9.91-16,1.47-16.37-7.41,4.84-17.74,15.57-33,7.65-51.59a7.32,7.32,0,0,0-3.17-3.53l-37.24-20.91a1.68,1.68,0,0,0-1.92.19c-3.54,3-5.27,8.27-8.66,10.24-3.74,2.2-12.22,2-16.64,2.7a1,1,0,0,0,0,2c19.25,3.39,36.92,13.42,54.21,22a4,4,0,0,1,1.63,1.58c6.7,12.33-2.59,27.09-3.84,38.55a5.81,5.81,0,0,1-2.47,3,2.14,2.14,0,0,1-2.11.07c-6-3.12-8.81-12.47-11.44-18.35l-.14-.92a2.85,2.85,0,0,0-1.18-1.89c-6.6-4.67-11-8.21-16-15.47a57.5,57.5,0,0,0-17.51-16.62c-2-6.12-2.16-13.22-6.44-17.84a43.59,43.59,0,0,0-6.64-5.93,56.69,56.69,0,0,0-9.43-3.14c-8.76-2.09-17.32-10.17-25.06-15a64.31,64.31,0,0,0-19.44-14.16l-19.06-23.83a3.68,3.68,0,0,0-2-1.29l-14.77-3.32a2.36,2.36,0,0,1-1.76-1.6l-3.72-12.26a1.57,1.57,0,0,0-1.2-1.1c-16.31-3.28-16.69-13.9-23.06-26.35a3.73,3.73,0,0,0-1.53-1.59,59.17,59.17,0,0,1-14.2-11.17,5.56,5.56,0,0,0,3.52-4.69,13.77,13.77,0,0,0,8.55,5.24,2.12,2.12,0,0,0,2.13-.78l12.37-15.49a1.79,1.79,0,0,0,.15-2.08,35.15,35.15,0,0,0-17.44-15.12c-4.08-4.73-10.64-12.13-11.3-18.49a27.52,27.52,0,0,0-1.1-5.43c2.27-5.41-3.49-4.6-6.35-5.77,2.05-1.35,2.6-3.59,1.67-6.75a138,138,0,0,1,19.94-42.93.76.76,0,0,1,.64-.34.78.78,0,0,1,.63.38c6.6,11.29.77,23.78-4.53,36.3-3.59,8.54-1.73,15.59,7.32,18.26a2.47,2.47,0,0,0,2.08-.32c13.52-9.46,23.87-17.75,40.8-20.43" transform="translate(-764.52 -536)"/><path id="path102" class="cls-7" d="M917.18,872.32a2.12,2.12,0,0,1-1.52-2,.76.76,0,0,1,.39-.67.81.81,0,0,1,.8,0,69,69,0,0,1,27.42,30.55c.63,1.36.28,1.68-1,1l-1.33-.72a3.71,3.71,0,0,1-1.58-1.74,56.53,56.53,0,0,0-13.87-19.5c-2.44-2.26-5.67-2.88-7.88-5.76a3.45,3.45,0,0,0-1.4-1.11" transform="translate(-764.52 -536)"/><path id="path104" class="cls-6" d="M906.54,883a365.18,365.18,0,0,1,28.73,52.24,1.06,1.06,0,0,1,0,.87,1.13,1.13,0,0,1-.64.59l-4.08,1.37-.67-2.25,1,0a1.21,1.21,0,0,0,1-.57,1.19,1.19,0,0,0,.06-1.13L922.39,914a1.69,1.69,0,0,0-2-.9c-2.41.68-.16,7.65-1.7,10.92a4.93,4.93,0,0,0-5.86-1.76l-3.52-2.35a3.72,3.72,0,0,0-1.71-4.09,1.31,1.31,0,0,1-.51-.84,1.28,1.28,0,0,1,.23-1l1.1-1.48a2.27,2.27,0,0,0,.42-1.85,18.29,18.29,0,0,1,.52-9.59,3.09,3.09,0,0,0-.08-2.2L904.85,888a2.39,2.39,0,0,1,.1-2l1.59-3" transform="translate(-764.52 -536)"/><path id="path109" class="cls-4" d="M1158.26,895.43a192.24,192.24,0,0,0-41.56,3.64c-.81.17-.87,0-.18-.46,5.74-3.86,13.19-3.65,18.28-4.8a42.46,42.46,0,0,1,23.5,1.24c.77.27.75.4,0,.38" transform="translate(-764.52 -536)"/><path id="path110" class="cls-6" d="M1227.27,898.35l27.51,1.77a1.79,1.79,0,0,1,1.66,1.91l-.49,7.61a1.78,1.78,0,0,1-1.89,1.67l-27.51-1.78a1.78,1.78,0,0,1-1.66-1.89l.49-7.63a1.77,1.77,0,0,1,1.89-1.66" transform="translate(-764.52 -536)"/><path id="path111" class="cls-3" d="M1111.61,901.76l2.12,0a1,1,0,0,1,.79.34,1.12,1.12,0,0,1,.26.84c-.51,3.71-.42,25.52-2.58,25.74a76.5,76.5,0,0,1-.59-27" transform="translate(-764.52 -536)"/><path id="path112" class="cls-5" d="M1128.66,908.92l-.14,52.6a1.87,1.87,0,0,1-1.46,1.81c-3.11.68-4.29-1.16-4.36-4q-.56-27.25,1.29-53.94a1.34,1.34,0,0,1,1.27-1.23l56.51-1.8a3.42,3.42,0,0,1,2.54,1,3.46,3.46,0,0,1,1.06,2.5q.11,20.52-.56,42.78c-.42,14.24,9.68,10,10.34,14.74a1.19,1.19,0,0,1-.27.9,1.1,1.1,0,0,1-.83.38q-12.71.1-12.75-11.85-.1-22,0-44a1.16,1.16,0,0,0-1.15-1.17q-24.07-.35-48,1.36a5.66,5.66,0,0,1-2.36-.73.75.75,0,0,0-.7.05.73.73,0,0,0-.33.6" transform="translate(-764.52 -536)"/><path id="path113" class="cls-5" d="M1297.85,909.47c2.86,1.17,8.62.36,6.35,5.77L1271,911.36a1.23,1.23,0,0,0-1.34,1c-.59,3.8-4,31.68-6.45,31.85a1.27,1.27,0,0,1-1.36-1.26,205,205,0,0,1,3.57-35.2,1.5,1.5,0,0,1,1.38-1.23,106.07,106.07,0,0,1,31,2.91" transform="translate(-764.52 -536)"/><path id="path114" class="cls-2" d="M913.39,944.17,896.7,926.88a1.43,1.43,0,0,0-2.14.15,15.91,15.91,0,0,1-7.08,5.45,1.45,1.45,0,0,0-.63,2.23l4.95,6.52a1,1,0,0,1,.12.89l-.22.65-10.45-3.61a3.42,3.42,0,0,0-2.3-.8,1.26,1.26,0,0,0-1.15,1.25l0,3.58a1,1,0,0,1-.43.81,1,1,0,0,1-.91.13,29.64,29.64,0,0,1-10.36-5.88.9.9,0,0,0-.8-.22.94.94,0,0,0-.68.48c-2.41,4.45,9.75,18.85,12.9,22.17a1.68,1.68,0,0,1,.28,1.92l-.47.89a1.1,1.1,0,0,0,.4,1.43,3.49,3.49,0,0,1,1.71,3.63q-35.07-12-69.42-1.62a1.53,1.53,0,0,1-1.7-.61,1.47,1.47,0,0,1,.08-1.77q5.39-6.76,10.29-13.76c11.43-16.38,2.34-39.59,30.4-43.12,26.7-3.36,52.34,13.4,64.34,36.5" transform="translate(-764.52 -536)"/><path id="path115" class="cls-7" d="M1379.23,914.88q-5-6.14-9.83-4.89-14.14,3.66-24.72,16a2.68,2.68,0,0,1-2,.91h-1.38a70.45,70.45,0,0,1,23.33-18.66q13.8-4.71,14.59,6.59" transform="translate(-764.52 -536)"/><path id="path116" class="cls-2" d="M954.14,1045.45a2.58,2.58,0,0,1-2.39-1.37c-4.12-8.07-6.61-15.76-7-25.32q-1.58-36.13-1.22-72.33c.09-10.39-.86-17.55,8.16-24.5a85,85,0,0,1,22.17-12.09.84.84,0,0,1,1.1.77q.32,49.54-.68,98.94a62.39,62.39,0,0,0,5,26,1.39,1.39,0,0,1-.49,1.7,45.24,45.24,0,0,1-24.66,8.16" transform="translate(-764.52 -536)"/><path id="path117" class="cls-8" d="M1379.23,914.88c-13.23,2.67-25.11,14.69-34.5,23.88l-1.32.61a1.88,1.88,0,0,1-2-.25q-6.47-5.42-.12-12.17h1.38a2.68,2.68,0,0,0,2-.91q10.58-12.4,24.72-16,4.81-1.25,9.83,4.89" transform="translate(-764.52 -536)"/><path id="path118" class="cls-8" d="M929.89,935.83,918.66,924c1.54-3.27-.71-10.24,1.7-10.92a1.69,1.69,0,0,1,2,.9l9.56,20.1a1.19,1.19,0,0,1-.06,1.13,1.21,1.21,0,0,1-1,.57l-1,0" transform="translate(-764.52 -536)"/><path id="path119" class="cls-3" d="M959.63,1003q1.17-30.42-.87-81.36c0-.68,0-.7.16,0,.44,2.31,1.5,5,1.55,7.22q1,46-.45,91.92a1.19,1.19,0,0,1-.82,1.1l-.65.23c-.33.13-.42,0-.26-.28,2-4.31,1.07-12,1.34-18.81" transform="translate(-764.52 -536)"/><path id="path120" class="cls-2" d="M1407.17,942.37a14.67,14.67,0,0,1-15.24.66,1.81,1.81,0,0,0-1.94.21c-11,8.68-54.84,35.68-55.92,48.33q-.35,3.88-3.1,1.18c2.34-9.48,11.67-19.14,18-26.39,6.88-7.91,1.15-16.28-2-24.17a86.65,86.65,0,0,1,26.14-21.36,1.87,1.87,0,0,1,2,.12c7.79,5.68,10.79,14.56,20.71,20.77a3.06,3.06,0,0,0,2.14.4,22,22,0,0,1,9.2.25" transform="translate(-764.52 -536)"/><path id="path121" class="cls-2" d="M918.66,924l11.23,11.8.67,2.25a1.79,1.79,0,0,1-.51.83,1,1,0,0,1-.81.18,1,1,0,0,1-.69-.45,64.51,64.51,0,0,0-15.75-16.37,4.93,4.93,0,0,1,5.86,1.76" transform="translate(-764.52 -536)"/><path id="path122" class="cls-6" d="M913.39,944.17a8.32,8.32,0,0,1,2.29,7.08c-.45,4.31-2.5,5.28-6.14,3L891.7,942.77l.22-.65a1,1,0,0,0-.12-.89l-4.95-6.52a1.45,1.45,0,0,1,.63-2.23,15.91,15.91,0,0,0,7.08-5.45,1.43,1.43,0,0,1,2.14-.15l16.69,17.29" transform="translate(-764.52 -536)"/><path id="path123" class="cls-3" d="M955.92,1020.56a.91.91,0,0,1,1.08.59c.23.57.06.76-.52.54a5.12,5.12,0,0,1-3.68-5.25c-.09-28.51,2.33-59.93-2-88a1.13,1.13,0,0,1,.25-.93,1.21,1.21,0,0,1,.85-.43c4.06-.12,2.6,83.79,2.6,92.26a1.25,1.25,0,0,0,.44.93,1.23,1.23,0,0,0,1,.28" transform="translate(-764.52 -536)"/><path id="path124" class="cls-4" d="M1245.11,932.13l-1.16,3.51-35.58-2.72a1.8,1.8,0,0,0-1.92,1.56l-4,31.12a1.12,1.12,0,0,0,.23.85,1.07,1.07,0,0,0,.75.44l13.15,1.62L1204,973.83a10.35,10.35,0,0,1-5.72-1.18,2,2,0,0,1-1-1.76c.33-13.3-.3-28.25,7-39.86a2.11,2.11,0,0,1,1.78-1,233,233,0,0,1,39,2.1" transform="translate(-764.52 -536)"/><path id="path125" class="cls-10" d="M1245.11,932.13a22.61,22.61,0,0,1,9.75,2.08,1.81,1.81,0,0,1,1.06,1.79l-1.83,23.76a1.64,1.64,0,0,0,.39,1.21,1.54,1.54,0,0,0,1.13.55l7.55.4a.72.72,0,0,1,.54.28.73.73,0,0,1,.12.59c-.49,2.41-7.9,3.18-9.82,3.21a1.16,1.16,0,0,0-1.15,1.15c0,11.4-7.52,9.52-15.58,9.28a331.26,331.26,0,0,1-33.26-2.6l12.58-5.32,24.66-.78a1.34,1.34,0,0,0,1.29-1.21c.35-3.71,3.26-30.15,1.41-30.88l1.16-3.51" transform="translate(-764.52 -536)"/><path id="path126" class="cls-2" d="M1012.69,956l7.29.78a2,2,0,0,1,1.75,1.4c3,9.37-27.3,8.93-18.65-21.07a3.13,3.13,0,0,1,1.34-1.76c4.29-2.68,9.53-3.29,15.72-1.87a1.75,1.75,0,0,1,1.29,2.19l-1.92,6.83a2.06,2.06,0,0,1-1.34,1.38l-7,2.18a1.73,1.73,0,0,0-1.17,2l1.43,6.8a1.4,1.4,0,0,0,1.24,1.13" transform="translate(-764.52 -536)"/><path id="path127" class="cls-1" d="M1244,935.64c1.85.73-1.06,27.17-1.41,30.88a1.34,1.34,0,0,1-1.29,1.21l-24.66.78-13.14-1.62a1.07,1.07,0,0,1-.76-.44,1.12,1.12,0,0,1-.23-.85l4-31.12a1.8,1.8,0,0,1,1.92-1.56l35.58,2.72" transform="translate(-764.52 -536)"/><path id="path128" class="cls-5" d="M1046,933.16l65.42,1.37a1.76,1.76,0,0,1,1.72,1.79l0,1.69a1.76,1.76,0,0,1-1.79,1.72l-65.42-1.37a1.77,1.77,0,0,1-1.72-1.79l0-1.69a1.77,1.77,0,0,1,1.8-1.72" transform="translate(-764.52 -536)"/><path id="path130" class="cls-1" d="M1010.48,939.77c-.3-5,6.68-3.4,8,.07a.94.94,0,0,1-.1.83.88.88,0,0,1-.72.37l-5.91,0a1.29,1.29,0,0,1-1.29-1.22" transform="translate(-764.52 -536)"/><path id="path131" class="cls-6" d="M881.25,939.16a1.75,1.75,0,0,0-.38,2.37,2.45,2.45,0,0,0,2,1.27,1.84,1.84,0,0,1,1.95,1.84,4.32,4.32,0,0,0,.89,2.33l18,23.51a1.16,1.16,0,0,1,.16,1.16,1.21,1.21,0,0,1-.93.72,39,39,0,0,1-23.53-3.81,3.49,3.49,0,0,0-1.71-3.63,1.1,1.1,0,0,1-.4-1.43l.47-.89a1.67,1.67,0,0,0-.29-1.92c-3.14-3.32-15.3-17.72-12.89-22.17a.94.94,0,0,1,.68-.48.9.9,0,0,1,.8.22,29.64,29.64,0,0,0,10.36,5.88,1,1,0,0,0,.91-.13,1,1,0,0,0,.43-.81l0-3.58a1.26,1.26,0,0,1,1.15-1.25,3.42,3.42,0,0,1,2.3.8" transform="translate(-764.52 -536)"/><path id="path133" class="cls-7" d="M1316.6,939.16A35.15,35.15,0,0,1,1334,954.28a1.79,1.79,0,0,1-.15,2.08l-12.37,15.49a2.12,2.12,0,0,1-2.13.78,13.77,13.77,0,0,1-8.55-5.24c-8.7-7.23.13-21.66,5.76-28.23" transform="translate(-764.52 -536)"/><path id="path134" class="cls-6" d="M1407.17,942.37a9.55,9.55,0,0,1,6-.77,2.66,2.66,0,0,1,2,1.41l5.32,10a1.69,1.69,0,0,1-.63,2.23l-10.07,5.88c-25.22,1-54.53,13-65.68,37.43a1.84,1.84,0,0,1-1.62,1.1,10.8,10.8,0,0,0-7.76,3.47,10.47,10.47,0,0,1-3.7-10.37q2.76,2.7,3.1-1.18c1.08-12.65,44.92-39.65,55.92-48.33a1.81,1.81,0,0,1,1.94-.21,14.67,14.67,0,0,0,15.24-.66" transform="translate(-764.52 -536)"/><path id="path135" class="cls-9" d="M1322,945.12l-1.27,2.24-1.85,1.85a6.47,6.47,0,0,1-3.91-2.92q1.21-4,5-4a1.61,1.61,0,0,1,1.54,1.15l.52,1.73" transform="translate(-764.52 -536)"/><path id="path137" class="cls-5" d="M1112,953.91a11.66,11.66,0,0,0-5.88.7c-.82.31-.83.66,0,1a7.93,7.93,0,0,0,6.49,0,2.11,2.11,0,0,1-2,3.22,486.27,486.27,0,0,0-64.08-2.38,1.4,1.4,0,0,1-1.45-1.4l-.11-9.43a1.4,1.4,0,0,1,.41-1,1.39,1.39,0,0,1,1-.4l65.07,1.86a1,1,0,0,1,.78.36,1,1,0,0,1,.27.8l-.46,6.64" transform="translate(-764.52 -536)"/><path id="path138" class="cls-8" d="M1322,945.12l8,7.47a3.89,3.89,0,0,1,.31,5.4l-10,11.56a1.67,1.67,0,0,1-1.86.45c-11.68-4.45-8.44-15.75-3.45-23.71a6.47,6.47,0,0,0,3.91,2.92l-2.06,3.68a2.8,2.8,0,0,0-.24,2.14l2.84,9.49c.39,1.36,1,1.45,1.76.27l2.6-4a1.27,1.27,0,0,0,.17-1,1.32,1.32,0,0,0-.59-.83c-3.78-2.29-1.81-5.69.25-8.28a1.25,1.25,0,0,0-.13-1.72,6.81,6.81,0,0,0-2.75-1.56l1.27-2.24" transform="translate(-764.52 -536)"/><path id="path140" class="cls-3" d="M1228.33,949.33l-.23,6.08a1.45,1.45,0,0,1-1.45,1.4l-4.32,0a1.11,1.11,0,0,1-1.12-1.19c.24-3.25-.26-10.61,5.77-8.37a2.1,2.1,0,0,1,1.35,2.06" transform="translate(-764.52 -536)"/><path id="path141" class="cls-7" d="M1320.7,947.36a6.81,6.81,0,0,1,2.75,1.56,1.25,1.25,0,0,1,.13,1.72c-2.06,2.59-4,6-.25,8.28a1.32,1.32,0,0,1,.59.83,1.27,1.27,0,0,1-.17,1l-2.6,4c-.79,1.18-1.37,1.09-1.76-.27l-2.84-9.49a2.8,2.8,0,0,1,.24-2.14l2.06-3.68,1.85-1.85" transform="translate(-764.52 -536)"/><path id="path142" class="cls-4" d="M1007.23,953.79a3.84,3.84,0,0,1-.12,3.18c-.55,1.18-.88,1.11-1-.18l-.66-7c-.09-1,.26-1.2,1.06-.51a2.52,2.52,0,0,1,.64,2.8,2.48,2.48,0,0,0,.09,1.7" transform="translate(-764.52 -536)"/><path id="path143" class="cls-3" d="M1112,953.91l.58,1.76a7.93,7.93,0,0,1-6.49,0c-.8-.37-.79-.72,0-1a11.66,11.66,0,0,1,5.88-.7" transform="translate(-764.52 -536)"/><path id="path144" class="cls-2" d="M1409.73,961.12a13.56,13.56,0,0,0-.66,5.47,1.46,1.46,0,0,0,1.3,1.26l4.42.44a11.48,11.48,0,0,1-8.72,2.6,4.34,4.34,0,0,0-2.23.4,96.39,96.39,0,0,0-35.84,30.5,27,27,0,0,1-10.61,8.48,3,3,0,0,0-1.55,1.72q-2.23,6,1.52,10.46a1.41,1.41,0,0,1,.28,1.23.82.82,0,0,1-.61.63c-8.86.52-1.92-22.92-7.3-23.34a1.58,1.58,0,0,0-1.7,1.59l.08,4.57a1,1,0,0,1-.27.66,1,1,0,0,1-.68.24,22.25,22.25,0,0,1-12.49-4.91,10.8,10.8,0,0,1,7.76-3.47,1.84,1.84,0,0,0,1.62-1.1c11.15-24.39,40.46-36.47,65.68-37.43" transform="translate(-764.52 -536)"/><path id="path145" class="cls-5" d="M1047.52,966.19a9,9,0,0,0-1.72,0,1.61,1.61,0,0,1-1.66-1.17l-.47-1.75a1.17,1.17,0,0,1,.23-1,1.11,1.11,0,0,1,1-.4c25.92,2.85,45.82,4.7,67.19,3.44a1.14,1.14,0,0,1,.85.3,1.13,1.13,0,0,1,.35.83v.79a1.36,1.36,0,0,1-1,1.33,4.72,4.72,0,0,1-3.14-.28,4.69,4.69,0,0,0-2.18-.44,451.32,451.32,0,0,1-59.41-1.57" transform="translate(-764.52 -536)"/><path id="path146" class="cls-6" d="M1482.33,1023a79.43,79.43,0,0,0-25.1-2.83c-25.71-3.18-35,8-51.83,23.7,3.45-13.39,17.8-22.27,28.55-29.48,11.28-7.58,7.84-23.72-2.43-29.5q-7.21-4-17.07-2c-21.4,4.28-30.16,26.64-38.46,41.71a1.53,1.53,0,0,1-1.71.76c-3.8-.92-12.71-3.47-12.56-.06l-4.69-1a.82.82,0,0,0,.61-.63,1.41,1.41,0,0,0-.28-1.23q-3.77-4.44-1.52-10.46a3,3,0,0,1,1.55-1.72,27,27,0,0,0,10.61-8.48,96.39,96.39,0,0,1,35.84-30.5,4.13,4.13,0,0,1,2.23-.38,11.57,11.57,0,0,0,8.72-2.62,42.78,42.78,0,0,1,18.37-4.26c7.95-.1,8.17,4.42,7.57,11.16q-.78,8.64,6.82,14.17c13,9.52,28.78,17.71,34.78,33.68" transform="translate(-764.52 -536)"/><path id="path150" class="cls-2" d="M1122,979.8a9.72,9.72,0,0,1-8.34-2.72c-.57-.53-.89-.41-1,.36-2,16.4,29.88,17.63,40.12,18.8a1.67,1.67,0,0,1,1.45,1.33,4.94,4.94,0,0,1,0,1.95l-10.5,1.33a1.39,1.39,0,0,0-1.19,1.16,1.34,1.34,0,0,0,.81,1.42l17.27,7.4a.86.86,0,0,1,.52,1,.88.88,0,0,1-.91.69c-43.08-1.85-86.09-8-129-12.47a.86.86,0,0,1-.64-.38.93.93,0,0,1-.11-.74l7.81-26.5a1.56,1.56,0,0,1,1.52-1.11q36,1.2,71.58,2.09c3.72.08,7.23,2.23,10.52,6.39" transform="translate(-764.52 -536)"/><path id="path152" class="cls-7" d="M887.11,989.75a70.87,70.87,0,0,0-35.06-12.4,58.29,58.29,0,0,0-17.68-1.08q-9.76-2.82-11.29,5.46c-1.78,1-8,3.3-6.75,6a1,1,0,0,0,.68.6,1.11,1.11,0,0,0,.89-.13,30.25,30.25,0,0,1,17.53-4.83,136.45,136.45,0,0,1,51.18,12.1,13.82,13.82,0,0,1-5,10.66,1.88,1.88,0,0,1-1.94.32,117.33,117.33,0,0,0-69-4.8,1.46,1.46,0,0,1-1.66-.84,28.64,28.64,0,0,1-.91-20.9,3,3,0,0,1,1.66-1.83c23.72-10.13,47.57-5,71.55,5q5.7,2.34,5.77,6.67" transform="translate(-764.52 -536)"/><path id="path153" class="cls-11" d="M834.37,976.27a12.67,12.67,0,0,1-11.29,5.46q1.51-8.28,11.29-5.46" transform="translate(-764.52 -536)"/><path id="path154" class="cls-8" d="M834.37,976.27a58.29,58.29,0,0,1,17.68,1.08,5.86,5.86,0,0,0,5.9,3.22,6.08,6.08,0,0,1,2.16.31l13.36,4.76c.8.28.82.61.07,1a2.2,2.2,0,0,1-1.69.05,88.25,88.25,0,0,0-36.42-3.28,30.25,30.25,0,0,0-17.53,4.83,1.11,1.11,0,0,1-.89.13,1,1,0,0,1-.68-.6c-1.27-2.74,5-5.08,6.75-6a12.67,12.67,0,0,0,11.29-5.46" transform="translate(-764.52 -536)"/><path id="path155" class="cls-6" d="M1122,979.8c5.61-.23,11.86,1,16.46,1.24q32.44,1.46,64.94,1.85a4,4,0,0,0,1.36,1.48c-.19,1.47.36,2.3,1.64,2.46q26.65,3.45,63.38,5.77a2.23,2.23,0,0,1,1.92,1.33l4.64,10.82a1.19,1.19,0,0,1-1.19,1.68q-60.4-5.2-120.87-6.91a4.94,4.94,0,0,0,0-1.95,1.67,1.67,0,0,0-1.45-1.33c-10.24-1.17-42.16-2.4-40.12-18.8.09-.77.41-.89,1-.36a9.72,9.72,0,0,0,8.34,2.72" transform="translate(-764.52 -536)"/><path id="path156" class="cls-9" d="M852.05,977.35a70.87,70.87,0,0,1,35.06,12.4l-.5,5.76a136.45,136.45,0,0,0-51.18-12.1,88.25,88.25,0,0,1,36.42,3.28,2.2,2.2,0,0,0,1.69-.05c.75-.39.73-.72-.07-1l-13.36-4.76a6.08,6.08,0,0,0-2.16-.31,5.86,5.86,0,0,1-5.9-3.22" transform="translate(-764.52 -536)"/><path id="path159" class="cls-2" d="M1405.4,1043.91a17,17,0,0,0-4,13.2.44.44,0,0,1-.4.5l-.58.1q-17.82-11.45-25.92-24.56-4.9-8-12.75-7.86c-.15-3.41,8.76-.86,12.56.06a1.53,1.53,0,0,0,1.71-.76c8.3-15.07,17.06-37.43,38.46-41.71q9.84-2,17.07,2c10.27,5.78,13.71,21.92,2.43,29.5-10.75,7.21-25.1,16.09-28.55,29.48" transform="translate(-764.52 -536)"/><path id="path160" class="cls-5" d="M1204.78,984.37a4,4,0,0,1-1.36-1.48c20.49.9,63.49,1.58,63.63,5a1.18,1.18,0,0,1-.33.89,1.22,1.22,0,0,1-.86.4c-12.82.35-26.51-2-37.94-2.6q-11.61-.63-23.14-2.16" transform="translate(-764.52 -536)"/><path id="path161" class="cls-9" d="M820.55,996.24a6.26,6.26,0,0,1-5.63,2.08.84.84,0,0,1-.64-.45.91.91,0,0,1,0-.82q2.51-4.65,6.61-5.62c20.65-4.88,38.81-3.07,62.41,5.16a1.19,1.19,0,0,1,.72.65,1.23,1.23,0,0,1,0,1l-1.81,4.64a1.41,1.41,0,0,1-1.8.83,144.25,144.25,0,0,0-58-8.35,2.85,2.85,0,0,0-1.94.92" transform="translate(-764.52 -536)"/><path id="path162" class="cls-7" d="M837.82,994.11a3.8,3.8,0,0,1-1.24.25,1,1,0,0,1-.9-.52,1,1,0,0,1,0-1c3.33-5,44.25,3.07,44.9,6.35a.85.85,0,0,1-.25.81.84.84,0,0,1-.82.18,148.05,148.05,0,0,0-39.84-6.38,4.85,4.85,0,0,0-1.88.34" transform="translate(-764.52 -536)"/><path id="path164" class="cls-2" d="M1181.83,1027.24v2.16l-1.75.19a1170.33,1170.33,0,0,1-121.15-14.35c-3.42-.59-28.45-3.35-29.58-.6a1,1,0,0,0,0,.88,1,1,0,0,0,.71.56q45,9.6,90.8,14.68l24.68,5.69c.64.14.69.4.14.78l-.8.56-68.58-7.43a103.5,103.5,0,0,0-34.52-5.84h0l.47.47c.17.17.14.26-.09.28l-2.75.21a41.65,41.65,0,0,0-15.14-.09l4.71-14.6a1.72,1.72,0,0,1,1.59-1.18c4.91,0,10-.28,14.84.36,45.42,5.95,91.24,9.47,136.38,17.27" transform="translate(-764.52 -536)"/><path id="path165" class="cls-8" d="M1180.08,1029.59c1.59,2.36,1.56,4.48-.1,6.34a2.38,2.38,0,0,1-1.24-2.22.78.78,0,0,0-.38-.7.75.75,0,0,0-.79,0l-2.39,1.18a3.13,3.13,0,0,1-2,.27,333.36,333.36,0,0,0-47.1-6c-1.5-.07-3.24.71-5.23,2.32q-45.75-5.1-90.8-14.68a1,1,0,0,1-.71-.56,1,1,0,0,1,0-.88c1.13-2.75,26.16,0,29.58.6a1170.33,1170.33,0,0,0,121.15,14.35" transform="translate(-764.52 -536)"/><path id="path166" class="cls-5" d="M825.58,1119.82l-1.07-.09a440.36,440.36,0,0,0,14.27-57.37c.59-3.31-.86-5.25-4.36-5.84a4.6,4.6,0,0,0-5.15,3l-11.7,32.83a1.27,1.27,0,0,1-2.46-.44,168.67,168.67,0,0,1,5.32-36.94,1.71,1.71,0,0,0-.89-2l-5.09-2.55a1.41,1.41,0,0,0-2,.88c-4,13.83-6,32.56-12.24,45a.72.72,0,0,1-.6.42.76.76,0,0,1-.68-.3c-7.65-9.81-.08-35.48,2.45-46.92a1.41,1.41,0,0,0-.86-1.6c-5.56-2.17-8,.48-9.24,5.8a226.79,226.79,0,0,0-6.21,48.42l-5.86-15.82a39.81,39.81,0,0,1-.59-16.41l2.94-14.65a91,91,0,0,1,21.68-38.67l.18.56c0,.09.07.11.14.05,14.49-11,49.08,11.18,47.81,27.16a1.16,1.16,0,0,1-.69,1,1.21,1.21,0,0,1-1.2-.16c-15.56-12.33-28.45-23.91-49.76-16.08a.71.71,0,0,0-.46.6.72.72,0,0,0,.32.69l1.08.7a3.57,3.57,0,0,0,2.11.58q25.92-.68,40.29,20.72c7.45,11.08-11.79,55.43-17.47,67.41" transform="translate(-764.52 -536)"/><path id="path167" class="cls-4" d="M1457.23,1020.21c-2.5-.29-3.9.46-4.2,2.2a1.29,1.29,0,0,1-1.27,1.08l-8.59.06c-.13-1.43-.9-1.95-2.34-1.56a44.61,44.61,0,0,0-27.71,21.24c-.81,2.37-3.15,7.52-7,15.41-.87,1.79-.24,3.36,1.9,4.75l-.58,1.16a17.36,17.36,0,0,1-7-6.84l.58-.1a.44.44,0,0,0,.4-.5,17,17,0,0,1,4-13.2c16.88-15.75,26.12-26.88,51.83-23.7" transform="translate(-764.52 -536)"/><path id="path168" class="cls-9" d="M1457.23,1020.21a79.43,79.43,0,0,1,25.1,2.83l.59,14.65a99,99,0,0,0-21.8-5,4,4,0,0,1-2.07-.85l-2.9-2.34.18-.85a.64.64,0,0,0-.14-.59.75.75,0,0,0-.58-.2l-2.28.31q-6.93-3.86-13.24-1.29-24.6,10-32.08,36.52c-2.14-1.39-2.77-3-1.9-4.75,3.86-7.89,6.2-13,7-15.41,10.45-8.44,15.52-15.84,30.05-19.68l8.59-.06a1.29,1.29,0,0,0,1.27-1.08c.3-1.74,1.7-2.49,4.2-2.2" transform="translate(-764.52 -536)"/><path id="path169" class="cls-6" d="M1443.17,1023.55c-14.53,3.84-19.6,11.24-30.05,19.68a44.61,44.61,0,0,1,27.71-21.24c1.44-.39,2.21.13,2.34,1.56" transform="translate(-764.52 -536)"/><path id="path170" class="cls-7" d="M1076.34,1030.36q-21.22-.3-29.27-2.09a56.34,56.34,0,0,1-7.62-2.79l2.75-.21c.23,0,.26-.11.09-.28l-.47-.47h0a103.5,103.5,0,0,1,34.52,5.84" transform="translate(-764.52 -536)"/><path id="path171" class="cls-8" d="M1039.45,1025.48a56.34,56.34,0,0,0,7.62,2.79q8,1.77,29.27,2.09l68.58,7.43a15,15,0,0,1,8.49,4.24,2.65,2.65,0,0,0,2,.73,35.59,35.59,0,0,1,20.21,4.48c1.47.81,2.69.69,3.2-1a1.39,1.39,0,0,0-.77-1.68q-9.29-4.14-22.59-4.17a3,3,0,0,1-3.21-2.32.66.66,0,0,1,.12-.62.7.7,0,0,1,.58-.24l24.43,2.54a2.73,2.73,0,0,0,2-.56l1.3-1a52,52,0,0,0,10.7,2.73,780.12,780.12,0,0,0,78.49,4.6,1.14,1.14,0,0,1,1.11,1.29c-.47,2.86-56.11-.8-65.67-1.69s-17-2.08-21.8-3.49a1.7,1.7,0,0,0-1.9.76l-.65,1.06a1,1,0,0,0-.06.92.94.94,0,0,0,.71.56,154.76,154.76,0,0,0,25.85,2.63c8.7.15,16.78,2.53,25.64,2.47q20.33-.16,40.64,0l-1.07,2.44q-34.44.29-68.89-1.29a58.11,58.11,0,0,1-9.91-2.07,22.61,22.61,0,0,0-10.88-.19c-.71.18-.71.3,0,.36,3,.27,4.59,1.52,4.69,3.78l-13.48-1.36c4-6.62-28.69-6.34-34.57-6.26-38.48-5.06-76.93-13.32-115.43-17.18l.09-2.84a41.65,41.65,0,0,1,15.14.09" transform="translate(-764.52 -536)"/><path id="path172" class="cls-7" d="M1453.33,1028.16q-28,9.84-35.94,37.67c-.46,1.53.13,3.33,1.76,5.36l-.7,1.66-11-8.3.58-1.16q7.47-26.51,32.08-36.52,6.3-2.56,13.24,1.29" transform="translate(-764.52 -536)"/><path id="path173" class="cls-8" d="M1181.83,1027.24l90.83,8.59a1.44,1.44,0,0,1,1.31,1.25l.35,3c-.61-1-1.21-1.55-1.8-1.59q-42.75-3.36-85.41-7.66a18.23,18.23,0,0,1-5.28-1.39v-2.16" transform="translate(-764.52 -536)"/><path id="path174" class="cls-8" d="M1456.15,1029.49a50.61,50.61,0,0,1-9.51,5.18c-5.75,2.58-26.53,18.73-22,26.9a2.61,2.61,0,0,1,.22,2l-2.12,7.5a1.3,1.3,0,0,1-1.28.94,4.11,4.11,0,0,1-2.3-.77c-1.63-2-2.22-3.83-1.76-5.36q8-27.84,35.94-37.67l2.28-.31a.75.75,0,0,1,.58.2.64.64,0,0,1,.14.59l-.18.85" transform="translate(-764.52 -536)"/><path id="path175" class="cls-2" d="M1024.22,1028.23c38.5,3.86,77,12.12,115.43,17.18l.21,1a1.45,1.45,0,0,1-.7,1.58l-1.27.7q-57-5.37-113.67-14a2.17,2.17,0,0,1-1.71-1.27c-.9-1.85-.32-3.61,1.71-5.26" transform="translate(-764.52 -536)"/><path id="path176" class="cls-7" d="M1180,1035.93l.69,2.26-1.3,1a2.75,2.75,0,0,1-2,.56l-24.42-2.54a.7.7,0,0,0-.58.24.66.66,0,0,0-.12.62,3,3,0,0,0,3.21,2.32q13.3,0,22.59,4.17a1.39,1.39,0,0,1,.77,1.68c-.51,1.73-1.73,1.85-3.2,1a35.59,35.59,0,0,0-20.21-4.48,2.65,2.65,0,0,1-2-.73,15,15,0,0,0-8.49-4.24l.8-.56c.55-.38.5-.64-.14-.78l-24.68-5.69c2-1.61,3.73-2.39,5.23-2.32a333.36,333.36,0,0,1,47.1,6,3.13,3.13,0,0,0,2-.27l2.39-1.18a.75.75,0,0,1,.79,0,.78.78,0,0,1,.38.7,2.38,2.38,0,0,0,1.24,2.22" transform="translate(-764.52 -536)"/><path id="path177" class="cls-9" d="M1180.08,1029.59l1.75-.19a18.23,18.23,0,0,0,5.28,1.39q42.66,4.29,85.41,7.66c.59,0,1.19.58,1.8,1.59v.59a342.64,342.64,0,0,1-44.3-2.55c-6.18-.73-12.68.48-18.91-.51q-12.87-2-26-3.06c-.82-.08-1,.21-.45.86,4.72,6,78,7.83,89.65,8.18l-.59,6.45q-20.31-.12-40.64,0c-8.86.06-16.94-2.32-25.64-2.47a154.87,154.87,0,0,1-25.85-2.63.94.94,0,0,1-.71-.56,1,1,0,0,1,0-.92l.66-1.06a1.7,1.7,0,0,1,1.9-.76q7.26,2.11,21.8,3.49c9.56.89,65.2,4.55,65.67,1.69a1.14,1.14,0,0,0-1.1-1.29,780.15,780.15,0,0,1-78.5-4.6,52,52,0,0,1-10.7-2.73l-.69-2.26c1.66-1.86,1.69-4,.1-6.34" transform="translate(-764.52 -536)"/><path id="path178" class="cls-7" d="M1456.15,1029.49l2.9,2.34a4,4,0,0,0,2.07.85,99,99,0,0,1,21.8,5l.09,3c-27.08-13.57-53.49,8-56.8,35.32a1.19,1.19,0,0,1-.69,1,1.22,1.22,0,0,1-1.2-.1l-5.87-4.06.7-1.66a4.11,4.11,0,0,0,2.3.77,1.3,1.3,0,0,0,1.28-.94l2.12-7.5a2.61,2.61,0,0,0-.22-2c-4.52-8.17,16.26-24.32,22-26.9a50.61,50.61,0,0,0,9.51-5.18" transform="translate(-764.52 -536)"/><path id="path179" class="cls-8" d="M1274.32,1040.63v2.92c-11.65-.35-84.93-2.22-89.65-8.18-.51-.65-.37-.94.45-.86q13.11,1.08,26,3.06c6.23,1,12.73-.22,18.91.51a342.64,342.64,0,0,0,44.3,2.55" transform="translate(-764.52 -536)"/><path id="path180" class="cls-4" d="M980.14,1054.05l4-2.29a8.45,8.45,0,0,0,1.66-1.24,19.43,19.43,0,0,0,4.39-6.31,1.14,1.14,0,0,1,.7-.64,1.19,1.19,0,0,1,.94.1,91.49,91.49,0,0,0,21.91,9.48,1.72,1.72,0,0,1,1.09.86,1.76,1.76,0,0,1,.11,1.4l-2.07,5.95a2,2,0,0,1-2.22,1.28l-30.1-6q-3.67-.73-.41-2.59" transform="translate(-764.52 -536)"/><path id="path181" class="cls-7" d="M1139.65,1045.41c5.88-.08,38.58-.36,34.57,6.26l-36.33-2.94,1.27-.7a1.45,1.45,0,0,0,.7-1.58l-.21-1" transform="translate(-764.52 -536)"/><path id="path182" class="cls-1" d="M824.51,1119.73q-7,8.25-14.79,2.34a2.79,2.79,0,0,1-1.1-2l-.68-6.65c-.1-.88-.39-1-.89-.24l-4.32,6a1.82,1.82,0,0,1-2.2.61,34.45,34.45,0,0,1-12.42-8.84l-3.05-8.81a226.79,226.79,0,0,1,6.21-48.42c1.29-5.32,3.68-8,9.24-5.8a1.41,1.41,0,0,1,.86,1.6c-2.53,11.44-10.1,37.11-2.45,46.92a.76.76,0,0,0,.68.3.72.72,0,0,0,.6-.42c6.28-12.44,8.21-31.17,12.24-45a1.41,1.41,0,0,1,2-.88l5.09,2.55a1.71,1.71,0,0,1,.89,2,168.67,168.67,0,0,0-5.32,36.94,1.27,1.27,0,0,0,2.46.44l11.7-32.83a4.6,4.6,0,0,1,5.15-3c3.5.59,5,2.53,4.36,5.84a440.36,440.36,0,0,1-14.27,57.37" transform="translate(-764.52 -536)"/><path id="path183" class="cls-9" d="M1272.66,1052.44l-.1,1.67c-1,.08-11.79.37-8.7,3.41a406.94,406.94,0,0,1-76.16-4.49c-.1-2.26-1.66-3.51-4.69-3.78-.74-.06-.74-.18,0-.36a22.61,22.61,0,0,1,10.88.19,58.11,58.11,0,0,0,9.91,2.07q34.45,1.56,68.89,1.29" transform="translate(-764.52 -536)"/><path id="path184" class="cls-5" d="M1478.64,1062.68c-10.24-10.11-25.8-5.91-35,2.93-.56.55-.69.46-.37-.25q6.32-14.16,20.64-16.67c16-2.8,33.3,18.56,42.68,29.58a1.33,1.33,0,0,1-1.52,2.08,83.3,83.3,0,0,1-26.47-17.67" transform="translate(-764.52 -536)"/><path id="path185" class="cls-2" d="M1131.47,1059.65a15.26,15.26,0,0,1-8.63,2.72,1.69,1.69,0,0,0-1.54,1.15c-1.29,4,.06,5.7,4.22,6.31q25.21,3.63,50.46,7.1a56.82,56.82,0,0,1,21.16,7.85,1.51,1.51,0,0,0,1.81-.19c1.9-1.82,3.62-1.87,5.15-.11q-11.71,4.15-10.46,17.08a16.76,16.76,0,0,1-8.52,4.78,3,3,0,0,0-1.81,1.22c-5.81,8.25-22.08,9.8-30.94,8.67-14-1.8-32.6-13.66-47.6-20.22a.84.84,0,0,0-.79,1.47l35.74,23.68a1.9,1.9,0,0,1-.36,3.35l-1.47.58-1.81-1.1c-.68-.42-.94-.24-.75.54l1.3,5.61a35.07,35.07,0,0,1-8.75-5.49c-25.8-22.08-81.86-36.14-114.68-31.71a2,2,0,0,0-1.64,1.42l-2.32,8.44c-.31,1.15,0,1.38,1,.71l.77-.54a3.57,3.57,0,0,1,2.46-.58c6.94.93,13.38-1.18,19.71-.45a214,214,0,0,1,57.38,14.72c6.21,3.32,10.87,4.76,15.65,10.4a184.87,184.87,0,0,0,16.55,17.27,4.46,4.46,0,0,1-4.85.59,2.14,2.14,0,0,0-1.92.14l-3.87,2.3a90.38,90.38,0,0,0-30.5-15c-.84-.23-.92-.06-.25.5l20.2,16.87q-2.22,1.82-4,.12a2.53,2.53,0,0,0-1.94-.68l-5.77.56-1.31-.77a1.71,1.71,0,0,0-2.06.26l-.42.39a1.06,1.06,0,0,0-.33.86,1.09,1.09,0,0,0,.44.81l6.52,4.8,3.56,2.21a2.89,2.89,0,0,1,1.29,1.78,120.6,120.6,0,0,1,2.83,42.73c-1.56,14.34-32.76,4.17-41.31,3.81a134.6,134.6,0,0,0-22.22.92.69.69,0,0,0-.59.64.71.71,0,0,0,.47.72c10.64,3.26,21.47-.91,32.79.94a52.16,52.16,0,0,1,18.33,6.79c-8.11-1.33-20.32-5.45-27.92-3-.78.25-.82.59-.11,1,7.22,4.3,16.73,8.13,26,15.19L1082.3,1248a1.22,1.22,0,0,1-1.38,1,276.44,276.44,0,0,1-30.34-6.31c-12-3.21-21.91-2.78-33.86-3.21-12.61-.47-25.05,3.64-37.6,3a17.57,17.57,0,0,0-8.2,1.24c-.81.36-.78.57.1.61,13,.66,26-1.66,38.55-1.1a237.36,237.36,0,0,0,23.86-.09c2-.12,3.89.84,3.77,2.95a1.41,1.41,0,0,1-1.34,1.34l-1.68.12h-2.35c-4.5.18-15.32-2.31-22.31-.38a4.2,4.2,0,0,1-2.25,0,9,9,0,0,0-7.66,1.5c-3.31-.52-29.63-3.31-31.74.49l-2.15.58c-2.7-8.25-3.26-15,1.5-23,8-13.57,6-32.79,12.56-47.15,4.86-10.6,8.2-17.87,9.8-29.59,2.44-18,3.4-30.21,13.59-42.63,6-7.34,6-26.56,8.75-36.42,2.17.37,6.69,3.35,8.13,1a.84.84,0,0,0-.59-1.26q-2.91-.52-3-3.19l8.81-15.87a2.13,2.13,0,0,1,1.78-1.1c34.76-1.1,69.89,4.83,104.37,9" transform="translate(-764.52 -536)"/><path id="path186" class="cls-8" d="M1272.56,1054.11a1.38,1.38,0,0,1,.59.86,1.17,1.17,0,0,1-.21.86,1.1,1.1,0,0,1-.75.45l-8.33,1.24c-3.09-3,7.74-3.33,8.7-3.41" transform="translate(-764.52 -536)"/><path id="path189" class="cls-2" d="M888.86,1054.79q34,1.11,68-.2A158.75,158.75,0,0,0,999.66,1069c-3.85,2.44-8.46.43-11.8.4q-45.81-.19-91.61.21a.35.35,0,0,0-.35.35v.61a.56.56,0,0,1-.57.56h-1.1l-5.37-16.3" transform="translate(-764.52 -536)"/><path id="path190" class="cls-2" d="M1388.67,1054.59a64.31,64.31,0,0,1,19.44,14.16l-.36.54a1,1,0,0,1-1.12.42c-6.1-1.64-12.62-.35-17.27-.35q-50.1-.12-100.22.07l.61-13.58a139.38,139.38,0,0,1,23.2-1.09q37.86,1.37,75.72-.17" transform="translate(-764.52 -536)"/><path id="path192" class="cls-6" d="M1131.47,1059.65q60.26,7,128.88,8.49a5,5,0,0,1,4.27,2.58.86.86,0,0,1-.54,1.31c-3,.7-6.49,1.64-9.63,1.57a112.34,112.34,0,0,0-50.35,10.88c-1.53-1.76-3.25-1.71-5.15.11a1.51,1.51,0,0,1-1.81.19,56.82,56.82,0,0,0-21.16-7.85q-25.24-3.48-50.46-7.1c-4.16-.61-5.51-2.35-4.22-6.31a1.69,1.69,0,0,1,1.54-1.15,15.26,15.26,0,0,0,8.63-2.72" transform="translate(-764.52 -536)"/><path id="path194" class="cls-4" d="M1016.51,1067.58q0,2.67,3,3.19a.84.84,0,0,1,.59,1.26c-1.44,2.32-6-.66-8.13-1l.28-1.83a1.53,1.53,0,0,1,1.33-1.29l3-.3" transform="translate(-764.52 -536)"/><path id="path199" class="cls-4" d="M1294.83,1140.54a20.1,20.1,0,0,1-1.76-5q-3.09-24.36-26.88-29.16a416.15,416.15,0,0,0-49.86-7q25.35-10.37,44.72-16.52a12.46,12.46,0,0,1,11.63,1.7c12.26,8.33,26.9,14.89,24.52,32.77q-1.79,13.41-2.37,23.18" transform="translate(-764.52 -536)"/><path id="path200" class="cls-5" d="M1514.55,1159.57l-8,1.17c1.25-11.46,10.54-26.22,3.84-38.55a4,4,0,0,0-1.63-1.58c-17.29-8.55-35-18.58-54.21-22a1,1,0,0,1,0-2c4.42-.73,12.9-.5,16.64-2.7,3.39-2,5.12-7.29,8.66-10.24a1.68,1.68,0,0,1,1.92-.19l37.24,20.9a7.38,7.38,0,0,1,3.17,3.54c7.92,18.59-2.81,33.85-7.65,51.59" transform="translate(-764.52 -536)"/><path id="path204" class="cls-6" d="M1136.63,1130.14c2.85,4.16,14,16.61,12.34,21.41a2.68,2.68,0,0,1-4.47,1,155.16,155.16,0,0,0-54-35.9,214,214,0,0,0-57.38-14.72c-6.33-.73-12.77,1.38-19.71.45a3.57,3.57,0,0,0-2.46.58l-.77.54c-1,.67-1.3.44-1-.71l2.32-8.44a2,2,0,0,1,1.64-1.42c32.82-4.43,88.88,9.63,114.68,31.71a35.07,35.07,0,0,0,8.75,5.49" transform="translate(-764.52 -536)"/><path id="path205" class="cls-6" d="M1193.65,1101.56l22.68-2.15a416.15,416.15,0,0,1,49.86,7q23.79,4.8,26.88,29.16a20.1,20.1,0,0,0,1.76,5,155,155,0,0,0-74,13.94,273.45,273.45,0,0,0-43.82,25.2,1,1,0,0,1-1.19,0,1,1,0,0,1-.38-1.12c1.29-4.48,2.32-8.63,6.16-11.75,11.46-9.3,24.09-15.09,36.23-22.42a1.24,1.24,0,0,0,.45-1.69q-2.37-4.11-6.51-2.35-16.69,7-32.63,14.84a.87.87,0,0,1-1.22-1,64.35,64.35,0,0,1,10.69-22.38c.44-.6.36-.67-.24-.24q-27.86,20.1-50.48-6.49l1.47-.58a1.9,1.9,0,0,0,.36-3.35L1104,1097.48a.84.84,0,0,1,.79-1.47c15,6.56,33.56,18.42,47.6,20.22,8.86,1.13,25.13-.42,30.94-8.67a3,3,0,0,1,1.81-1.22,16.83,16.83,0,0,0,8.53-4.78" transform="translate(-764.52 -536)"/><path id="path206" class="cls-1" d="M1022.27,1106.79a2.39,2.39,0,0,1,.54,4.22q-5.55,3.88-13.24,2.06a1.53,1.53,0,0,1-1.15-1.43l0-2.86a1.7,1.7,0,0,1,1-1.61,15.92,15.92,0,0,1,12.86-.38" transform="translate(-764.52 -536)"/><path id="path207" class="cls-5" d="M1021.38,1109.32c0-.53-1.09-.9-2.39-.84s-2.32.54-2.29,1.07,1.09.91,2.39.85,2.32-.55,2.29-1.08" transform="translate(-764.52 -536)"/><path id="path208" class="cls-3" d="M1012.36,1110.49a3.69,3.69,0,0,1-1.85-.19c-1-.35-1-.7,0-1a4.07,4.07,0,0,1,3.42.19.58.58,0,0,1,.3.51.63.63,0,0,1-.27.52q-1.11.71-1.62,0" transform="translate(-764.52 -536)"/><path id="path212" class="cls-4" d="M1212.38,1124.57l29.41-4.61a.63.63,0,0,1,.72.53l.06.37a.63.63,0,0,1-.53.73l-29.4,4.6a.63.63,0,0,1-.73-.53l-.06-.37a.64.64,0,0,1,.53-.72" transform="translate(-764.52 -536)"/><path id="path218" class="cls-6" d="M1122.75,1144.33a54.36,54.36,0,0,1,13.57,14.42,1.92,1.92,0,0,1-.18,2.28,1.89,1.89,0,0,1-2.21.49,84.53,84.53,0,0,1-21.82-14.16l3.87-2.3a2.14,2.14,0,0,1,1.92-.14,4.46,4.46,0,0,0,4.85-.59" transform="translate(-764.52 -536)"/><path id="path219" class="cls-7" d="M1302.45,1144.92c1.61,3.75,7.87,8.63,5.36,13l-8.41-12.21,3-.78" transform="translate(-764.52 -536)"/><path id="path220" class="cls-3" d="M1089.84,1149.7l2.84,6.35-6.52-4.8a1.09,1.09,0,0,1-.44-.81,1.06,1.06,0,0,1,.33-.86l.42-.39a1.71,1.71,0,0,1,2.06-.26l1.31.77" transform="translate(-764.52 -536)"/><path id="path221" class="cls-6" d="M1101.56,1149.7q18.66,12.08,29.7,28.2c9.72,14.2,4.88,33.42-2.07,49.59a1.5,1.5,0,0,1-1.61.92,127.72,127.72,0,0,1-39.75-11.82,52.16,52.16,0,0,0-18.33-6.79c-11.32-1.85-22.15,2.32-32.79-.94a.71.71,0,0,1-.47-.72.7.7,0,0,1,.59-.64,134.65,134.65,0,0,1,22.22-.92c8.55.36,39.75,10.53,41.31-3.81a120.6,120.6,0,0,0-2.83-42.73,2.93,2.93,0,0,0-1.29-1.79l-3.56-2.2-2.84-6.35,5.77-.56a2.53,2.53,0,0,1,1.94.68q1.79,1.7,4-.12" transform="translate(-764.52 -536)"/><path id="path222" class="cls-6" d="M1235.74,1221a16.91,16.91,0,0,1-9,1.55,1.2,1.2,0,0,1-1.08-1.32c1.39-12,31.62-19,41.25-23.65a1.82,1.82,0,0,0,1-1.68c-.34-17-25.18-31.83-39.82-35.25a110.6,110.6,0,0,1,62.67-9.26c10.34,1.47,14,7.06,17.25,17q5.92,18.46,13.4,36.26a.78.78,0,0,1-.07.74.82.82,0,0,1-.65.36q-11.06.13-21.68,0c-9.75-.09-60.5,4.41-63.31,15.19" transform="translate(-764.52 -536)"/><path id="path223" class="cls-2" d="M1228.13,1160.65c14.64,3.42,39.48,18.23,39.82,35.25a1.82,1.82,0,0,1-1,1.68c-9.63,4.69-39.86,11.63-41.25,23.65a1.2,1.2,0,0,0,1.08,1.32,16.91,16.91,0,0,0,9-1.55l39.26-3.33q4.85.09,5.81,4.34c2.11,9,3.92,16.26-6.47,20.74q-19.33,8.37-38.46,17.18c-12.93,5.93-25.27,9.77-38.46,13.71-4,1.19-6.26,3.47-9.35,6a1.9,1.9,0,0,1-1.9.3,1.92,1.92,0,0,1-1.22-1.5l-11.78-81c-5.47-10.17,47.83-34.19,55-36.84" transform="translate(-764.52 -536)"/><path id="path224" class="cls-6" d="M1173.17,1197.49l11.78,81a1.92,1.92,0,0,0,1.22,1.5,1.9,1.9,0,0,0,1.9-.3c3.09-2.58,5.35-4.86,9.35-6,13.19-3.94,25.53-7.78,38.46-13.71q19.14-8.82,38.46-17.18c10.39-4.48,8.58-11.7,6.47-20.74q-1-4.24-5.81-4.34c14.34-.26,30.4-2.6,44.51-.68,9.44,1.31,9.86,26.51,8.79,33a4.89,4.89,0,0,1-4,4c-6.16,1-12.51,2.3-18.94,2.4a283.61,283.61,0,0,0-115,26.19,74.38,74.38,0,0,0-9.61,5.19,2.89,2.89,0,0,1-4.3-1.34q-11.23-28.32-22.2-54.12-4.53-10.6-3.42-18.32a2.64,2.64,0,0,1,1.12-1.81l21.22-14.72" transform="translate(-764.52 -536)"/><path id="path225" class="cls-1" d="M992.08,1217.51a1.9,1.9,0,0,1-.61-1.71c.76-4.72,56.47,3,61.83,8.06a1.71,1.71,0,0,1-1.4,2.93q-27.69-3.58-55.22-6.87a9.06,9.06,0,0,1-4.6-2.41" transform="translate(-764.52 -536)"/><path id="path227" class="cls-6" d="M1200.45,1225.06a2.79,2.79,0,0,1-2,0,1.44,1.44,0,0,1-.85-.81,1.51,1.51,0,0,1,0-1.18l1.57-3.71a1.77,1.77,0,0,1,2.09-1c4.31,1.26,3.8,7.71.35,6.66a1.94,1.94,0,0,0-1.19,0" transform="translate(-764.52 -536)"/><path id="path229" class="cls-6" d="M1085.77,1229.75q13.88,5.16,27.48,10.07c6.5,2.35,10.72,4.17,10.6,12.07-.16,9.54-4.83,29.48-18.8,24.35a283.31,283.31,0,0,1-35.78-16c-12.12-6.47-22.57-9.56-35.09-12.63l1.68-.12a1.41,1.41,0,0,0,1.34-1.34c.12-2.11-1.8-3.07-3.77-2.95a237.36,237.36,0,0,1-23.86.09c-12.59-.56-25.55,1.76-38.55,1.1-.88,0-.91-.25-.1-.61a17.61,17.61,0,0,1,8.21-1.24c12.54.64,25-3.47,37.59-3,12,.43,21.89,0,33.86,3.21a276.44,276.44,0,0,0,30.34,6.31,1.22,1.22,0,0,0,1.38-1l3.47-18.27" transform="translate(-764.52 -536)"/><path id="path231" class="cls-6" d="M1213.57,1253.29c1.07-.11,1.73-2.13,1.47-4.49s-1.34-4.2-2.41-4.08-1.72,2.13-1.46,4.5,1.34,4.19,2.4,4.07" transform="translate(-764.52 -536)"/><path id="path236" class="cls-7" d="M1031.83,1247.56q-.37,2.57,3.34,1.59c-1.84,4-10,2.39-13.9,2.49a.55.55,0,0,0-.57.53l0,.89a.86.86,0,0,0,.84.89c4.61.12,3.35,4.36,2.14,6.89-6.38-1.14-36.78-9.93-40.41-8.29a.69.69,0,0,0-.42.72.77.77,0,0,0,.55.66q21,5.14,39.83,11.34c3.75,1.22,8.2,4.53,13.64,4.1a2,2,0,0,1,1.71.82,3.46,3.46,0,0,0,1.62,1.25q25.46,10.26,50,22.69a4.4,4.4,0,0,0,2.18.44q6.93-.52,8.67,6.71-44.19-20.71-90.19-36.92a144.44,144.44,0,0,0-25.24-6.44,9,9,0,0,0-9.38.77l-11.72,1.76-.79-.4a1.06,1.06,0,0,1-.52-1.29l.63-1.93,2-7,2.15-.58a1.76,1.76,0,0,0-.07,2,1.59,1.59,0,0,0,1.84.6,44.21,44.21,0,0,1,28.82-.51,1.31,1.31,0,0,0,1.62-.73,1.56,1.56,0,0,0-.47-1.89,9,9,0,0,1,7.66-1.5,4.2,4.2,0,0,0,2.25,0c7-1.93,17.81.56,22.31.38" transform="translate(-764.52 -536)"/><path id="path237" class="cls-8" d="M999.61,1248.73a1.57,1.57,0,0,1,.47,1.9,1.32,1.32,0,0,1-1.62.72,44.21,44.21,0,0,0-28.82.51,1.59,1.59,0,0,1-1.84-.6,1.76,1.76,0,0,1,.07-2c2.11-3.8,28.43-1,31.74-.49" transform="translate(-764.52 -536)"/><path id="path239" class="cls-8" d="M1035.17,1249.15c7.56,4.08,80.27,45.1,71.9,53.74a1.77,1.77,0,0,1-2,.35l-1.76-.79c3.77-9.31-31.5-28.34-39-31.58,0,0-.07,0-.09.05l-.21.68a.64.64,0,0,1-.29.37.67.67,0,0,1-.48.06l-39.63-11.19c1.21-2.53,2.47-6.77-2.14-6.89a.86.86,0,0,1-.84-.89l0-.89a.55.55,0,0,1,.57-.53c4-.1,12.06,1.47,13.9-2.49" transform="translate(-764.52 -536)"/><path id="path240" class="cls-9" d="M1023.64,1260.84l39.63,11.18a.62.62,0,0,0,.48,0,.64.64,0,0,0,.29-.37l.21-.68c0-.06,0-.08.09-.05,7.48,3.24,42.75,22.27,39,31.58l-2.34-1.17q-1.74-7.23-8.68-6.71a4.39,4.39,0,0,1-2.17-.44q-24.53-12.44-50-22.69a3.46,3.46,0,0,1-1.62-1.25,2,2,0,0,0-1.71-.82c-5.44.43-9.89-2.88-13.64-4.1q-18.8-6.18-39.83-11.34a.77.77,0,0,1-.55-.66.69.69,0,0,1,.42-.72c3.63-1.64,34,7.15,40.41,8.29" transform="translate(-764.52 -536)"/><path id="path241" class="cls-9" d="M962.79,1256.83h1l-.63,1.93a1.06,1.06,0,0,0,.52,1.29l.79.4.59,2.15q-8.09,5.18-6.89,14.82l-4.83,1,9.47-21.59" transform="translate(-764.52 -536)"/><path id="path242" class="cls-9" d="M985.55,1257.92a22.08,22.08,0,0,1-9.38.77,9,9,0,0,1,9.38-.77" transform="translate(-764.52 -536)"/><path id="path243" class="cls-8" d="M965,1262.6l3.51.19-3.72.85a1.78,1.78,0,0,0-1.34,1.35,2.56,2.56,0,0,0,1,2.3l-.61.35a.84.84,0,0,0-.35,1,6,6,0,0,0,3.31,3.35q-6.37-.45-7,5.27l-1.62.17q-1.2-9.64,6.89-14.82" transform="translate(-764.52 -536)"/><path id="path244" class="cls-12" d="M968.55,1262.79c29.86.44,45.43,19.74,67.13,36.56q9.25,7.17,18.51,14.32c-.79,2.89-2.78,4.29-6,4.2a439.81,439.81,0,0,1-39.87-31.76c-7.33-6.56-25-19.53-35-18.7a.8.8,0,0,0-.67.43.81.81,0,0,0,0,.81,4.09,4.09,0,0,0,1.74,1.57l-1.27,1.26-8.7-4.19a2.56,2.56,0,0,1-1-2.3,1.78,1.78,0,0,1,1.34-1.35l3.72-.85" transform="translate(-764.52 -536)"/><path id="path245" class="cls-9" d="M964.45,1267.29l8.7,4.19c7.62,4.79,15.24,8.93,22,15.1q17,15.59,34.85,30.09c4.36,3.54,7.27,10.15,14.53,11.91a.87.87,0,0,0,.59-1.62,26.13,26.13,0,0,1-9-7.55q-.75-1,.39-.51c1,.44,10.2,5.81,11.56,4.64a1.05,1.05,0,0,0,.36-.83,1,1,0,0,0-.43-.79c-23.41-17.41-40.69-37.55-64.66-49.75-2.88-1.48-5.65-.85-8.88-2a4.09,4.09,0,0,1-1.74-1.57.81.81,0,0,1,0-.81.8.8,0,0,1,.67-.43c10.06-.83,27.71,12.14,35,18.7a439.81,439.81,0,0,0,39.87,31.76,85.48,85.48,0,0,0,46.43,18.82l-6,11a82.1,82.1,0,0,1-36.63-8.94c-5.9-3-17.32-10-18.56-16a3.24,3.24,0,0,0-1.15-1.85L1012,1304.89A176,176,0,0,0,966.8,1272a6,6,0,0,1-3.31-3.35.84.84,0,0,1,.35-1l.61-.35" transform="translate(-764.52 -536)"/><path id="path246" class="cls-12" d="M1290.92,1269.73,1292,1272l-.68.68c-26.48,5.81-51.18,7.5-77.76,20-7.69,3.63-18.28,5.74-26,14H1186c-.3-4.22,1.49-7.48,5.34-9.8a187.92,187.92,0,0,1,99.55-27.11" transform="translate(-764.52 -536)"/><path id="path247" class="cls-8" d="M1290.92,1269.73c9.69-.4,32.34-.52,40.61,4.59A3.43,3.43,0,0,1,1333,1276a39.55,39.55,0,0,1,2.31,19.48q-16.14-10.14-35.1-5.11a.52.52,0,0,0,.16,1c8.56-.43,29.56-.89,34,8.79l-1.27,1.85-4.1-.59A63.94,63.94,0,0,1,1309,1299q-6.18-1.76-28.54,0l-10.71-.66.58-1.56c6.14-1.09,18.92-.29,20.61-7.72,12.63-2.9,30.51-4.48,42.48,1.48,1.15.57,1.61.23,1.41-1a16,16,0,0,0-2.13-5.81,4.59,4.59,0,0,1-.63-2.16c-.28-8.3-33.38-9.09-40.06-9.56l-1.07-2.25" transform="translate(-764.52 -536)"/><path id="path248" class="cls-7" d="M974.42,1270.22c3.23,1.1,6,.47,8.88,2,24,12.2,41.25,32.34,64.66,49.75a1,1,0,0,1,.43.79,1.05,1.05,0,0,1-.36.83c-1.36,1.17-10.52-4.2-11.56-4.64q-1.14-.5-.39.51a26.13,26.13,0,0,0,9,7.55.87.87,0,0,1-.59,1.62c-7.26-1.76-10.17-8.37-14.53-11.91q-17.87-14.51-34.85-30.09c-6.72-6.17-14.34-10.31-22-15.1l1.27-1.26" transform="translate(-764.52 -536)"/><path id="path250" class="cls-12" d="M966.8,1272a176,176,0,0,1,45.21,32.91c-3.47,7,14.36,19,20.85,23.53a1.89,1.89,0,0,1,.81,1.91,1.59,1.59,0,0,1-.66,1c-26.91-16.7-42.42-41.81-73.24-54.09q.65-5.71,7-5.27" transform="translate(-764.52 -536)"/><path id="path251" class="cls-9" d="M1292,1272c6.68.47,39.78,1.26,40.06,9.56a4.59,4.59,0,0,0,.63,2.16,16,16,0,0,1,2.13,5.81c.2,1.26-.26,1.6-1.41,1-12-6-29.85-4.38-42.48-1.48l-1.86-1.26.59-3.91c1.5-1,1.66-2.24.49-3.62a6.23,6.23,0,0,0,1.17-7.61l.68-.68" transform="translate(-764.52 -536)"/><path id="path252" class="cls-8" d="M1291.31,1272.66a6.23,6.23,0,0,1-1.17,7.61l-22.81,3.73a.32.32,0,0,1-.35-.21l-.21-.71a.86.86,0,0,1,.1-.73.91.91,0,0,1,.63-.39c2.11-.23,19.85-2.48,19.87-4.33a.7.7,0,0,0-.23-.53.77.77,0,0,0-.56-.18q-33.58,3.46-53.32,10.83a115.42,115.42,0,0,1-13.1,4.24,3.2,3.2,0,0,0-1.86,1.2,4.93,4.93,0,0,1-2.36,1.85,102,102,0,0,0-25.86,12.82c-1.4,1-2.38.42-2.48-1.22,7.67-8.25,18.26-10.36,26-14,26.58-12.49,51.28-14.18,77.76-20" transform="translate(-764.52 -536)"/><path id="path253" class="cls-8" d="M1309.33,1279.33a34.35,34.35,0,0,1-7.21-.53.9.9,0,0,1-.75-.89v-.71a1.06,1.06,0,0,1,1-1.07c2.71-.1,24.73,1.26,26.53,5.34.39.9.11,1.24-.85,1-6-1.45-12.51-3.33-18.75-3.15" transform="translate(-764.52 -536)"/><path id="path254" class="cls-7" d="M1290.14,1280.27c1.17,1.38,1,2.58-.49,3.62-32.35,2.9-77.37,10.58-99.7,36.22l-.64.08a.64.64,0,0,1-.7-.52l-2.58-13h1.57c.1,1.64,1.08,2.18,2.48,1.22a102,102,0,0,1,25.86-12.82,4.93,4.93,0,0,0,2.36-1.85,3.2,3.2,0,0,1,1.86-1.2,115.42,115.42,0,0,0,13.1-4.24q19.73-7.37,53.32-10.83a.77.77,0,0,1,.56.18.7.7,0,0,1,.23.53c0,1.85-17.76,4.1-19.87,4.33a.91.91,0,0,0-.63.39.86.86,0,0,0-.1.73l.21.71a.32.32,0,0,0,.35.21l22.81-3.73" transform="translate(-764.52 -536)"/><path id="path255" class="cls-2" d="M953.32,1282.13c11.35-1.22,38,22.35,43.57,29,12,14.3,20.09,23.21,36.07,32,7.74,4.3,21.12,9.68,25.92,18.55l-8.69-5.39a7.23,7.23,0,0,0-2-.89c-20.76-5.25-34.81-14.25-59.25-14q-.92,8,7.87,11.53l-.16,1.86a1.28,1.28,0,0,1-2,.93c-10.19-7-20.9-7.85-29.41-17.45a2.77,2.77,0,0,0-2-1,4,4,0,0,0-2.79,1l-25.87-39.35c7.36-2.93,17.07-8.29,18.75-16.8" transform="translate(-764.52 -536)"/><path id="path256" class="cls-8" d="M1289.65,1283.89l-.59,3.91c-33.42,1.12-74.31,9.68-97.76,34.66l-1.35-2.35c22.33-25.64,67.35-33.32,99.7-36.22" transform="translate(-764.52 -536)"/><path id="path257" class="cls-12" d="M1289.06,1287.8l1.86,1.26c-1.69,7.43-14.47,6.63-20.61,7.72-31.59,3.91-59.67,10.58-79.85,37.54a.66.66,0,0,1-1.17-.32,20,20,0,0,1,2-11.54c23.45-25,64.34-33.54,97.76-34.66" transform="translate(-764.52 -536)"/><path id="path258" class="cls-9" d="M1335.27,1295.51l-1,4.69c-4.39-9.68-25.39-9.22-34-8.79a.52.52,0,0,1-.16-1q19-5,35.1,5.11" transform="translate(-764.52 -536)"/><path id="path259" class="cls-6" d="M1328.91,1301.46l3.42,8.11c3.51,18.8,14.11,43.46,5.74,60.32a1.2,1.2,0,0,1-1.59.56,141.82,141.82,0,0,0-45.68-12.84,553.68,553.68,0,0,0-90.8-2.92,6.69,6.69,0,0,1-4.1-1.66,2,2,0,0,0,1.59-.78.26.26,0,0,0,0-.37l-.47-.45c-.41-.39-.33-.59.23-.59q45.74-.58,91.38-3.56c11.45-.75,5.75-18.49,1.76-22.89-10.59-11.7-39-6-52.31-1.46a1.59,1.59,0,0,1-1.71-2.53c9.68-11.42,30-18,44.09-21.4q22.35-1.74,28.54,0a63.94,63.94,0,0,0,19.93,2.44" transform="translate(-764.52 -536)"/><path id="path260" class="cls-2" d="M1269.73,1298.34l10.71.66c-14.11,3.45-34.41,10-44.09,21.4a1.59,1.59,0,0,0,1.71,2.53c13.34-4.57,41.72-10.24,52.31,1.46,4,4.4,9.69,22.14-1.76,22.89q-45.64,3-91.38,3.56c-.56,0-.64.2-.23.59l.47.45a.26.26,0,0,1,0,.37,2,2,0,0,1-1.59.78,14.74,14.74,0,0,1-5.18-11,2.28,2.28,0,0,1,.94-1.9q17.55-13,34.38-26.72c12.66-10.36,24.66-12.82,43.69-15.05" transform="translate(-764.52 -536)"/><path id="path261" class="cls-1" d="M934.57,1298.93l25.87,39.35c20.19,27,44.35,39.17,75.4,51.56l1.27,1.27-12.5,13.85a3.46,3.46,0,0,0-.86,2.07c-1.36,22.68-27.17,23-42.61,25.86-7.29,1.36-9.66,4.18-14.28,9.18-5.43,5.85-15.34,9-22.87,11.1a3.76,3.76,0,0,1-2.25,0,37.92,37.92,0,0,0-24.54.37c-7.73,2.72-4.48,9.45-9.79,14.35a81.49,81.49,0,0,0-14,17,4.07,4.07,0,0,0-.58,2.16,47.34,47.34,0,0,1-4,20,20.58,20.58,0,0,0-8.1,8.7q-10.77,22.44-.73,45.35c.67,1.55.36,3.64-.94,6.31l-1.36,4.09c-4.64,22.08-13.45,40.32-39.59,30.07-30.72-12-50.29-37.1-46.91-71.1,1.38-13.93,5.19-29.53,4.21-43.28a139.94,139.94,0,0,0-6.24-32.38.67.67,0,0,0-.49-.46.71.71,0,0,0-.65.2l-4.57,5-7.85,8.16a3.39,3.39,0,0,1-4.66.2q-12.25-10.56-1-20.08l-4.26,8.67a2.71,2.71,0,0,0-.1,2.16,15,15,0,0,0,6.61,7.4,1.56,1.56,0,0,0,2-.3l13.12-14.7a2.77,2.77,0,0,0,.73-2c-.22-3.88-.29-8.08-1.41-11.88a220,220,0,0,1-8-40.78,60.67,60.67,0,0,1,10.06-21.18l.68.68c-6.14,7.94-8.25,15.76-5.74,26,2.67,11,13.08,44.23,25.1,47a2.56,2.56,0,0,1,1.73,1.26c7.83,14.1,13.55,37.18,35.63,40.06.79.1,1-.18.59-.87-3-4.89-7.3-8.81-9.59-13.89-6.44-14.42-13.64-33.74-24.35-45.38a.78.78,0,0,0-1-.08.79.79,0,0,0-.28.95,45.16,45.16,0,0,1,4.95,22.16c0,.84-.31.93-.82.31a24.65,24.65,0,0,1-5.77-15.16.87.87,0,0,0-.72-.79.83.83,0,0,0-.92.51l-2.15,5.41a1.4,1.4,0,0,1-1.67.84q-2.55-.64-1.68-3.29,3.49-10.65,3.45-17.9a1,1,0,0,1,.32-.76,1,1,0,0,1,.77-.29c5.37.24,9.4-5.91,11.86-9.28a1.34,1.34,0,0,0,0-1.61,94.76,94.76,0,0,1-11.58-18.24,3.25,3.25,0,0,1-.19-2.39l2.93-9.52a.38.38,0,0,1,.16-.19l.61-.2c.71-.24.93,0,.66.67l-2.39,6.45a3.31,3.31,0,0,0,0,2.36,63.71,63.71,0,0,0,12.91,20.82,1,1,0,0,0,1.24.22,1,1,0,0,0,.52-1.12,129.77,129.77,0,0,0-9.7-28.46c-.41-.87-.16-1.14.75-.83,2.44.83,11.25,23,12.91,26.71,3.76,8.49-3.25,12.53-8.55,17.46a1.69,1.69,0,0,0-.38,1.91c9.66,21.4,27.66,50.72,51.66,57.59a.89.89,0,0,0,.75-1.59,46.91,46.91,0,0,1-13.29-13.23c-.41-.58-.26-.78.45-.58,6.18,1.76,11.81-7.5,14-11.66a1.69,1.69,0,0,0-.26-1.93,116,116,0,0,0-10.8-9.85c-21-17.42-33.85-55.4-38.77-81.32a7.37,7.37,0,0,0-1.69-3.52l-.16-.78c8.15-1,15.33,0,22.42-4.85,29.75-20.41,56.68-44.06,91.32-56" transform="translate(-764.52 -536)"/><path id="path262" class="cls-5" d="M1328.91,1301.46l4.1.59-.68,7.52Z" transform="translate(-764.52 -536)"/><path id="path263" class="cls-2" d="M955.75,1351.17q-6.15,5.38-1.07,11.27a1,1,0,0,1,.07,1.11l-.35.52a15.73,15.73,0,0,0-11.65-4.43,1.57,1.57,0,0,0-1.36.84,1.59,1.59,0,0,0,0,1.59l4.28,7.17-9.91-2.35a4.09,4.09,0,0,1-2-1.06c-1.34-1.3-9.33-9-10.55-8.82-.95.12-1.12.56-.51,1.31,4.45,5.48,8.44,9.47,12.07,16.24a38.82,38.82,0,0,0,10.28,12.27l9.47,8.88c-1.4,3.9-19.42-8.42-22-10.07-6.1-3.93-9.69-10-15.15-15.08a2,2,0,0,0-2-.43,2.64,2.64,0,0,0-1.48,1.55,222.4,222.4,0,0,1-25.67-40.6q-2.38-4.87-5-.16c-7.95,14.09,44.36,69,56.08,88.23l-.24,1.65a.56.56,0,0,1-.44.48.58.58,0,0,1-.59-.21,378.45,378.45,0,0,0-28.87-35.78,8.84,8.84,0,0,0-9.91-2.65,2.17,2.17,0,0,1-2-.32,15.72,15.72,0,0,0-12.53-2.93l-4.29-4.46c-.69-.72-.84-.62-.45.28,3.45,7.84,6,14.91,11.74,21.58q6.83,7.89,13.55,16.16a11.91,11.91,0,0,1-9.54-5.43q-1.46-2.1-1.45.47v5.76a.58.58,0,0,1-.16.4l-.54.56a1.11,1.11,0,0,1-1.41.14c-22.76-15.52-40.27-23.32-49.74-50.78-.07-2.87.73-5.72,3.29-7.48q17.15-11.92,33.77-24.5c11.88-9,36.44-27.11,49.57-27.65a1.62,1.62,0,0,1,1.59,1,224.58,224.58,0,0,0,25,45.7" transform="translate(-764.52 -536)"/><path id="path264" class="cls-7" d="M1012,1304.89l20.32,15.93a3.18,3.18,0,0,1,1.14,1.85c1.25,6,12.67,13.06,18.57,16a82.1,82.1,0,0,0,36.63,8.94c-1.22,3.63-4.52,4.51-8.15,3.46a232.67,232.67,0,0,1-47.51-19.77,1.59,1.59,0,0,0,.66-1,1.89,1.89,0,0,0-.81-1.91c-6.49-4.56-24.32-16.48-20.85-23.53" transform="translate(-764.52 -536)"/><path id="path265" class="cls-3" d="M1198,1330.31q12.52-14.05,27.3-20.81a.54.54,0,0,1,.68.24.48.48,0,0,1-.21.65c-10,5.93-17.7,15.52-26.81,21q-4.26,2.58-1-1.13" transform="translate(-764.52 -536)"/><path id="path266" class="cls-8" d="M1054.19,1313.67a188.69,188.69,0,0,0,38.86,18.44c2.09.71,4.18,2.82,1.62,4.58a85.48,85.48,0,0,1-46.43-18.82c3.17.09,5.16-1.31,6-4.2" transform="translate(-764.52 -536)"/><path id="path267" class="cls-6" d="M996.77,1352.93c13.92,8.23,37.9,20.58,39.07,36.91-31-12.39-55.21-24.53-75.4-51.56a4,4,0,0,1,2.79-1,2.77,2.77,0,0,1,2,1c8.51,9.6,19.22,10.49,29.41,17.45a1.28,1.28,0,0,0,2-.93l.16-1.86" transform="translate(-764.52 -536)"/><path id="path268" class="cls-4" d="M1058.88,1361.72a5.42,5.42,0,0,1-.93,6.43,2.86,2.86,0,0,1-2,.93q-10.29.47-23-5.56-21.72-10.26-44-22.12c24.44-.21,38.49,8.79,59.25,14a7.23,7.23,0,0,1,2,.89l8.69,5.39" transform="translate(-764.52 -536)"/><path id="path271" class="cls-4" d="M955.75,1351.17c19.77,15.38,41.68,27.9,61.08,43.27a2.08,2.08,0,0,1-.6,3.61c-16.62,5.83-50.63-22.84-61.83-34l.35-.52a.93.93,0,0,0-.07-1.1q-5.08-5.9,1.07-11.28" transform="translate(-764.52 -536)"/><path id="path272" class="cls-5" d="M1324.8,1354.79l-1.16,1-7-2.13q-1.91-.57.09-.6a17.09,17.09,0,0,1,8.08,1.76" transform="translate(-764.52 -536)"/><path id="path274" class="cls-3" d="M1324.8,1354.79l8.28,2.85a1.7,1.7,0,0,1,1.11,1.57v.63a1,1,0,0,1-.48.85,1,1,0,0,1-1,0l-9.11-5,1.16-1" transform="translate(-764.52 -536)"/><path id="path276" class="cls-6" d="M945.7,1369.24l15.91,14.16a5.86,5.86,0,0,1-2.78,3.89,2.31,2.31,0,0,0-1.08,1.5l-.89,4.21c-.41,1.92-1.26,2.13-2.56.67l-6.56-7.4a1.53,1.53,0,0,0-1.94-.32,1.47,1.47,0,0,0-.69.88,38.82,38.82,0,0,1-10.28-12.27c-3.63-6.77-7.62-10.76-12.07-16.24-.61-.75-.44-1.19.51-1.31,1.22-.17,9.21,7.52,10.55,8.82a4.3,4.3,0,0,0,2,1.08l9.91,2.33" transform="translate(-764.52 -536)"/><path id="path277" class="cls-3" d="M820.83,1359.77l.16.78c-10.71,4.5-22.64,7.72-31.64,15.24l-.68-.68a99.9,99.9,0,0,1,32.16-15.34" transform="translate(-764.52 -536)"/><path id="path278" class="cls-5" d="M821,1360.55a7.37,7.37,0,0,1,1.69,3.52c4.92,25.92,17.77,63.9,38.77,81.32a116,116,0,0,1,10.8,9.85,1.69,1.69,0,0,1,.26,1.93c-2.18,4.16-7.81,13.42-14,11.66-.71-.2-.86,0-.45.58a46.91,46.91,0,0,0,13.29,13.23.89.89,0,0,1-.75,1.59c-24-6.87-42-36.19-51.66-57.59a1.66,1.66,0,0,1,.38-1.89c5.3-5,12.31-9,8.55-17.48-1.66-3.76-10.47-25.88-12.91-26.71-.91-.31-1.16,0-.75.83a129.77,129.77,0,0,1,9.7,28.46,1,1,0,0,1-.52,1.12,1,1,0,0,1-1.24-.22,63.71,63.71,0,0,1-12.91-20.82,3.31,3.31,0,0,1,0-2.36l2.39-6.45c.27-.68.05-.91-.66-.67l-.61.2a.38.38,0,0,0-.16.19l-2.93,9.52a3.25,3.25,0,0,0,.19,2.39A94.76,94.76,0,0,0,819.05,1411a1.34,1.34,0,0,1,0,1.61c-2.46,3.37-6.49,9.52-11.86,9.28a1,1,0,0,0-.77.29,1,1,0,0,0-.32.76q0,7.24-3.45,17.9-.87,2.64,1.68,3.29a1.4,1.4,0,0,0,1.67-.84l2.16-5.41a.81.81,0,0,1,.91-.51.87.87,0,0,1,.72.79,24.65,24.65,0,0,0,5.77,15.16c.51.62.79.53.82-.31a45.16,45.16,0,0,0-4.95-22.16.79.79,0,0,1,.28-.95.78.78,0,0,1,1,.08c10.71,11.64,17.91,31,24.35,45.38,2.29,5.08,6.59,9,9.59,13.89.4.69.2,1-.59.87-22.08-2.88-27.8-26-35.63-40.06a2.56,2.56,0,0,0-1.73-1.26c-12-2.72-22.43-35.91-25.1-47-2.51-10.29-.4-18.11,5.74-26,9-7.52,20.93-10.74,31.64-15.24" transform="translate(-764.52 -536)"/><path id="path279" class="cls-6" d="M842.48,1364.07c9.47,27.46,27,35.26,49.74,50.78a1.11,1.11,0,0,0,1.41-.14l.54-.56a.58.58,0,0,0,.16-.4V1408q0-2.57,1.45-.47a11.91,11.91,0,0,0,9.54,5.43,172.44,172.44,0,0,1,21.68,28.1,1,1,0,0,1,0,1.12,1,1,0,0,1-1.08.36,66.78,66.78,0,0,1-20.83-10,4.65,4.65,0,0,0-4.74-.4c-6.09,2.88-12.56,5.78-19.33,3.46-27.14-9.28-39.7-45.68-38.49-71.5" transform="translate(-764.52 -536)"/><path id="path280" class="cls-2" d="M1283.79,1373.53q7.67,3.29,4,9c-7.38,11.79-27.79,8.51-39.49,6.15q-25-5.06-50.41-8.13c-1.83-.23-2.07.29-.71,1.54l1.91,1.76a.94.94,0,0,1,.31.66,1,1,0,0,1-.25.68,2,2,0,0,1-1,.61q-7.1-1.52-7-10.32a5,5,0,0,1,4.08-4.85c28.45-5.11,60.07-1.64,88.45,2.86" transform="translate(-764.52 -536)"/><path id="path281" class="cls-6" d="M954.58,1395.71l2.25,1.85a247.3,247.3,0,0,0,30.47,25.19l-.58,2.16c-9.42,3.25-19,5.64-27.42-1.79q-23.62-20.92-45.33-51.44a2.64,2.64,0,0,1,1.48-1.55,2,2,0,0,1,2,.43c5.46,5,9,11.15,15.15,15.08,2.53,1.65,20.55,14,22,10.07" transform="translate(-764.52 -536)"/><path id="path282" class="cls-6" d="M1283.79,1373.53a86.74,86.74,0,0,1,34.82,8.7,3.72,3.72,0,0,1,1,6c-4.43,4.42-20,6.8-31.2,8.37-31.2,4.37-60.93,1.16-90.21-10.76a2,2,0,0,0,1-.61,1,1,0,0,0,.25-.68.94.94,0,0,0-.31-.66l-1.91-1.76c-1.36-1.25-1.12-1.77.71-1.54q25.38,3.06,50.41,8.13c11.7,2.36,32.11,5.64,39.49-6.15q3.62-5.76-4-9" transform="translate(-764.52 -536)"/><path id="path283" class="cls-6" d="M939.35,1419.15c2.7,3.5,1.22,7.18-2.86,8.4a2.2,2.2,0,0,1-2.08-.44c-14.37-12.38-26.09-27.6-37.88-39.94-3.47-3.62-7.8-4.54-11.76-7.78a15.72,15.72,0,0,1,12.53,2.93,2.17,2.17,0,0,0,2,.32,8.84,8.84,0,0,1,9.91,2.65,378.45,378.45,0,0,1,28.87,35.78.58.58,0,0,0,.59.21.56.56,0,0,0,.44-.48l.24-1.65" transform="translate(-764.52 -536)"/><path id="path284" class="cls-13" d="M1339,1384q1.92,9.66-6.94,12.62a1.08,1.08,0,0,0-.59.52,1.06,1.06,0,0,0,0,.8,1.62,1.62,0,0,0,.54.71l-3.51,1.75a66.06,66.06,0,0,1,3.93-17.34,4,4,0,0,1,3.73-2.62c1.91,0,2.87,1.17,2.88,3.56" transform="translate(-764.52 -536)"/><path id="path285" class="cls-7" d="M1298.72,1454a20.61,20.61,0,0,1-16.11,0q-24.06-10.2-38.76-15.49c-20.27-6.28-45.19-28.43-60.16-43.36q-2.94-7.2,3-12.12a1,1,0,0,1,.79-.19,1,1,0,0,1,.64.52c9,18.82,40.8,40.52,58.43,51.59C1265,1446.49,1280,1449,1298.72,1454" transform="translate(-764.52 -536)"/><path id="path286" class="cls-4" d="M961.61,1383.4l36.33,26.36a2,2,0,0,1,.8,1.91q-1.46,10.32-12,13.24l.58-2.16a.56.56,0,0,0,.47-.28.66.66,0,0,0-.14-.9c-12.16-9-24-21.53-30.8-24l-2.25-1.85-9.47-8.88a1.47,1.47,0,0,1,.69-.88,1.53,1.53,0,0,1,1.94.32l6.56,7.4c1.3,1.46,2.15,1.25,2.56-.67l.89-4.21a2.31,2.31,0,0,1,1.08-1.5,5.86,5.86,0,0,0,2.78-3.89" transform="translate(-764.52 -536)"/><path id="path287" class="cls-9" d="M1339,1384h1q2.71,11.05-8,14.65a1.62,1.62,0,0,1-.54-.71,1.06,1.06,0,0,1,0-.8,1.08,1.08,0,0,1,.59-.52q8.87-3,6.94-12.62" transform="translate(-764.52 -536)"/><path id="path288" class="cls-1" d="M793.27,1386.75l.13,0a1.33,1.33,0,0,1,1.68.86l6.13,19.2a1.33,1.33,0,0,1-.87,1.68l-.13,0a1.33,1.33,0,0,1-1.68-.86l-6.13-19.2a1.33,1.33,0,0,1,.87-1.68" transform="translate(-764.52 -536)"/><path id="path289" class="cls-1" d="M804.88,1397.08c.53-.28-.07-2.43-1.33-4.79s-2.72-4-3.24-3.77.07,2.43,1.33,4.79,2.71,4,3.24,3.77" transform="translate(-764.52 -536)"/><path id="path290" class="cls-7" d="M1179.4,1392.77l3,3.62a170.58,170.58,0,0,0,25.15,23.78c1.71,1.31,2.11,3.31,3.45,4.34,4.82,3.65,24.3,13.82,26,17.53a10.44,10.44,0,0,1,.78,6.4c-16.76-6.33-30.21-15-42.21-28.13a70.73,70.73,0,0,0-9.66-8.76c-.66-.48-.79-.38-.4.34,9.94,18.59,36.21,34.18,54.94,42.5l-.21.92a1.64,1.64,0,0,1-1.13,1.14l-1,.28c-24.18-11.56-53.15-31.37-63.95-56.93l5.27-7" transform="translate(-764.52 -536)"/><path id="path291" class="cls-8" d="M1183.69,1395.12c15,14.93,39.89,37.08,60.16,43.36l-1.92,8.53a2.57,2.57,0,0,0,.47,2.11c5.32,7,8.83,3.21,15.44,5.32,10.41,3.35,21.38,5,32,8.23.82.24.89.6.24,1.12l-11,8.66a120.39,120.39,0,0,1-40.93-15.72l1-.28a1.64,1.64,0,0,0,1.13-1.14l.21-.92c13.76,6.85,23.7,14.4,38.23,15q6,.25.23-1.46l-11.06-3.29a4.83,4.83,0,0,1-1.83-1.07c-4.5-4.33-9.68-3.56-13.87-5.66a72.21,72.21,0,0,1-14.37-9.47,10.44,10.44,0,0,0-.78-6.4c-1.66-3.71-21.14-13.88-26-17.53-1.34-1-1.74-3-3.45-4.34a170.58,170.58,0,0,1-25.15-23.78l1.27-1.27" transform="translate(-764.52 -536)"/><path id="path292" class="cls-5" d="M778.61,1396.29a220,220,0,0,0,8,40.78c1.12,3.8,1.19,8,1.41,11.88a2.77,2.77,0,0,1-.73,2l-13.12,14.7a1.56,1.56,0,0,1-2,.3,15,15,0,0,1-6.61-7.4,2.71,2.71,0,0,1,.1-2.16l4.26-8.67,4-4.49a63.49,63.49,0,0,1,.82-34.27,16.62,16.62,0,0,0,.33-6.27,7.42,7.42,0,0,1,3.51-6.44" transform="translate(-764.52 -536)"/><path id="path293" class="cls-1" d="M956.83,1397.56c6.78,2.48,18.64,15,30.81,24a.67.67,0,0,1,.13.9.56.56,0,0,1-.47.28,247.3,247.3,0,0,1-30.47-25.19" transform="translate(-764.52 -536)"/><path id="path295" class="cls-1" d="M1174.13,1399.8c10.8,25.56,39.77,45.37,63.95,56.93a120.39,120.39,0,0,0,40.93,15.72l.19.6a214.22,214.22,0,0,0-25.29,31,61.46,61.46,0,0,1-20.39,15.5c-6.29,2.94-8.35,7-12.43,12-5.27,3-9.89,4.82-14.2,9.56-12,13.2-29.74,14.46-45.49,17.18a4.54,4.54,0,0,0-3.68,3.54l-4,18.34-6.79,8a2.76,2.76,0,0,0-.62,2.15l1.06,8.08q-.4,11.32-9.8,16.87a3.11,3.11,0,0,0-1.34,1.74,46.78,46.78,0,0,0-1.75,17.12l0,6.83c-.5,13,2.76,15.89,5.57,25.51a3.58,3.58,0,0,1-.09,2.24l-4.48,11.72c-16.4,3.82-27.06-2.2-41-12.14-21.9-15.57-23.07-37.61-.59-54a1.16,1.16,0,0,0,.45-.77,1.15,1.15,0,0,0-.24-.86c-1.81-2.22-4.27-3.81-5.88-6.06A286.8,286.8,0,0,0,1046,1560a5.1,5.1,0,0,1-.56-7l13.52-16.65a2.25,2.25,0,0,0,.4-2.07c-1-3-9-20.65-8.79-21.71.11-.49.28-.5.52-.06,6,11.24,11.73,23.84,19.61,33.12a133,133,0,0,0,57.33,39.46,1.69,1.69,0,0,0,1.68-.34,1.66,1.66,0,0,0,.52-1.63c-2.16-9.25-11-13.8-18.37-18.31-26.09-16-49.67-40.89-46.69-74.09a.86.86,0,0,0-.31-.71.83.83,0,0,0-.76-.13l-16.48,5.41a110,110,0,0,1,35.39-11.82,4.33,4.33,0,0,0,2.15-1.06l16.76-15.88a4.43,4.43,0,0,0,1.22-2c5.32-19.16,15.82-29.75,27.51-45.16,5.77-7.6,14.67-8.82,23.47-8.31a2.57,2.57,0,0,0,1.92-.75,7,7,0,0,1,4.57-2.2c.35,13.19,25.82,39.91,35.74,48.63q27.12,21.38,59.22,26.29a2.2,2.2,0,0,0,1.41-4.09l-51-28.33a114.09,114.09,0,0,1-35.23-41.91l-1.83-4.79a1.57,1.57,0,0,1,.49-1.78,11.25,11.25,0,0,1,4.67-2.23" transform="translate(-764.52 -536)"/><path id="path296" class="cls-3" d="M775.1,1402.73a16.62,16.62,0,0,1-.33,6.27,63.49,63.49,0,0,0-.82,34.27q-1.43-5.44-2.72-10.6c-2.55-10.2-.25-20.54,3.87-29.94" transform="translate(-764.52 -536)"/><path id="path297" class="cls-8" d="M1170.8,1408.6a114.09,114.09,0,0,0,35.23,41.91,64.38,64.38,0,0,0,23.69,16.64c2.51,1,4.9,3,4.85,5.61a1.56,1.56,0,0,1-2.06,1.48,101.61,101.61,0,0,1-32.34-17.55,3,3,0,0,0-3.78,0c-9.92-8.72-35.39-35.44-35.74-48.63a7.1,7.1,0,0,1,2.83-2.41,1.07,1.07,0,0,1,.89,0,1,1,0,0,1,.61.61c1,2.78,3,4.19,5.82,2.43" transform="translate(-764.52 -536)"/><path id="path298" class="cls-4" d="M1221.35,1406.55a.49.49,0,0,1-.24-.48c.06-.44.43-.55,1.13-.31,30,9.93,52.39,6.16,83.81,1.67a38.05,38.05,0,0,1,15.34.56,1.52,1.52,0,0,1,1.12,1.49c-1.43,52.85-82.1,7.88-101.16-2.93" transform="translate(-764.52 -536)"/><path id="path300" class="cls-9" d="M1237.76,1448.44a72.21,72.21,0,0,0,14.37,9.47c4.19,2.1,9.37,1.33,13.87,5.66a4.83,4.83,0,0,0,1.83,1.07l11.06,3.29q5.71,1.72-.23,1.46c-14.53-.6-24.47-8.15-38.23-15-18.73-8.32-45-23.91-54.94-42.5-.39-.72-.26-.82.4-.34a70.73,70.73,0,0,1,9.66,8.76c12,13.1,25.45,21.8,42.21,28.13" transform="translate(-764.52 -536)"/><path id="path301" class="cls-2" d="M1183.1,1481.84a38.12,38.12,0,0,1-20-3.24,3.72,3.72,0,0,0-5.17,3.89l1.42,10.58a1.14,1.14,0,0,1-.27.86,1.1,1.1,0,0,1-.82.38c-17.36.34-24.21-8.14-38.15-15.34-.71-.36-.9-.17-.57.55,4.48,10,12.9,24.13,10.84,35.15a1.81,1.81,0,0,0,.77,1.88l4.31,2.88a.88.88,0,0,1,.37.6.9.9,0,0,1-.18.69,1.39,1.39,0,0,1-.73.47l-21.1-9.64a2.22,2.22,0,0,0-2.13.18,2.26,2.26,0,0,0-1,1.94c.54,12.13,15.35,17.2,24.26,23.16q-8-1.26-16.69-7.28c-9.26-6.42-19.15-20.6-23.93-29.38a40.46,40.46,0,0,1-4.73-19,73.1,73.1,0,0,1,13.85-12.77,4.13,4.13,0,0,0,1.38-1.82c2.51-6.74,3.42-13.93,7.76-19.73q9.43-12.61,19.24-25c9.12-11.48,17.37-10.58,24.94,1.23a410.51,410.51,0,0,0,35.74,47.72,1,1,0,0,1,.14,1.17,1.07,1.07,0,0,1-1,.58,36.13,36.13,0,0,0-14.05,1.41,1,1,0,0,0-.6.57.93.93,0,0,0,.07.83,18.46,18.46,0,0,0,6,6.48" transform="translate(-764.52 -536)"/><path id="path302" class="cls-5" d="M811.8,1539.4c4.22,30.75,31.18,50.27,61.27,36a.8.8,0,0,1,.83.08.83.83,0,0,1,.32.79c-2.55,18.49-39.21-2-49.78,12.47a3.09,3.09,0,0,1-4.24.73c-30.4-20.56-31.76-51.31-22.11-83.59,4.22-14.12-3.49-36.93-5.34-52.28-1.67-13.76-4.78-24.37-8.72-36.77a1.21,1.21,0,0,1,.28-1.23l.54-.53s.09,0,.12,0c5.48,14.9,8.83,29.82,20.25,35.24a3.35,3.35,0,0,1,1.55,1.54c13.09,26.75,15.07,41.94,18.79,71,3.87,30.42,16,29,42.14,29.27a2.94,2.94,0,0,1,2.21,1.08,13.52,13.52,0,0,1,2.76,11.2,2.36,2.36,0,0,1-1.22,1.69c-24.3,12.74-44.88-7.78-59.09-26.92-.46-.62-.65-.56-.56.23" transform="translate(-764.52 -536)"/><path id="path305" class="cls-9" d="M1298.72,1454l1.38.3a39.48,39.48,0,0,1-20.9,18.76l-.19-.6,11-8.66c.65-.52.58-.88-.24-1.12-10.59-3.22-21.56-4.88-32-8.23-6.61-2.11-10.12,1.64-15.44-5.32a2.57,2.57,0,0,1-.47-2.11l1.92-8.53q14.7,5.3,38.76,15.49a20.61,20.61,0,0,0,16.11,0" transform="translate(-764.52 -536)"/><path id="path309" class="cls-6" d="M1206,1450.51l51,28.33a2.2,2.2,0,0,1-1.41,4.09q-32.1-4.92-59.22-26.29a3,3,0,0,1,3.78,0,101.61,101.61,0,0,0,32.34,17.55,1.56,1.56,0,0,0,2.06-1.48c0-2.59-2.34-4.61-4.85-5.61a64.38,64.38,0,0,1-23.69-16.64" transform="translate(-764.52 -536)"/><path id="path310" class="cls-8" d="M1284.45,1458.33c-3.08-.33-5.93-1.17-9-1.76a.63.63,0,0,1-.49-.64v-.6a.7.7,0,0,1,.23-.52.68.68,0,0,1,.54-.17l7.93,1a1.45,1.45,0,0,1,1.26,1.4v.77a.46.46,0,0,1-.15.36.48.48,0,0,1-.36.12" transform="translate(-764.52 -536)"/><path id="path314" class="cls-6" d="M1183.1,1481.84a305.76,305.76,0,0,0,51.07,19.08,12.73,12.73,0,0,1,6.4,4.68,1.23,1.23,0,0,1-.14,1.73c-13.08,11.4-48.33-8.36-60.38-16.4a.64.64,0,0,0-.76.1.62.62,0,0,0-.1.77c7.85,11.29,17.67,24.13,14.92,38.69-3,15.8-51.41-5-59.15-9.3a1.39,1.39,0,0,0,.73-.47.9.9,0,0,0,.18-.69.88.88,0,0,0-.37-.6l-4.31-2.88a1.81,1.81,0,0,1-.77-1.88c2.06-11-6.36-25.1-10.84-35.15-.33-.72-.14-.91.57-.55,13.94,7.2,20.79,15.68,38.15,15.34a1.1,1.1,0,0,0,.82-.38,1.14,1.14,0,0,0,.27-.86l-1.41-10.58a3.7,3.7,0,0,1,5.15-3.89,38.18,38.18,0,0,0,20,3.24" transform="translate(-764.52 -536)"/><path id="path315" class="cls-6" d="M1089.66,1481.16a40.46,40.46,0,0,0,4.73,19c4.78,8.78,14.67,23,23.93,29.38q8.73,6,16.69,7.28a74.25,74.25,0,0,1,19.5,11.24,1,1,0,0,1,.34,1.1,1,1,0,0,1-.93.71q-44.81,2.1-64.75-37.55-8.45-16.75.49-31.17" transform="translate(-764.52 -536)"/><path id="path317" class="cls-5" d="M824.55,1482.87c16.76,17.72,39.85,18.06,61.81,10.45a1,1,0,0,1,.86.07,1,1,0,0,1,.5.68c4.95,23.9-36,15.49-46,11-8.79-4-14.51-14.23-19.08-22.36a.6.6,0,0,1,0-.61.63.63,0,0,1,.54-.31c.89,0,1.36.37,1.4,1.11" transform="translate(-764.52 -536)"/><path id="path318" class="cls-5" d="M1135.45,1680.47v1.76c-13.9,13-35.81-4.08-51.7,3.82a1.93,1.93,0,0,1-2-.21c-20.64-15.87-23.83-34.91-20.7-60.59,3.81-30.73-3.81-38.18-20.81-60.3-7.41-9.66-24.28-34.6-17.2-46.67q3.37-5.71,6.91-11.25l3.41-4.86,14.27-7,16.48-5.41a.83.83,0,0,1,.76.13.86.86,0,0,1,.31.71c-3,33.2,20.6,58.09,46.69,74.09,7.33,4.51,16.21,9.06,18.37,18.31a1.66,1.66,0,0,1-.52,1.63,1.69,1.69,0,0,1-1.68.34,133,133,0,0,1-57.33-39.46c-7.88-9.28-13.59-21.88-19.61-33.12-.24-.44-.41-.43-.52.06-.21,1.06,7.81,18.68,8.79,21.71a2.2,2.2,0,0,1-.4,2l-13.52,16.67a5.1,5.1,0,0,0,.56,7,286.8,286.8,0,0,1,42.12,46.7c1.61,2.25,4.07,3.84,5.88,6.06a1.15,1.15,0,0,1,.24.86,1.16,1.16,0,0,1-.45.77c-22.48,16.36-21.31,38.4.59,54,14,9.94,24.63,16,41,12.14" transform="translate(-764.52 -536)"/><path id="path322" class="cls-1" d="M1030,1507q-3.52,5.54-6.91,11.25c-7.08,12.07,9.79,37,17.2,46.67,17,22.12,24.62,29.57,20.81,60.3-3.13,25.68.06,44.72,20.7,60.59a1.93,1.93,0,0,0,2,.21c15.89-7.9,37.8,9.16,51.7-3.82,1,20.48-13.68,23.6-30.25,20.2-31.25-6.38-56.16-33.59-52.9-66.51q1-9.64,1.89-19.32c4.86-24.65-13.94-39.47-27-58-7-17.15-13.85-34.39.49-49.72L1030,1507" transform="translate(-764.52 -536)"/><path id="path325" class="cls-1" d="M1038.3,1516.57a2,2,0,0,1,1.15-.61c.11,0,.27.19.5.59a1.08,1.08,0,0,1-.19,1.26q-8,7.8-.43,15.62a1.1,1.1,0,0,1,.08,1.45c-.27.33-.55.39-.83.11q-9.11-8.4-.28-18.42" transform="translate(-764.52 -536)"/><path id="path326" class="cls-3" d="M1049.44,1527.59l1.14-1.7c.46-.66.67-.6.64.22l0,.94a2,2,0,0,1-.82,1.55l-4.62,3.35c-.46.34-.68.22-.63-.35l1.06-12.21c.09-1.12.22-1.12.39,0l1.2,7.85c.25,1.56.81,1.68,1.69.38" transform="translate(-764.52 -536)"/><path id="path329" class="cls-5" d="M1051.8,1559a1.26,1.26,0,0,1,0-1.84,56.53,56.53,0,0,0,11.3-14.13,1.42,1.42,0,0,1,1.41-.68,1.4,1.4,0,0,1,1.19,1c4.64,16.24,17.44,26,28.48,38.23a3.49,3.49,0,0,1,0,4.64c-1.9,2.18-4.7,3.16-8.39,2.9a3.42,3.42,0,0,1-2.08-.89L1051.8,1559" transform="translate(-764.52 -536)"/><path id="path331" class="cls-5" d="M1027.24,1558.6c13,18.53,31.81,33.35,27,58q-.76-1.68-2-1.59a2,2,0,0,0-1.71,1.15q-3.21,6.6-11.91,9.75c-2.78-4.46-5.86-7.12-9.26-8a25.9,25.9,0,0,1-5.17-10.66l10.66-8.91a2.4,2.4,0,0,0,.87-1.87,29.37,29.37,0,0,0-5.91-17.61,5,5,0,0,1-.92-2.11l-2.36-13.45.77-4.68" transform="translate(-764.52 -536)"/><path id="path334" class="cls-5" d="M1095.33,1601.16q-6.36-4.28,1.28-3.59c16.06,1.46,28.28,5.55,45.36-1.6a1.14,1.14,0,0,1,.85,0,1,1,0,0,1,.55.65c3.45,11.9-6.7,15.5-16,15.24q-16.78-.5-32-10.73" transform="translate(-764.52 -536)"/><path id="path341" class="cls-5" d="M1129.41,1670.67c-11.25-1.19-35.91-7.43-36-22a5.34,5.34,0,0,1,4.38-5.28c15.17-2.68,31.56,7.9,35.59,22.58a3.75,3.75,0,0,1-.77,3.4,3.7,3.7,0,0,1-3.24,1.28" transform="translate(-764.52 -536)"/></g></g></svg>