<svg id="Layer_1" data-name="Layer 1" xmlns="http://www.w3.org/2000/svg" viewBox="0 0 301.02 301.02"><defs><style>.cls-1{fill:#efd697;}.cls-2{fill:#3f3c3d;}.cls-3{fill:#d2ba87;}.cls-4{fill:none;}</style></defs><path class="cls-1" d="M296.93,232.69c-81.66,0-148.09,66.43-148.09,148.09s66.43,148.09,148.09,148.09S445,462.44,445,380.78,378.59,232.69,296.93,232.69ZM394,342.27c0,4.24-2,7.68-4.56,7.68s-4.56-3.44-4.56-7.68,2-7.68,4.56-7.68S394,338,394,342.27Zm15.27,21.84c5.26,2,6.62,11.32,3,20.87s-10.75,15.71-16,13.73-6.61-11.32-3-20.88S404,362.13,409.26,364.11ZM381.8,292.4a4.52,4.52,0,0,1,3.18,1c2.32,1.64,3.92,4.55,3.33,7.34s-3.85,4.89-6.44,3.74c-2.82-1.26-3.29-5-3.07-8.12,0-.31.06-.63.11-.94l-.77.42C379,294.33,380.08,292.66,381.8,292.4ZM380.07,365a17.69,17.69,0,0,1-7,6.6c-2.12,1.2-4.61,2.15-7,1.5,2.26.06,4.23-1.47,5.81-3.07a35.34,35.34,0,0,0,5.36-6.94c1-1.69,1.94-5.63,4.05-6C382.33,359.43,381.26,362.81,380.07,365Zm.6,33.63a2.59,2.59,0,1,1-2.59-2.59A2.59,2.59,0,0,1,380.67,398.61Zm-75.08,69.84a15.6,15.6,0,0,0-11.08,4.46,8,8,0,0,0-1.05,1.29,23.47,23.47,0,0,1,5.31-7c2.83-2.36,6.76-3.67,10.3-2.63s6.16,4.3,8,7.59A20.78,20.78,0,0,0,305.59,468.45Zm11.94,9.09c0,3.88-4.62,7-10.3,7s-10.3-3.15-10.3-7,4.61-7,10.3-7S317.53,473.66,317.53,477.54ZM292.46,437.4c2.43.45,4.82,3.05,7.4,4a22.73,22.73,0,0,0,9.58,1.14c5.6-.49,10.91-2.7,15.86-5.35,8.72-4.69,17-11.28,20.71-20.43-.56,9-3.33,17.94-8.93,25s-14.21,11.86-23.18,11.84C307.16,453.52,290,446.76,292.46,437.4Zm13.2-30.91a25,25,0,0,1,21.52-2.86c4.22,1.43,8.32,4.44,9.26,8.8,1.58,7.32-4.15,4.89-8.26,4.32a23.45,23.45,0,0,0-14.24,2.76c-6.36,3.45-11.14,9.27-14.72,15.55-3.51-1.47-4.63-5.95-4.39-9.75A25,25,0,0,1,305.66,406.49ZM296.87,389a4,4,0,0,1,2.34-1.5l.3-.06a5.5,5.5,0,0,1,.69-.11l.06.18a1.87,1.87,0,0,1,1.22,1.06,3.05,3.05,0,0,1-1.11,3.19,2.75,2.75,0,0,1-2.9.59A2.38,2.38,0,0,1,296.87,389Zm32.28-86a6.88,6.88,0,0,1-1.1,2.36,11.68,11.68,0,0,1-3.85,3.93,5.8,5.8,0,0,1-5.33.38,9.28,9.28,0,0,1-2.62-2c5.91-2.54,9.9-4.56,13.28-10.38C328.56,298.92,329.54,301.07,329.15,303Zm-4.74,67.57c1.76,0,3.51,3.56,3.56,5a7.47,7.47,0,0,1-1.06,3.49c-1.7,3.34-4.31,7-8.06,7,4.25-3.13,4.4-7.2,4.47-11.92C323.35,372.32,322.28,370.55,324.41,370.54ZM318.88,305c-3.61,0-6.53-2.13-6.53-4.76s2.92-4.76,6.53-4.76,6.54,2.13,6.54,4.76S322.49,305,318.88,305Zm-2,67.25c2.52,0,4.56,2.32,4.56,5.18s-2,5.18-4.56,5.18-4.56-2.32-4.56-5.18S314.39,372.24,316.91,372.24Zm27.86,32.15c-1.17-.73-4.44-4.31-1.88-4.4,1,0,2.62,1.21,3.63,1.46a11.43,11.43,0,0,0,11.76-4.11,18.15,18.15,0,0,0,3.05-7.26,22.44,22.44,0,0,1,.65,5.07,11.23,11.23,0,0,1-17.21,9.24ZM353.31,332c-.53-1.4-4.19-6.87-1.86-8.16,2.52-1.39,6.61,5.44,7.31,7.05a27.51,27.51,0,0,1,1.76,10.56c0,3.39-.25,6.89-1.78,9.92-2.91,5.76-9.6,8.48-15.91,9.86,6.9-2.53,11.54-9.62,12.28-16.93A27.2,27.2,0,0,0,353.31,332Zm2,62.57c0,2-2.76,3.7-6.17,3.7s-6.17-1.66-6.17-3.7,2.76-3.7,6.17-3.7S355.27,392.49,355.27,394.54Zm18.44,30.95a18.44,18.44,0,1,1-18.44,18.44A18.44,18.44,0,0,1,373.71,425.49Zm9.06-50.75c1.16,0,2.1,1.45,2.1,3.24s-.94,3.23-2.1,3.23-2.1-1.44-2.1-3.23S381.61,374.74,382.77,374.74Zm-7.24-60.2a2,2,0,1,1-2,2A2,2,0,0,1,375.53,314.54Zm-22.11-53a10.49,10.49,0,1,1-10.49,10.48A10.48,10.48,0,0,1,353.42,261.58Zm-3.92,25.29a16.52,16.52,0,0,0,15.61-2.63,21,21,0,0,0,7.64-14.18c2.16,6,1.4,13.39-3.34,17.62a16.57,16.57,0,0,1-7.15,3.52,20,20,0,0,1-9.26.17,16.38,16.38,0,0,1-11.27-9.43C344.41,283.42,346.52,285.74,349.5,286.87Zm.46,21a2.56,2.56,0,1,1-2.56-2.56A2.56,2.56,0,0,1,350,307.91Zm1.36,32.45c0,9.18-5.8,16.62-12.95,16.62s-12.95-7.44-12.95-16.62,5.8-16.62,12.95-16.62S351.32,331.18,351.32,340.36Zm-20.9-70.82a21,21,0,0,1-1.93,7.2,17.07,17.07,0,0,1-2.35,3.74,14.89,14.89,0,0,1-12.42,5.15c-2.13-.18-8.34-1.46-7.93-4.49s7.47-1.52,9.63-1.85A22,22,0,0,0,330.42,269.54Zm-8.22-22.92a5.3,5.3,0,1,1-5.29,5.3A5.3,5.3,0,0,1,322.2,246.62Zm-8.34,17.86c6,0,10.82,3,10.82,6.63s-4.85,6.63-10.82,6.63-10.83-3-10.83-6.63S307.88,264.48,313.86,264.48Zm-7.45,69.37a3.38,3.38,0,1,1-3.38,3.38A3.38,3.38,0,0,1,306.41,333.85Zm-1.2,21.3A5.21,5.21,0,1,1,300,350,5.21,5.21,0,0,1,305.21,355.15ZM298.52,319a9.81,9.81,0,0,1-9.06,5.62,15.7,15.7,0,0,1-3.87-.92c-1.82-.61-4.31-1.46-4.86-3.48,1.52-.68,3.67,0,5.36-.11a14,14,0,0,0,6.12-2A14.29,14.29,0,0,0,298.73,308,14.11,14.11,0,0,1,298.52,319Zm-19.86-29.09a3.75,3.75,0,1,1,3.74-3.74A3.74,3.74,0,0,1,278.66,289.91Zm9.16,16.56c3.85,0,7,2.71,7,6s-3.13,6-7,6-7-2.71-7-6S284,306.47,287.82,306.47ZM275,309.23a1.33,1.33,0,1,1-1.32-1.32A1.33,1.33,0,0,1,275,309.23Zm1.61,22.4c2.35,0,4.25,3.15,4.25,7s-1.9,7-4.25,7-4.26-3.14-4.26-7S274.23,331.63,276.58,331.63ZM273,356c6.24-2.81,12.8-1.77,14.65,2.33s-1.71,9.7-7.95,12.51-12.8,1.78-14.65-2.32S266.8,358.85,273,356Zm21.58-66.95c2.09,0,3.79,2.16,3.79,4.81s-1.7,4.81-3.79,4.81-3.8-2.15-3.8-4.81S292.52,289.08,294.62,289.08Zm-5.77-17a2.41,2.41,0,1,1,2.4-2.4A2.41,2.41,0,0,1,288.85,272.06ZM277.13,241c4.5,0,8.14,2.53,8.14,5.64s-3.64,5.65-8.14,5.65-8.14-2.53-8.14-5.65S272.64,241,277.13,241Zm-12.26,10.57a12.68,12.68,0,0,0,1,.77,18,18,0,0,0,24.77-6.68,10,10,0,0,0-.85,3.33,13.53,13.53,0,0,1-10.37,10.41,14.79,14.79,0,0,1-14-5C264.76,253.54,264.25,252.43,264.87,251.55ZM262.59,377.2c.43-1.84,8.61-.61,10.12-.73a28.1,28.1,0,0,0,12.41-3.71,18.56,18.56,0,0,0,8.15-9.86,19.06,19.06,0,0,1-5.16,13.18,23.17,23.17,0,0,1-12.53,6.81,13.36,13.36,0,0,1-6.16,0C267.81,382.46,262.07,379.38,262.59,377.2ZM233.8,428.67c-1.15-.36-8.42-3.68-7.91-5.28.33-1.05,7.13,1.09,8.39,1a12.08,12.08,0,0,0,8.82-5.11,18,18,0,0,0,2.68-8.13,36.36,36.36,0,0,0,.05-8c1.72,3.71,3.42,7.52,3.89,11.59s-.45,8.49-3.35,11.38C243.19,429.28,238.09,430,233.8,428.67Zm.49,30.33c0,1-1.47,1.82-3.28,1.82s-3.27-.81-3.27-1.82,1.46-1.82,3.27-1.82S234.29,458,234.29,459Zm-8-71a13.28,13.28,0,0,0,5.76,1.67,7.79,7.79,0,0,0,2.64-.27,8.72,8.72,0,0,0,3.1-1.92,24.63,24.63,0,0,0,4.79-5.64,14.54,14.54,0,0,1-3.3,8.1,10.54,10.54,0,0,1-7.76,3.73c-4,0-9.9-4.07-9.47-8.56C223.5,385.28,224.9,387.22,226.25,388Zm-.73-6.71a6.52,6.52,0,1,1,6.52,6.52A6.51,6.51,0,0,1,225.52,381.26Zm8.77,21.12a8.77,8.77,0,1,1-8.77,8.77A8.77,8.77,0,0,1,234.29,402.38Zm8.77-51c0-3.12,1.78-5.65,4-5.65s4,2.53,4,5.65-1.79,5.64-4,5.64S243.06,354.45,243.06,351.34Zm14.09,119.17c8.38,0,15.17,4.42,15.17,9.87s-6.79,9.87-15.17,9.87S242,485.83,242,480.38,248.77,470.51,257.15,470.51Zm-2.34-21.46A1.91,1.91,0,1,1,252.9,451,1.92,1.92,0,0,1,254.81,449.05Zm-.8-117.6a3.15,3.15,0,1,1,3.14,3.14A3.14,3.14,0,0,1,254,331.45Zm14.82,100.32c-3.07.52-6.06-1.39-8.13-3.71a14.15,14.15,0,0,1-3.84-10.17l-.27,1.52a5.73,5.73,0,0,1-.38,2.13l.38-2.13c0-.86-.08-1.75-.11-2.61,0-1.59.3-3.42,1.66-4.25,0,4.43,3.62,8.33,7.89,9.53s8.91.12,12.83-1.95a19,19,0,0,1-5.47,9.11A9.21,9.21,0,0,1,268.83,431.77ZM276,453.54a3.64,3.64,0,1,1-3.64,3.64A3.64,3.64,0,0,1,276,453.54ZM275,415c-4.11,0-7.44-2.38-7.44-5.3s3.33-5.31,7.44-5.31,7.43,2.38,7.43,5.31S279.08,415,275,415Zm6.84,23.68a2.21,2.21,0,1,1-2.2,2.2A2.2,2.2,0,0,1,281.81,438.69Zm-25.62-134.9a33,33,0,0,1-23.1,14.4c-7.47.89-17.94-1.11-23.11-7.06,2.5-.66,6.2.56,8.94.54a42.21,42.21,0,0,0,9.49-1.17A40.84,40.84,0,0,0,245.35,302a41.47,41.47,0,0,0,14-36C263.85,278.3,263.48,292.87,256.19,303.79Zm-34,45.18c-6,1.47-11.62-.07-12.43-3.43s3.43-7.27,9.49-8.74,11.62.07,12.43,3.43S228.29,347.51,222.23,349ZM250,257.21a1.79,1.79,0,1,1-1.79,1.79A1.79,1.79,0,0,1,250,257.21Zm-18-3.53a2.26,2.26,0,1,1-2.26,2.26A2.26,2.26,0,0,1,232,253.68ZM223.3,283c9.87-7.1,20.78-8.81,24.35-3.83s-1.53,14.76-11.4,21.86-20.79,8.8-24.36,3.82S213.42,290.12,223.3,283Zm-12.09-7.64a1.73,1.73,0,1,1-1.73,1.73A1.72,1.72,0,0,1,211.21,275.39Zm-2.43,77.76c1.18-.77,6.06,1.39,7.6,1.48a20.1,20.1,0,0,0,8.93-1.54,23.24,23.24,0,0,0,11.19-10.37,24,24,0,0,1-2.87,10.6,14.72,14.72,0,0,1-8.32,6.92,13.93,13.93,0,0,1-6,.35,16.38,16.38,0,0,1-7-2.82C211.43,357.14,207.36,354.08,208.78,353.15Zm.7,18.08c1-2.11.76-4.25,1.44-6.28a3.86,3.86,0,0,1,2.69,2.88,7,7,0,0,1-2,6.13,11.18,11.18,0,0,1-6.79,3.46A18.61,18.61,0,0,0,209.48,371.23ZM208,394.66a1.36,1.36,0,1,1-1.36-1.36A1.36,1.36,0,0,1,208,394.66Zm5.22,16.67c2.89,4.89,3.56,10.72,4,16.38.42,5.09.6,10.66-2.38,14.82a13.49,13.49,0,0,1-11.38,5.19A20.62,20.62,0,0,1,191.6,443a44.63,44.63,0,0,1-8.63-9.7c2.39,2,4.51,4.36,7,6.21s5.58,3.24,8.69,2.92a10.56,10.56,0,0,0,3.92-1.27c5.69-3.1,8.3-10.2,7.75-16.66s-3.71-12.4-7.18-17.88c-.76-1.18-1.73-2.48-3.13-2.58l0,0h-1C204.65,402.78,210.34,406.45,213.22,411.33Zm-10.93,5.46c1.92,7.95-1,15.47-6.47,16.8s-11.51-4-13.43-12,1-15.46,6.47-16.79S200.36,408.85,202.29,416.79Zm-6.47-70a2.35,2.35,0,1,1-2.34-2.34A2.35,2.35,0,0,1,195.82,346.8Zm-3.48,25.44c0,4.24-1.69,7.68-3.76,7.68s-3.77-3.44-3.77-7.68,1.69-7.68,3.77-7.68S192.34,368,192.34,372.24Zm-1.21-37.65c-1.41,0-2.55-1.61-2.55-3.6s1.14-3.61,2.55-3.61,2.56,1.61,2.56,3.61S192.55,334.59,191.13,334.59Zm-7.85-30.48c2.53-3,6.34-4,8.51-2.23s1.89,5.74-.64,8.78-6.33,4-8.5,2.22S180.76,307.15,183.28,304.11ZM178,374.53c1.59.84,2.22,6,3.48,7.73,1.75,2.45,4.85,4.19,7.77,3.45,2.36-.6,4.09-2.68,5.12-4.89s1.52-4.64,2.4-6.92c.48,4.06.85,8.58-1.63,11.83a12.67,12.67,0,0,1-3.2,2.81,12.12,12.12,0,0,1-4.12,1.92c-3.87.78-7.86-1.9-9.49-5.49A14.22,14.22,0,0,1,178,374.53Zm-5.75-62a2,2,0,1,1-2,2A2,2,0,0,1,172.22,312.52Zm-4.61,14.86c1.43,0,2.59,2.07,2.59,4.62s-1.16,4.63-2.59,4.63S165,334.56,165,332,166.18,327.38,167.61,327.38Zm-2.28,24c1.9,0,3.45,2.29,3.45,5.13s-1.55,5.13-3.45,5.13-3.46-2.29-3.46-5.13S163.42,351.34,165.33,351.34ZM161.39,332c.9,0,1.64,1,1.64,2.32s-.74,2.31-1.64,2.31-1.64-1-1.64-2.31S160.48,332,161.39,332Zm-4.33,50.6a2.69,2.69,0,1,1,2.69,2.68A2.68,2.68,0,0,1,157.06,382.6Zm2.41,21a3.56,3.56,0,1,1,3.56,3.56A3.56,3.56,0,0,1,159.47,403.65Zm2.4,22.29c0-5.08,2.12-9.2,4.72-9.2s4.72,4.12,4.72,9.2-2.11,9.2-4.72,9.2S161.87,431,161.87,425.94Zm270.57-85.82c12.69,50.79-3.73,108.1-42.23,143.56s-97.75,47-146.32,27.5c-14.55-5.84-28-14.16-40.84-23.15-10.2-7.14-20.65-15.57-25.31-26.82-3.84-4.73-6.74-10.3-9.54-15.74a115.45,115.45,0,0,0,65,27.37c1.71,6.8,3.59,13.92,8.4,19a20.63,20.63,0,0,0,35.11-18.79,29,29,0,0,0,14.14-2.64c-.12,5.38,0,11.42,3.84,15.21,2.67,2.64,6.61,3.57,10.36,3.68,4.92.15,10-1,13.94-4s6.41-8.06,5.58-12.92-5.42-9-10.34-8.63c12.78-5.51,24.17-13.73,35.44-21.89A22.56,22.56,0,0,0,363,466.37c6.51,2.61,13.92,1.91,20.52-.57a33.22,33.22,0,0,0,5.49-5.45,30.61,30.61,0,0,0,3.19-29.8,17.77,17.77,0,0,0-3.48-5.38c-4.19-4.22-10.66-4.92-16.58-5.39A97.59,97.59,0,0,0,390.3,396a16.64,16.64,0,0,0,2.56,8.1c1.66,2.33,4.56,4,7.37,3.43,2.14-.4,3.88-1.94,5.39-3.51a51.61,51.61,0,0,0,12-20.19,35,35,0,0,0,1.45-6.68,40.77,40.77,0,0,0-2-9.3c-.46-1.34-1-2.68-1.43-4-3.84-4.14-10.92-5.55-14.8-1.5,3.85-5.64,4.4-12.85,4.48-19.69a203.59,203.59,0,0,0-9.69-64.44,99.13,99.13,0,0,1,18.74,28.51A71.44,71.44,0,0,0,409,295.47C421.1,307.44,428.31,323.61,432.44,340.12Z" transform="translate(-146.42 -230.27)"/><path class="cls-2" d="M296.93,230.27c-83,0-150.51,67.52-150.51,150.51s67.52,150.51,150.51,150.51,150.51-67.52,150.51-150.51S379.92,230.27,296.93,230.27Zm0,298.6c-81.66,0-148.09-66.43-148.09-148.09s66.43-148.09,148.09-148.09S445,299.12,445,380.78,378.59,528.87,296.93,528.87Z" transform="translate(-146.42 -230.27)"/><path class="cls-2" d="M337.08,441.7c5.6-7,8.37-16,8.93-25-3.74,9.15-12,15.74-20.71,20.43-4.95,2.65-10.26,4.86-15.86,5.35a22.73,22.73,0,0,1-9.58-1.14c-2.58-.93-5-3.53-7.4-4-2.47,9.36,14.7,16.12,21.44,16.14C322.87,453.56,331.48,448.72,337.08,441.7Z" transform="translate(-146.42 -230.27)"/><path class="cls-2" d="M299.22,435.06c3.58-6.28,8.36-12.1,14.72-15.55a23.45,23.45,0,0,1,14.24-2.76c4.11.57,9.84,3,8.26-4.32-.94-4.36-5-7.37-9.26-8.8a24.54,24.54,0,0,0-32.35,21.68C294.59,429.11,295.71,433.59,299.22,435.06Z" transform="translate(-146.42 -230.27)"/><path class="cls-2" d="M256.59,419.41l-.38,2.13A5.73,5.73,0,0,0,256.59,419.41Z" transform="translate(-146.42 -230.27)"/><path class="cls-2" d="M278.86,420.13c-3.92,2.07-8.56,3.15-12.83,1.95s-7.92-5.1-7.89-9.53c-1.36.83-1.7,2.66-1.66,4.25,0,.86.12,1.75.11,2.61l.27-1.52a14.15,14.15,0,0,0,3.84,10.17c2.07,2.32,5.06,4.23,8.13,3.71a9.21,9.21,0,0,0,4.56-2.53A19,19,0,0,0,278.86,420.13Z" transform="translate(-146.42 -230.27)"/><path class="cls-2" d="M395.66,278.13a203.59,203.59,0,0,1,9.69,64.44c-.08,6.84-.63,14.05-4.48,19.69,3.88-4.05,11-2.64,14.8,1.5.42,1.36,1,2.7,1.43,4a40.77,40.77,0,0,1,2,9.3,35,35,0,0,1-1.45,6.68,51.61,51.61,0,0,1-12,20.19c-1.51,1.57-3.25,3.11-5.39,3.51-2.81.54-5.71-1.1-7.37-3.43a16.64,16.64,0,0,1-2.56-8.1,97.59,97.59,0,0,1-18.19,23.83c5.92.47,12.39,1.17,16.58,5.39a17.77,17.77,0,0,1,3.48,5.38,30.61,30.61,0,0,1-3.19,29.8,33.22,33.22,0,0,1-5.49,5.45c-6.6,2.48-14,3.18-20.52.57a22.56,22.56,0,0,1-13.3-24.47c-11.27,8.16-22.66,16.38-35.44,21.89,4.92-.4,9.52,3.77,10.34,8.63s-1.67,9.92-5.58,12.92-9,4.13-13.94,4c-3.75-.11-7.69-1-10.36-3.68-3.83-3.79-4-9.83-3.84-15.21a29,29,0,0,1-14.14,2.64,20.63,20.63,0,0,1-35.11,18.79c-4.81-5.1-6.69-12.22-8.4-19a115.45,115.45,0,0,1-65-27.37c2.8,5.44,5.7,11,9.54,15.74,4.66,11.25,15.11,19.68,25.31,26.82,12.85,9,26.29,17.31,40.84,23.15,48.57,19.53,107.81,8,146.32-27.5s54.92-92.77,42.23-143.56c-4.13-16.51-11.34-32.68-23.45-44.65a71.44,71.44,0,0,1,5.41,11.17A99.13,99.13,0,0,0,395.66,278.13Z" transform="translate(-146.42 -230.27)"/><path class="cls-2" d="M188.86,404.82c-5.5,1.33-8.4,8.85-6.47,16.79s7.93,13.31,13.43,12,8.39-8.85,6.47-16.8S194.35,403.49,188.86,404.82Z" transform="translate(-146.42 -230.27)"/><ellipse class="cls-2" cx="110.73" cy="250.11" rx="15.17" ry="9.87"/><ellipse class="cls-2" cx="160.81" cy="247.27" rx="10.3" ry="7.03"/><circle class="cls-2" cx="373.71" cy="443.93" r="18.44" transform="translate(-340.45 333.68) rotate(-61.85)"/><path class="cls-2" d="M265.09,368.55c1.85,4.1,8.41,5.14,14.65,2.32s9.8-8.41,7.95-12.51S279.28,353.22,273,356,263.24,364.45,265.09,368.55Z" transform="translate(-146.42 -230.27)"/><circle class="cls-2" cx="234.29" cy="411.15" r="8.77" transform="translate(-216.02 -181.87) rotate(-10.28)"/><path class="cls-2" d="M353.42,282.55a10.49,10.49,0,1,0-10.49-10.49A10.49,10.49,0,0,0,353.42,282.55Z" transform="translate(-146.42 -230.27)"/><path class="cls-2" d="M396.27,398.71c5.27,2,12.44-4.17,16-13.73s2.23-18.9-3-20.87-12.43,4.17-16,13.72S391,396.74,396.27,398.71Z" transform="translate(-146.42 -230.27)"/><path class="cls-2" d="M211.89,304.88c3.57,5,14.48,3.27,24.36-3.82s15-16.88,11.4-21.86-14.48-3.27-24.35,3.83S208.31,299.9,211.89,304.88Z" transform="translate(-146.42 -230.27)"/><ellipse class="cls-2" cx="42.16" cy="141.97" rx="3.76" ry="7.68"/><ellipse class="cls-2" cx="100.63" cy="121.07" rx="4" ry="5.64"/><path class="cls-2" d="M276.58,345.69c2.35,0,4.25-3.14,4.25-7s-1.9-7-4.25-7-4.26,3.15-4.26,7S274.23,345.69,276.58,345.69Z" transform="translate(-146.42 -230.27)"/><path class="cls-2" d="M294.8,355.15A5.21,5.21,0,1,0,300,350,5.2,5.2,0,0,0,294.8,355.15Z" transform="translate(-146.42 -230.27)"/><path class="cls-2" d="M232,387.78a6.52,6.52,0,1,0-6.52-6.52A6.52,6.52,0,0,0,232,387.78Z" transform="translate(-146.42 -230.27)"/><path class="cls-2" d="M171.31,425.94c0-5.08-2.11-9.2-4.72-9.2s-4.72,4.12-4.72,9.2,2.12,9.2,4.72,9.2S171.31,431,171.31,425.94Z" transform="translate(-146.42 -230.27)"/><path class="cls-2" d="M166.59,403.65a3.56,3.56,0,1,0-3.56,3.56A3.56,3.56,0,0,0,166.59,403.65Z" transform="translate(-146.42 -230.27)"/><path class="cls-2" d="M162.43,382.6a2.69,2.69,0,1,0-2.68,2.68A2.68,2.68,0,0,0,162.43,382.6Z" transform="translate(-146.42 -230.27)"/><path class="cls-2" d="M167.61,336.63c1.43,0,2.59-2.07,2.59-4.63s-1.16-4.62-2.59-4.62S165,329.45,165,332,166.18,336.63,167.61,336.63Z" transform="translate(-146.42 -230.27)"/><path class="cls-2" d="M384.87,342.27c0,4.24,2,7.68,4.56,7.68s4.56-3.44,4.56-7.68-2-7.68-4.56-7.68S384.87,338,384.87,342.27Z" transform="translate(-146.42 -230.27)"/><ellipse class="cls-2" cx="141.4" cy="82.25" rx="6.98" ry="6.04"/><path class="cls-2" d="M318.88,295.47c-3.61,0-6.53,2.13-6.53,4.76s2.92,4.76,6.53,4.76,6.54-2.13,6.54-4.76S322.49,295.47,318.88,295.47Z" transform="translate(-146.42 -230.27)"/><path class="cls-2" d="M316.91,382.6c2.52,0,4.56-2.32,4.56-5.18s-2-5.18-4.56-5.18-4.56,2.32-4.56,5.18S314.39,382.6,316.91,382.6Z" transform="translate(-146.42 -230.27)"/><path class="cls-2" d="M277.13,252.27c4.5,0,8.14-2.53,8.14-5.65s-3.64-5.64-8.14-5.64-8.14,2.53-8.14,5.64S272.64,252.27,277.13,252.27Z" transform="translate(-146.42 -230.27)"/><circle class="cls-2" cx="322.2" cy="251.92" r="5.3" transform="translate(-174.78 -189.01) rotate(-7.02)"/><ellipse class="cls-2" cx="167.44" cy="40.84" rx="10.82" ry="6.63"/><ellipse class="cls-2" cx="191.95" cy="110.09" rx="12.95" ry="16.62"/><path class="cls-2" d="M219.29,336.8c-6.06,1.47-10.31,5.38-9.49,8.74s6.38,4.9,12.43,3.43,10.3-5.38,9.49-8.74S225.34,335.34,219.29,336.8Z" transform="translate(-146.42 -230.27)"/><path class="cls-2" d="M191.15,310.66c2.53-3,2.81-7,.64-8.78s-6-.81-8.51,2.23-2.81,7-.63,8.77S188.63,313.69,191.15,310.66Z" transform="translate(-146.42 -230.27)"/><path class="cls-2" d="M294.62,298.7c2.09,0,3.79-2.15,3.79-4.81s-1.7-4.81-3.79-4.81-3.8,2.16-3.8,4.81S292.52,298.7,294.62,298.7Z" transform="translate(-146.42 -230.27)"/><path class="cls-2" d="M278.66,282.42a3.75,3.75,0,1,0,3.74,3.75A3.75,3.75,0,0,0,278.66,282.42Z" transform="translate(-146.42 -230.27)"/><path class="cls-2" d="M306.41,340.61a3.38,3.38,0,1,0-3.38-3.38A3.39,3.39,0,0,0,306.41,340.61Z" transform="translate(-146.42 -230.27)"/><path class="cls-2" d="M344.84,307.91a2.56,2.56,0,1,0,2.56-2.56A2.56,2.56,0,0,0,344.84,307.91Z" transform="translate(-146.42 -230.27)"/><circle class="cls-2" cx="257.15" cy="331.45" r="3.15" transform="translate(-270.93 275.3) rotate(-76.72)"/><path class="cls-2" d="M191.13,327.38c-1.41,0-2.55,1.61-2.55,3.61s1.14,3.6,2.55,3.6,2.56-1.61,2.56-3.6S192.55,327.38,191.13,327.38Z" transform="translate(-146.42 -230.27)"/><path class="cls-2" d="M165.33,361.6c1.9,0,3.45-2.29,3.45-5.13s-1.55-5.13-3.45-5.13-3.46,2.29-3.46,5.13S163.42,361.6,165.33,361.6Z" transform="translate(-146.42 -230.27)"/><ellipse class="cls-2" cx="128.55" cy="179.44" rx="7.44" ry="5.3"/><path class="cls-2" d="M342.93,394.54c0,2,2.76,3.7,6.17,3.7s6.17-1.66,6.17-3.7-2.76-3.7-6.17-3.7S342.93,392.49,342.93,394.54Z" transform="translate(-146.42 -230.27)"/><path class="cls-2" d="M382.77,381.21c1.16,0,2.1-1.44,2.1-3.23s-.94-3.24-2.1-3.24-2.1,1.45-2.1,3.24S381.61,381.21,382.77,381.21Z" transform="translate(-146.42 -230.27)"/><path class="cls-2" d="M378.08,396a2.59,2.59,0,1,0,2.59,2.59A2.59,2.59,0,0,0,378.08,396Z" transform="translate(-146.42 -230.27)"/><path class="cls-2" d="M276,460.82a3.64,3.64,0,1,0-3.64-3.64A3.64,3.64,0,0,0,276,460.82Z" transform="translate(-146.42 -230.27)"/><path class="cls-2" d="M281.81,443.1a2.21,2.21,0,1,0-2.2-2.21A2.2,2.2,0,0,0,281.81,443.1Z" transform="translate(-146.42 -230.27)"/><path class="cls-2" d="M252.9,451a1.91,1.91,0,1,0,1.91-1.91A1.9,1.9,0,0,0,252.9,451Z" transform="translate(-146.42 -230.27)"/><path class="cls-2" d="M231,457.18c-1.81,0-3.27.81-3.27,1.82s1.46,1.82,3.27,1.82,3.28-.81,3.28-1.82S232.82,457.18,231,457.18Z" transform="translate(-146.42 -230.27)"/><path class="cls-2" d="M205.29,394.66a1.36,1.36,0,1,0,1.35-1.36A1.36,1.36,0,0,0,205.29,394.66Z" transform="translate(-146.42 -230.27)"/><path class="cls-2" d="M161.39,336.63c.9,0,1.64-1,1.64-2.31s-.74-2.32-1.64-2.32-1.64,1-1.64,2.32S160.48,336.63,161.39,336.63Z" transform="translate(-146.42 -230.27)"/><path class="cls-2" d="M172.22,316.55a2,2,0,1,0-2-2A2,2,0,0,0,172.22,316.55Z" transform="translate(-146.42 -230.27)"/><path class="cls-2" d="M191.13,346.8a2.35,2.35,0,1,0,2.35-2.34A2.35,2.35,0,0,0,191.13,346.8Z" transform="translate(-146.42 -230.27)"/><path class="cls-2" d="M288.85,267.25a2.41,2.41,0,1,0,2.4,2.41A2.41,2.41,0,0,0,288.85,267.25Z" transform="translate(-146.42 -230.27)"/><path class="cls-2" d="M375.53,318.56a2,2,0,1,0-2-2A2,2,0,0,0,375.53,318.56Z" transform="translate(-146.42 -230.27)"/><path class="cls-2" d="M232,258.2a2.26,2.26,0,1,0-2.26-2.26A2.26,2.26,0,0,0,232,258.2Z" transform="translate(-146.42 -230.27)"/><path class="cls-2" d="M273.65,307.91a1.33,1.33,0,1,0,1.32,1.32A1.32,1.32,0,0,0,273.65,307.91Z" transform="translate(-146.42 -230.27)"/><path class="cls-2" d="M250,260.79a1.79,1.79,0,1,0-1.79-1.79A1.79,1.79,0,0,0,250,260.79Z" transform="translate(-146.42 -230.27)"/><path class="cls-2" d="M211.21,278.84a1.73,1.73,0,1,0-1.73-1.72A1.72,1.72,0,0,0,211.21,278.84Z" transform="translate(-146.42 -230.27)"/><path class="cls-2" d="M309.07,464.57c-3.54-1-7.47.27-10.3,2.63a23.47,23.47,0,0,0-5.31,7,8,8,0,0,1,1.05-1.29,15.6,15.6,0,0,1,11.08-4.46,20.78,20.78,0,0,1,11.5,3.71C315.23,468.87,312.69,465.64,309.07,464.57Z" transform="translate(-146.42 -230.27)"/><path class="cls-2" d="M356.06,404.78a11.48,11.48,0,0,0,5.92-9.63,22.44,22.44,0,0,0-.65-5.07,18.15,18.15,0,0,1-3.05,7.26,11.43,11.43,0,0,1-11.76,4.11c-1-.25-2.65-1.49-3.63-1.46-2.56.09.71,3.67,1.88,4.4A11.48,11.48,0,0,0,356.06,404.78Z" transform="translate(-146.42 -230.27)"/><path class="cls-2" d="M269.42,382.9a13.36,13.36,0,0,0,6.16,0,23.17,23.17,0,0,0,12.53-6.81,19.06,19.06,0,0,0,5.16-13.18,18.56,18.56,0,0,1-8.15,9.86,28.1,28.1,0,0,1-12.41,3.71c-1.51.12-9.69-1.11-10.12.73C262.07,379.38,267.81,382.46,269.42,382.9Z" transform="translate(-146.42 -230.27)"/><path class="cls-2" d="M200,404c1.4.1,2.37,1.4,3.13,2.58,3.47,5.48,6.63,11.41,7.18,17.88s-2.06,13.56-7.75,16.66a10.56,10.56,0,0,1-3.92,1.27c-3.11.32-6.17-1.06-8.69-2.92s-4.63-4.19-7-6.21a44.63,44.63,0,0,0,8.63,9.7,20.62,20.62,0,0,0,11.88,4.77,13.49,13.49,0,0,0,11.38-5.19c3-4.16,2.8-9.73,2.38-14.82-.46-5.66-1.13-11.49-4-16.38s-8.57-8.55-14.11-7.35h1Z" transform="translate(-146.42 -230.27)"/><path class="cls-2" d="M246.37,426.1c2.9-2.89,3.83-7.32,3.35-11.38s-2.17-7.88-3.89-11.59a36.36,36.36,0,0,1-.05,8,18,18,0,0,1-2.68,8.13,12.08,12.08,0,0,1-8.82,5.11c-1.26.1-8.06-2-8.39-1-.51,1.6,6.76,4.92,7.91,5.28C238.09,430,243.19,429.28,246.37,426.1Z" transform="translate(-146.42 -230.27)"/><path class="cls-2" d="M187.79,390.46a12.12,12.12,0,0,0,4.12-1.92,12.67,12.67,0,0,0,3.2-2.81c2.48-3.25,2.11-7.77,1.63-11.83-.88,2.28-1.37,4.7-2.4,6.92s-2.76,4.29-5.12,4.89c-2.92.74-6-1-7.77-3.45-1.26-1.76-1.89-6.89-3.48-7.73A14.22,14.22,0,0,0,178.3,385C179.93,388.56,183.92,391.24,187.79,390.46Z" transform="translate(-146.42 -230.27)"/><path class="cls-2" d="M231.48,393.64a10.54,10.54,0,0,0,7.76-3.73,14.54,14.54,0,0,0,3.3-8.1,24.63,24.63,0,0,1-4.79,5.64,8.72,8.72,0,0,1-3.1,1.92,7.79,7.79,0,0,1-2.64.27,13.28,13.28,0,0,1-5.76-1.67c-1.35-.75-2.75-2.69-4.24-2.89C221.58,389.57,227.47,393.65,231.48,393.64Z" transform="translate(-146.42 -230.27)"/><path class="cls-2" d="M212.33,357.77a16.38,16.38,0,0,0,7,2.82,13.93,13.93,0,0,0,6-.35,14.72,14.72,0,0,0,8.32-6.92,24,24,0,0,0,2.87-10.6,23.24,23.24,0,0,1-11.19,10.37,20.1,20.1,0,0,1-8.93,1.54c-1.54-.09-6.42-2.25-7.6-1.48C207.36,354.08,211.43,357.14,212.33,357.77Z" transform="translate(-146.42 -230.27)"/><path class="cls-2" d="M245.35,302a40.84,40.84,0,0,1-16.94,8.54,42.21,42.21,0,0,1-9.49,1.17c-2.74,0-6.44-1.2-8.94-.54,5.17,5.95,15.64,7.95,23.11,7.06a33,33,0,0,0,23.1-14.4c7.29-10.92,7.66-25.49,3.12-37.81A41.47,41.47,0,0,1,245.35,302Z" transform="translate(-146.42 -230.27)"/><path class="cls-2" d="M305.79,281.14c-.41,3,5.8,4.31,7.93,4.49a14.89,14.89,0,0,0,12.42-5.15,17.07,17.07,0,0,0,2.35-3.74,21,21,0,0,0,1.93-7.2,22,22,0,0,1-15,9.75C313.26,279.62,306.2,278.11,305.79,281.14Z" transform="translate(-146.42 -230.27)"/><path class="cls-2" d="M353,291.37a20,20,0,0,0,9.26-.17,16.57,16.57,0,0,0,7.15-3.52c4.74-4.23,5.5-11.65,3.34-17.62a21,21,0,0,1-7.64,14.18,16.52,16.52,0,0,1-15.61,2.63c-3-1.13-5.09-3.45-7.77-4.93A16.38,16.38,0,0,0,353,291.37Z" transform="translate(-146.42 -230.27)"/><path class="cls-2" d="M279.46,259.38A13.53,13.53,0,0,0,289.83,249a10,10,0,0,1,.85-3.33,18,18,0,0,1-24.77,6.68,12.68,12.68,0,0,1-1-.77c-.62.88-.11,2,.61,2.86A14.79,14.79,0,0,0,279.46,259.38Z" transform="translate(-146.42 -230.27)"/><path class="cls-2" d="M292.21,318.07a14,14,0,0,1-6.12,2c-1.69.15-3.84-.57-5.36.11.55,2,3,2.87,4.86,3.48a15.7,15.7,0,0,0,3.87.92,9.81,9.81,0,0,0,9.06-5.62,14.11,14.11,0,0,0,.21-11A14.29,14.29,0,0,1,292.21,318.07Z" transform="translate(-146.42 -230.27)"/><path class="cls-2" d="M316.25,307.62a9.28,9.28,0,0,0,2.62,2,5.8,5.8,0,0,0,5.33-.38,11.68,11.68,0,0,0,3.85-3.93,6.88,6.88,0,0,0,1.1-2.36c.39-1.9-.59-4.05.38-5.73C326.15,303.06,322.16,305.08,316.25,307.62Z" transform="translate(-146.42 -230.27)"/><path class="cls-2" d="M213.61,367.83a3.86,3.86,0,0,0-2.69-2.88c-.68,2-.45,4.17-1.44,6.28a18.61,18.61,0,0,1-4.69,6.19,11.18,11.18,0,0,0,6.79-3.46A7,7,0,0,0,213.61,367.83Z" transform="translate(-146.42 -230.27)"/><path class="cls-2" d="M300.37,391.76a3.05,3.05,0,0,0,1.11-3.19,1.87,1.87,0,0,0-1.22-1.06l-.06-.18a5.5,5.5,0,0,0-.69.11l-.3.06a4,4,0,0,0-2.34,1.5,2.38,2.38,0,0,0,.6,3.35A2.75,2.75,0,0,0,300.37,391.76Z" transform="translate(-146.42 -230.27)"/><path class="cls-2" d="M381.36,357c-2.11.4-3.05,4.34-4.05,6A35.34,35.34,0,0,1,372,370c-1.58,1.6-3.55,3.13-5.81,3.07,2.36.65,4.85-.3,7-1.5a17.69,17.69,0,0,0,7-6.6C381.26,362.81,382.33,359.43,381.36,357Z" transform="translate(-146.42 -230.27)"/><path class="cls-2" d="M342.83,361.2c6.31-1.38,13-4.1,15.91-9.86,1.53-3,1.81-6.53,1.78-9.92a27.51,27.51,0,0,0-1.76-10.56c-.7-1.61-4.79-8.44-7.31-7.05-2.33,1.29,1.33,6.76,1.86,8.16a27.2,27.2,0,0,1,1.8,12.3C354.37,351.58,349.73,358.67,342.83,361.2Z" transform="translate(-146.42 -230.27)"/><path class="cls-2" d="M318.85,386c3.75,0,6.36-3.64,8.06-7a7.47,7.47,0,0,0,1.06-3.49c-.05-1.41-1.8-5-3.56-5-2.13,0-1.06,1.78-1.09,3.52C323.25,378.78,323.1,382.85,318.85,386Z" transform="translate(-146.42 -230.27)"/><path class="cls-2" d="M378.8,296.36c-.22,3.08.25,6.86,3.07,8.12,2.59,1.15,5.85-1,6.44-3.74s-1-5.7-3.33-7.34a4.52,4.52,0,0,0-3.18-1c-1.72.26-2.8,1.93-3.66,3.44l.77-.42C378.86,295.73,378.82,296.05,378.8,296.36Z" transform="translate(-146.42 -230.27)"/><path class="cls-3" d="M315.36,408.66a33.74,33.74,0,0,0-18.11,23.56c-.61,3.14-.66,6.7,1.37,9.17,1.67,2,4.38,2.85,7,3.34a44.17,44.17,0,0,0,25.8-3,22,22,0,0,0,7.08-4.6c4.21-4.37,5.25-11.31,3-17a20.39,20.39,0,0,0-13.16-11.66,27.27,27.27,0,0,0-17.83,1.17" transform="translate(-146.42 -230.27)"/><path class="cls-3" d="M170.39,444.9c19.74,11.5,42.63,17,65.46,18s45.66-2.25,68-7.3c11.37-2.58,22.86-5.72,32.57-12.16,7-4.64,12.8-10.82,18.54-16.94,8.85-9.43,17.83-19.06,23.55-30.67,4.84-9.85,7.14-20.73,9.38-31.47,5.74-27.41,11.5-55.45,7.9-83.22a198.76,198.76,0,0,1,25,92.54c.32,16.78-1.55,33.77-7.36,49.52a166.43,166.43,0,0,1-11.09,23.13c-4.61,8.28-9.69,16.62-17.27,22.31-12.47,9.35-29.21,9.87-44.17,14.26-12.51,3.66-24.07,10.18-36.68,13.49-16,4.19-32.78,3.06-49.24,1.89-5-.35-10.1-.73-14.69-2.72-6.43-2.77-11.15-8.36-16.83-12.46-9-6.52-19.28-4-28.3-11.15a114.78,114.78,0,0,1-13.65-12.8C178.2,455.56,174.32,447.18,170.39,444.9Z" transform="translate(-146.42 -230.27)"/><path class="cls-3" d="M184.83,432.74a40.65,40.65,0,0,0,9.86,10.41,15.29,15.29,0,0,0,4.33,2.62c4.86,1.66,10.35-1.67,12.61-6.28s2-10.05,1.05-15.1a28.24,28.24,0,0,0-3.83-10.68c-2.11-3.17-5.42-5.71-9.21-6.14C184.73,405.88,177.88,421.37,184.83,432.74Z" transform="translate(-146.42 -230.27)"/><path class="cls-3" d="M222.19,292.17c-5.72,1.09-10.8,6.25-10.56,12.07.19,4.91,4,9.16,8.61,10.94s9.74,1.44,14.51.28c7.07-1.74,13.82-5.37,18.4-11,5.49-6.78,7.39-15.85,7.48-24.58a10.5,10.5,0,0,0-.49-3.87c-1-2.68-4-4.14-6.78-4.73-7.16-1.49-14.54,1.1-21,4.49a37,37,0,0,0-10.83,7.92c-3,3.38-4.95,7.81-4.63,12.3" transform="translate(-146.42 -230.27)"/><path class="cls-3" d="M274.71,358.07a10.53,10.53,0,0,0-9,4.31,17.06,17.06,0,0,0-3.15,9.81,10.58,10.58,0,0,0,1.64,6.74A8.45,8.45,0,0,0,271,382a16.59,16.59,0,0,0,7.38-2.13,32.32,32.32,0,0,0,12.22-11.11c2-3.09,3.3-7.56.69-10.16a7.68,7.68,0,0,0-3-1.65,20.14,20.14,0,0,0-19.63,4.12" transform="translate(-146.42 -230.27)"/><path class="cls-4" d="M346.25,289.11c2.36,1,5.08.06,7.56.64,1.59.38,3,1.35,4.62,1.59,2.06.3,4.09-.63,5.88-1.69,3-1.74,5.78-4,7.3-7.06s1.44-7.13-.9-9.64c-4.54-4.87-18.28-6.48-24.35-3.43C339.85,272.8,338.85,286.09,346.25,289.11Z" transform="translate(-146.42 -230.27)"/><path class="cls-3" d="M219.33,341.87c-1.36.51-2.86.61-4.23,1.09a7.87,7.87,0,0,0-2.3,13.59c3.5,2.79,8.7,2.09,12.73.13a24.89,24.89,0,0,0,7.05-5.16,10.67,10.67,0,0,0,2.83-4.57,5.06,5.06,0,0,0-1.29-5,6.49,6.49,0,0,0-2.34-1.19c-4.33-1.37-9.87-.62-12.18,3.3" transform="translate(-146.42 -230.27)"/><path class="cls-3" d="M188.4,369.8c0-.26.47,0,.29.23s-.49.1-.74,0c-3-1.18-6.66.75-8.13,3.66s-1.15,6.44,0,9.5a10,10,0,0,0,2.15,3.63,7.68,7.68,0,0,0,8,1.58,9.79,9.79,0,0,0,5.65-6.17,11.59,11.59,0,0,0-4.26-12.72c-1.85-1.29-4.51-1.94-6.29-.56" transform="translate(-146.42 -230.27)"/><path class="cls-3" d="M343.18,282.66a10.07,10.07,0,0,0,4,5.68,10.78,10.78,0,0,0,5,1.3,22,22,0,0,0,13.68-3.45,16.25,16.25,0,0,0,7.23-11.86,6.93,6.93,0,0,0-.61-3.85,8,8,0,0,0-3.26-2.9C356.31,260.21,336.92,263.44,343.18,282.66Z" transform="translate(-146.42 -230.27)"/><path class="cls-3" d="M355,330c1-3.36-2-6.91-5.39-7.73s-7,.33-10.27,1.61c-2.22.86-4.58,1.94-5.71,4a10.66,10.66,0,0,0-.78,5.41c.18,6.31.39,12.77,2.63,18.67,1.5,3.93,4.74,8,8.93,7.61a10,10,0,0,0,5.33-2.66c5.82-4.86,10-12.72,7.86-20-.56-2-1.55-3.79-2.09-5.76a6.93,6.93,0,0,1,.64-5.89" transform="translate(-146.42 -230.27)"/><path class="cls-3" d="M230.83,425.37c2.29,1.4,5.28.82,7.72-.31a14.85,14.85,0,0,0,6.94-6.2c4-7.52-5-19.46-13-14.24C227.42,407.92,225.11,421.84,230.83,425.37Z" transform="translate(-146.42 -230.27)"/><path class="cls-3" d="M289,309.69l-.6,1.49a5.4,5.4,0,0,0-6.26,5.89c.42,2.41,2.47,4.17,4.49,5.54a5.55,5.55,0,0,0,2.17,1c1.68.27,3.21-.91,4.44-2.07,1.72-1.65,3.41-3.65,3.47-6a5.64,5.64,0,0,0-4.34-5.38,6.59,6.59,0,0,0-6.59,2.59" transform="translate(-146.42 -230.27)"/><path class="cls-3" d="M276.81,244.16a9,9,0,0,0-12.67,10,4.66,4.66,0,0,0,1.12,2.34,6,6,0,0,0,1.8,1.12c3.33,1.55,6.85,2.93,10.52,2.92a14.72,14.72,0,0,0,10.91-5c1.39-1.58,2.46-3.72,1.84-5.73-.73-2.4-3.46-3.49-5.85-4.26l-8.29-2.67c-1.39-.44-3.48-.51-3.73.93" transform="translate(-146.42 -230.27)"/><path class="cls-3" d="M307.24,267.28a4.35,4.35,0,0,0-4.34,2.41,10.55,10.55,0,0,0-1,5.16c0,2.5.28,5.15,1.78,7.16,2.28,3.06,6.58,3.65,10.4,3.7a26.39,26.39,0,0,0,7.26-.73,15.92,15.92,0,0,0,9.69-7.85c1.88-3.59,1.94-8.72-1.4-11a10.66,10.66,0,0,0-4.5-1.45c-4.25-.64-8.69-.87-12.74.57s-7.61,4.87-8.13,9.14" transform="translate(-146.42 -230.27)"/><path class="cls-3" d="M348.78,390.49c.32-.21.7.31.54.65a1.49,1.49,0,0,1-.91.62c-2.74,1-5.33,2.88-6.25,5.63s.44,6.32,3.24,7.08a8.07,8.07,0,0,0,3.49-.07c3.87-.73,7.74-2.19,10.48-5a7.66,7.66,0,0,0,2.42-5.38,4.26,4.26,0,0,0-3.63-4.17,6.15,6.15,0,0,0-2.34.47,45.5,45.5,0,0,0-9,4.21" transform="translate(-146.42 -230.27)"/><path class="cls-3" d="M263.23,406.2A12.57,12.57,0,0,0,257,416.83a10.46,10.46,0,0,0,7.08,9.75c4.56,1.36,9.5-.95,12.94-4.23a24.63,24.63,0,0,0,5.7-8.24C287.39,403.15,269.11,402.69,263.23,406.2Z" transform="translate(-146.42 -230.27)"/><path class="cls-3" d="M286.59,307.93c.17-.33.08.38-.29.34-2.69-.3-4.68,2.5-5.5,5.08a8.78,8.78,0,0,0-.17,5.85c1.23,3,5,4.36,8.22,3.9a11.75,11.75,0,0,0,9.76-10.64,7.28,7.28,0,0,0-2.23-6c-2.1-1.74-5.3-1.56-7.71-.28s-4.22,3.43-6,5.53" transform="translate(-146.42 -230.27)"/><path class="cls-3" d="M316.62,296.71a3.91,3.91,0,0,0-4.19,2.82,5.61,5.61,0,0,0,.58,3.75,9.58,9.58,0,0,0,9.33,5.48c3.82-.43,7.15-4,6.85-7.88a20.61,20.61,0,0,0-11.71-2.32" transform="translate(-146.42 -230.27)"/><path class="cls-2" d="M296.93,230.27c-83,0-150.51,67.52-150.51,150.51s67.52,150.51,150.51,150.51,150.51-67.52,150.51-150.51S379.92,230.27,296.93,230.27Zm0,298.6c-81.66,0-148.09-66.43-148.09-148.09s66.43-148.09,148.09-148.09S445,299.12,445,380.78,378.59,528.87,296.93,528.87Z" transform="translate(-146.42 -230.27)"/><path class="cls-2" d="M337.08,441.7c5.6-7,8.37-16,8.93-25-3.74,9.15-12,15.74-20.71,20.43-4.95,2.65-10.26,4.86-15.86,5.35a22.73,22.73,0,0,1-9.58-1.14c-2.58-.93-5-3.53-7.4-4-2.47,9.36,14.7,16.12,21.44,16.14C322.87,453.56,331.48,448.72,337.08,441.7Z" transform="translate(-146.42 -230.27)"/><path class="cls-2" d="M299.22,435.06c3.58-6.28,8.36-12.1,14.72-15.55a23.45,23.45,0,0,1,14.24-2.76c4.11.57,9.84,3,8.26-4.32-.94-4.36-5-7.37-9.26-8.8a24.54,24.54,0,0,0-32.35,21.68C294.59,429.11,295.71,433.59,299.22,435.06Z" transform="translate(-146.42 -230.27)"/><path class="cls-2" d="M256.59,419.41l-.38,2.13A5.73,5.73,0,0,0,256.59,419.41Z" transform="translate(-146.42 -230.27)"/><path class="cls-2" d="M278.86,420.13c-3.92,2.07-8.56,3.15-12.83,1.95s-7.92-5.1-7.89-9.53c-1.36.83-1.7,2.66-1.66,4.25,0,.86.12,1.75.11,2.61l.27-1.52a14.15,14.15,0,0,0,3.84,10.17c2.07,2.32,5.06,4.23,8.13,3.71a9.21,9.21,0,0,0,4.56-2.53A19,19,0,0,0,278.86,420.13Z" transform="translate(-146.42 -230.27)"/><path class="cls-2" d="M432.44,340.12c-4.13-16.51-11.34-32.68-23.45-44.65a71.44,71.44,0,0,1,5.41,11.17,99.13,99.13,0,0,0-18.74-28.51,203.59,203.59,0,0,1,9.69,64.44c-.08,6.84-.63,14.05-4.48,19.69,3.88-4.05,11-2.64,14.8,1.5.42,1.36,1,2.7,1.43,4a40.77,40.77,0,0,1,2,9.3,35,35,0,0,1-1.45,6.68,51.61,51.61,0,0,1-12,20.19c-1.51,1.57-3.25,3.11-5.39,3.51-2.81.54-5.71-1.1-7.37-3.43a16.64,16.64,0,0,1-2.56-8.1,97.59,97.59,0,0,1-18.19,23.83c5.92.47,12.39,1.17,16.58,5.39a17.77,17.77,0,0,1,3.48,5.38A30.63,30.63,0,0,1,389,460.36a33.54,33.54,0,0,1-5.49,5.44c-6.6,2.48-14,3.18-20.52.57a22.56,22.56,0,0,1-13.3-24.47c-11.27,8.16-22.66,16.38-35.44,21.89,4.92-.4,9.52,3.77,10.34,8.63s-1.67,9.92-5.58,12.92-9,4.13-13.94,4c-3.75-.11-7.69-1-10.36-3.68-3.83-3.79-4-9.83-3.84-15.21a29,29,0,0,1-14.14,2.64,20.63,20.63,0,0,1-35.11,18.79c-4.81-5.1-6.69-12.22-8.4-19a115.45,115.45,0,0,1-65-27.37c2.8,5.44,5.7,11,9.54,15.74,4.66,11.25,15.11,19.68,25.31,26.82,12.85,9,26.29,17.31,40.84,23.15,48.57,19.53,107.81,8,146.32-27.5S445.13,390.91,432.44,340.12Z" transform="translate(-146.42 -230.27)"/><ellipse class="cls-2" cx="192.34" cy="419.2" rx="10.24" ry="14.8" transform="translate(-239.64 -173.25) rotate(-13.61)"/><ellipse class="cls-2" cx="110.73" cy="250.11" rx="15.17" ry="9.87"/><ellipse class="cls-2" cx="160.81" cy="247.27" rx="10.3" ry="7.03"/><circle class="cls-2" cx="373.71" cy="443.93" r="18.44" transform="translate(-254.32 -110.04) rotate(-16)"/><path class="cls-2" d="M265.09,368.55c1.85,4.1,8.41,5.14,14.65,2.32s9.8-8.41,7.95-12.51S279.28,353.22,273,356,263.24,364.45,265.09,368.55Z" transform="translate(-146.42 -230.27)"/><circle class="cls-2" cx="234.29" cy="411.15" r="8.77" transform="translate(-234.61 -165.44) rotate(-13.28)"/><circle class="cls-2" cx="353.42" cy="272.06" r="10.48" transform="translate(-93.28 371.57) rotate(-85.27)"/><ellipse class="cls-2" cx="402.77" cy="381.41" rx="18.48" ry="10.18" transform="translate(-242.26 394.2) rotate(-69.43)"/><ellipse class="cls-2" cx="229.77" cy="292.04" rx="22.02" ry="11.1" transform="translate(-273.63 -41.4) rotate(-35.69)"/><path class="cls-2" d="M188.58,364.56c-2.08,0-3.77,3.44-3.77,7.68s1.69,7.68,3.77,7.68,3.76-3.44,3.76-7.68S190.65,364.56,188.58,364.56Z" transform="translate(-146.42 -230.27)"/><path class="cls-2" d="M247.05,357c2.21,0,4-2.53,4-5.64s-1.79-5.65-4-5.65-4,2.53-4,5.65S244.84,357,247.05,357Z" transform="translate(-146.42 -230.27)"/><path class="cls-2" d="M276.58,345.69c2.35,0,4.25-3.14,4.25-7s-1.9-7-4.25-7-4.26,3.15-4.26,7S274.23,345.69,276.58,345.69Z" transform="translate(-146.42 -230.27)"/><path class="cls-2" d="M294.8,355.15A5.21,5.21,0,1,0,300,350,5.2,5.2,0,0,0,294.8,355.15Z" transform="translate(-146.42 -230.27)"/><circle class="cls-2" cx="232.04" cy="381.26" r="6.52" transform="translate(-360.69 147.93) rotate(-58.28)"/><path class="cls-2" d="M171.31,425.94c0-5.08-2.11-9.2-4.72-9.2s-4.72,4.12-4.72,9.2,2.12,9.2,4.72,9.2S171.31,431,171.31,425.94Z" transform="translate(-146.42 -230.27)"/><circle class="cls-2" cx="16.61" cy="173.38" r="3.56"/><circle class="cls-2" cx="159.75" cy="382.6" r="2.68" transform="translate(-205.49 -199.83) rotate(-9.19)"/><path class="cls-2" d="M167.61,336.63c1.43,0,2.59-2.07,2.59-4.63s-1.16-4.62-2.59-4.62S165,329.45,165,332,166.18,336.63,167.61,336.63Z" transform="translate(-146.42 -230.27)"/><ellipse class="cls-2" cx="243.01" cy="112" rx="4.56" ry="7.68"/><ellipse class="cls-2" cx="141.4" cy="82.25" rx="6.98" ry="6.04"/><ellipse class="cls-2" cx="172.47" cy="69.96" rx="6.54" ry="4.76"/><ellipse class="cls-2" cx="170.49" cy="147.15" rx="4.56" ry="5.18"/><ellipse class="cls-2" cx="130.72" cy="16.35" rx="8.14" ry="5.64"/><circle class="cls-2" cx="322.2" cy="251.92" r="5.3" transform="matrix(0.16, -0.99, 0.99, 0.16, -124.49, 299.34)"/><ellipse class="cls-2" cx="167.44" cy="40.84" rx="10.82" ry="6.63"/><ellipse class="cls-2" cx="191.95" cy="110.09" rx="12.95" ry="16.62"/><path class="cls-2" d="M219.29,336.8c-6.06,1.47-10.31,5.38-9.49,8.74s6.38,4.9,12.43,3.43,10.3-5.38,9.49-8.74S225.34,335.34,219.29,336.8Z" transform="translate(-146.42 -230.27)"/><path class="cls-2" d="M182.65,312.88c2.17,1.81,6,.81,8.5-2.22s2.81-7,.64-8.78-6-.81-8.51,2.23S180.47,311.08,182.65,312.88Z" transform="translate(-146.42 -230.27)"/><ellipse class="cls-2" cx="148.2" cy="63.62" rx="3.79" ry="4.81"/><circle class="cls-2" cx="278.66" cy="286.17" r="3.75" transform="translate(-204.71 -158.59) rotate(-13.28)"/><path class="cls-2" d="M306.41,340.61a3.38,3.38,0,1,0-3.38-3.38A3.39,3.39,0,0,0,306.41,340.61Z" transform="translate(-146.42 -230.27)"/><path class="cls-2" d="M344.84,307.91a2.56,2.56,0,1,0,2.56-2.56A2.56,2.56,0,0,0,344.84,307.91Z" transform="translate(-146.42 -230.27)"/><circle class="cls-2" cx="257.15" cy="331.45" r="3.15" transform="translate(-305.47 48.64) rotate(-45)"/><path class="cls-2" d="M191.13,327.38c-1.41,0-2.55,1.61-2.55,3.61s1.14,3.6,2.55,3.6,2.56-1.61,2.56-3.6S192.55,327.38,191.13,327.38Z" transform="translate(-146.42 -230.27)"/><ellipse class="cls-2" cx="18.91" cy="126.2" rx="3.45" ry="5.13"/><ellipse class="cls-2" cx="128.55" cy="179.44" rx="7.44" ry="5.3"/><ellipse class="cls-2" cx="202.68" cy="164.27" rx="6.17" ry="3.7"/><path class="cls-2" d="M382.77,381.21c1.16,0,2.1-1.44,2.1-3.23s-.94-3.24-2.1-3.24-2.1,1.45-2.1,3.24S381.61,381.21,382.77,381.21Z" transform="translate(-146.42 -230.27)"/><path class="cls-2" d="M378.08,396a2.59,2.59,0,1,0,2.59,2.59A2.59,2.59,0,0,0,378.08,396Z" transform="translate(-146.42 -230.27)"/><path class="cls-2" d="M276,460.82a3.64,3.64,0,1,0-3.64-3.64A3.64,3.64,0,0,0,276,460.82Z" transform="translate(-146.42 -230.27)"/><path class="cls-2" d="M281.81,443.1a2.21,2.21,0,1,0-2.2-2.21A2.2,2.2,0,0,0,281.81,443.1Z" transform="translate(-146.42 -230.27)"/><path class="cls-2" d="M252.9,451a1.91,1.91,0,1,0,1.91-1.91A1.9,1.9,0,0,0,252.9,451Z" transform="translate(-146.42 -230.27)"/><path class="cls-2" d="M231,457.18c-1.81,0-3.27.81-3.27,1.82s1.46,1.82,3.27,1.82,3.28-.81,3.28-1.82S232.82,457.18,231,457.18Z" transform="translate(-146.42 -230.27)"/><path class="cls-2" d="M205.29,394.66a1.36,1.36,0,1,0,1.35-1.36A1.36,1.36,0,0,0,205.29,394.66Z" transform="translate(-146.42 -230.27)"/><path class="cls-2" d="M161.39,336.63c.9,0,1.64-1,1.64-2.31s-.74-2.32-1.64-2.32-1.64,1-1.64,2.32S160.48,336.63,161.39,336.63Z" transform="translate(-146.42 -230.27)"/><path class="cls-2" d="M172.22,316.56a2,2,0,1,0-2-2A2,2,0,0,0,172.22,316.56Z" transform="translate(-146.42 -230.27)"/><path class="cls-2" d="M191.13,346.8a2.35,2.35,0,1,0,2.35-2.34A2.35,2.35,0,0,0,191.13,346.8Z" transform="translate(-146.42 -230.27)"/><path class="cls-2" d="M288.85,267.25a2.41,2.41,0,1,0,2.4,2.41A2.41,2.41,0,0,0,288.85,267.25Z" transform="translate(-146.42 -230.27)"/><path class="cls-2" d="M375.53,318.56a2,2,0,1,0-2-2A2,2,0,0,0,375.53,318.56Z" transform="translate(-146.42 -230.27)"/><path class="cls-2" d="M232,258.2a2.26,2.26,0,1,0-2.26-2.26A2.26,2.26,0,0,0,232,258.2Z" transform="translate(-146.42 -230.27)"/><path class="cls-2" d="M273.65,307.91a1.33,1.33,0,1,0,1.32,1.32A1.32,1.32,0,0,0,273.65,307.91Z" transform="translate(-146.42 -230.27)"/><path class="cls-2" d="M250,260.79a1.79,1.79,0,1,0-1.79-1.79A1.79,1.79,0,0,0,250,260.79Z" transform="translate(-146.42 -230.27)"/><path class="cls-2" d="M211.21,278.84a1.73,1.73,0,1,0-1.73-1.72A1.72,1.72,0,0,0,211.21,278.84Z" transform="translate(-146.42 -230.27)"/><path class="cls-2" d="M309.07,464.57c-3.54-1-7.47.27-10.3,2.63a23.47,23.47,0,0,0-5.31,7,8,8,0,0,1,1.05-1.29,15.6,15.6,0,0,1,11.08-4.46,20.78,20.78,0,0,1,11.5,3.71C315.23,468.87,312.69,465.64,309.07,464.57Z" transform="translate(-146.42 -230.27)"/><path class="cls-2" d="M293.46,474.2a6.44,6.44,0,0,0-.42.78Z" transform="translate(-146.42 -230.27)"/><path class="cls-2" d="M356.06,404.78a11.48,11.48,0,0,0,5.92-9.63,22.44,22.44,0,0,0-.65-5.07,18.15,18.15,0,0,1-3.05,7.26,11.43,11.43,0,0,1-11.76,4.11c-1-.25-2.65-1.49-3.63-1.46-2.56.09.71,3.67,1.88,4.4A11.48,11.48,0,0,0,356.06,404.78Z" transform="translate(-146.42 -230.27)"/><path class="cls-2" d="M269.42,382.9a13.36,13.36,0,0,0,6.16,0,23.17,23.17,0,0,0,12.53-6.81,19.06,19.06,0,0,0,5.16-13.18,18.56,18.56,0,0,1-8.15,9.86,28.1,28.1,0,0,1-12.41,3.71c-1.51.12-9.69-1.11-10.12.73C262.07,379.38,267.81,382.46,269.42,382.9Z" transform="translate(-146.42 -230.27)"/><path class="cls-2" d="M200,404c1.4.1,2.37,1.4,3.13,2.58,3.47,5.48,6.63,11.41,7.18,17.88s-2.06,13.56-7.75,16.66a10.56,10.56,0,0,1-3.92,1.27c-3.11.32-6.17-1.06-8.69-2.92s-4.63-4.19-7-6.21a44.63,44.63,0,0,0,8.63,9.7,20.62,20.62,0,0,0,11.88,4.77,13.49,13.49,0,0,0,11.38-5.19c3-4.16,2.8-9.73,2.38-14.82-.46-5.66-1.13-11.49-4-16.38s-8.57-8.55-14.11-7.35h1Z" transform="translate(-146.42 -230.27)"/><path class="cls-2" d="M246.37,426.1c2.9-2.89,3.83-7.32,3.35-11.38s-2.17-7.88-3.89-11.59a36.36,36.36,0,0,1-.05,8,18,18,0,0,1-2.68,8.13,12.08,12.08,0,0,1-8.82,5.11c-1.26.1-8.06-2-8.39-1-.51,1.6,6.76,4.92,7.91,5.28C238.09,430,243.19,429.28,246.37,426.1Z" transform="translate(-146.42 -230.27)"/><path class="cls-2" d="M187.79,390.46a12.12,12.12,0,0,0,4.12-1.92,12.67,12.67,0,0,0,3.2-2.81c2.48-3.25,2.11-7.77,1.63-11.83-.88,2.28-1.37,4.7-2.4,6.92s-2.76,4.29-5.12,4.89c-2.92.75-6-1-7.77-3.45-1.26-1.76-1.89-6.89-3.48-7.73A14.22,14.22,0,0,0,178.3,385C179.93,388.56,183.92,391.24,187.79,390.46Z" transform="translate(-146.42 -230.27)"/><path class="cls-2" d="M231.48,393.64a10.54,10.54,0,0,0,7.76-3.73,14.54,14.54,0,0,0,3.3-8.1,24.63,24.63,0,0,1-4.79,5.64,8.72,8.72,0,0,1-3.1,1.92,7.79,7.79,0,0,1-2.64.27,13.28,13.28,0,0,1-5.76-1.67c-1.35-.75-2.75-2.69-4.24-2.89C221.58,389.57,227.47,393.65,231.48,393.64Z" transform="translate(-146.42 -230.27)"/><path class="cls-2" d="M212.33,357.77a16.38,16.38,0,0,0,7,2.82,13.93,13.93,0,0,0,6-.35,14.72,14.72,0,0,0,8.32-6.92,24,24,0,0,0,2.87-10.6,23.24,23.24,0,0,1-11.19,10.37,20.1,20.1,0,0,1-8.93,1.54c-1.54-.09-6.42-2.25-7.6-1.48C207.36,354.08,211.43,357.14,212.33,357.77Z" transform="translate(-146.42 -230.27)"/><path class="cls-2" d="M245.35,302a40.84,40.84,0,0,1-16.94,8.54,42.21,42.21,0,0,1-9.49,1.17c-2.74,0-6.44-1.2-8.94-.54,5.17,5.95,15.64,7.95,23.11,7.06a33,33,0,0,0,23.1-14.4c7.29-10.92,7.66-25.49,3.12-37.81A41.47,41.47,0,0,1,245.35,302Z" transform="translate(-146.42 -230.27)"/><path class="cls-2" d="M305.79,281.14c-.41,3,5.8,4.31,7.93,4.49a14.89,14.89,0,0,0,12.42-5.15,17.07,17.07,0,0,0,2.35-3.74,21,21,0,0,0,1.93-7.2,22,22,0,0,1-15,9.75C313.26,279.62,306.2,278.11,305.79,281.14Z" transform="translate(-146.42 -230.27)"/><path class="cls-2" d="M353,291.37a20,20,0,0,0,9.26-.17,16.57,16.57,0,0,0,7.15-3.52c4.74-4.23,5.5-11.65,3.34-17.62a21,21,0,0,1-7.64,14.18,16.52,16.52,0,0,1-15.61,2.63c-3-1.13-5.09-3.45-7.77-4.93A16.38,16.38,0,0,0,353,291.37Z" transform="translate(-146.42 -230.27)"/><path class="cls-2" d="M279.46,259.38A13.53,13.53,0,0,0,289.83,249a10,10,0,0,1,.85-3.33,18,18,0,0,1-24.77,6.68,12.68,12.68,0,0,1-1-.77c-.62.88-.11,2,.61,2.86A14.79,14.79,0,0,0,279.46,259.38Z" transform="translate(-146.42 -230.27)"/><path class="cls-2" d="M292.21,318.07a14,14,0,0,1-6.12,2c-1.69.15-3.84-.57-5.36.11.55,2,3,2.87,4.86,3.48a15.7,15.7,0,0,0,3.87.92,9.81,9.81,0,0,0,9.06-5.62,14.11,14.11,0,0,0,.21-11A14.29,14.29,0,0,1,292.21,318.07Z" transform="translate(-146.42 -230.27)"/><path class="cls-2" d="M316.25,307.62a9.28,9.28,0,0,0,2.62,2,5.8,5.8,0,0,0,5.33-.38,11.68,11.68,0,0,0,3.85-3.93,6.88,6.88,0,0,0,1.1-2.36c.39-1.9-.59-4.05.38-5.73C326.15,303.06,322.16,305.08,316.25,307.62Z" transform="translate(-146.42 -230.27)"/><path class="cls-2" d="M213.61,367.83a3.86,3.86,0,0,0-2.69-2.88c-.68,2-.45,4.17-1.44,6.28a18.61,18.61,0,0,1-4.69,6.19,11.18,11.18,0,0,0,6.79-3.46A7,7,0,0,0,213.61,367.83Z" transform="translate(-146.42 -230.27)"/><path class="cls-2" d="M300.37,391.76a3.05,3.05,0,0,0,1.11-3.19,1.87,1.87,0,0,0-1.22-1.06l-.06-.18a5.5,5.5,0,0,0-.69.11l-.3.06a4,4,0,0,0-2.34,1.5,2.38,2.38,0,0,0,.6,3.35A2.75,2.75,0,0,0,300.37,391.76Z" transform="translate(-146.42 -230.27)"/><path class="cls-2" d="M381.36,357c-2.11.4-3.05,4.34-4.05,6A35.34,35.34,0,0,1,372,370c-1.58,1.6-3.55,3.13-5.81,3.07,2.36.65,4.85-.3,7-1.5a17.69,17.69,0,0,0,7-6.6C381.26,362.81,382.33,359.43,381.36,357Z" transform="translate(-146.42 -230.27)"/><path class="cls-2" d="M342.83,361.2c6.31-1.38,13-4.1,15.91-9.86,1.53-3,1.81-6.53,1.78-9.92a27.51,27.51,0,0,0-1.76-10.56c-.7-1.61-4.79-8.44-7.31-7.05-2.33,1.29,1.33,6.76,1.86,8.16a27.2,27.2,0,0,1,1.8,12.3C354.37,351.58,349.73,358.67,342.83,361.2Z" transform="translate(-146.42 -230.27)"/><path class="cls-2" d="M318.85,386c3.75,0,6.36-3.64,8.06-7a7.47,7.47,0,0,0,1.06-3.49c-.05-1.41-1.8-5-3.56-5-2.13,0-1.06,1.78-1.09,3.52C323.25,378.79,323.1,382.85,318.85,386Z" transform="translate(-146.42 -230.27)"/><path class="cls-2" d="M378.8,296.36c-.22,3.08.25,6.86,3.07,8.12,2.59,1.15,5.85-1,6.44-3.74s-1-5.7-3.33-7.34a4.52,4.52,0,0,0-3.18-1c-1.72.26-2.8,1.93-3.66,3.44l.77-.42C378.86,295.73,378.82,296.05,378.8,296.36Z" transform="translate(-146.42 -230.27)"/></svg>