<?xml version="1.0" encoding="iso-8859-1"?>
<!-- Uploaded to: SVG Repo, www.svgrepo.com, Generator: SVG Repo Mixer Tools -->
<svg version="1.1" id="Layer_1" xmlns="http://www.w3.org/2000/svg" xmlns:xlink="http://www.w3.org/1999/xlink" 
	 viewBox="0 0 512 512" xml:space="preserve">
<polygon style="fill:#3C5D76;" points="97.882,289.882 97.882,382.173 52.706,427.35 52.706,466.824 263.529,466.824 
	263.529,165.647 "/>
<polygon style="fill:#1E2E3B;" points="414.118,382.173 414.118,289.882 248.471,165.647 248.471,466.824 459.294,466.824 
	459.294,427.35 "/>
<path style="fill:#CCE9F9;" d="M338.824,512V120.471C338.824,45.176,256,0,256,0s-82.824,45.176-82.824,120.471V512H338.824z"/>
<path style="fill:#93C7EF;" d="M338.824,512V120.471C338.824,45.176,256,0,256,0v512H338.824z"/>
<g>
	<path style="fill:#1E2E3B;" d="M286.118,120.471c0-16.634-13.485-30.118-30.118-30.118l0,0c-16.632,0-30.118,13.484-30.118,30.118
		H286.118z"/>
	<rect x="233.412" y="361.412" style="fill:#1E2E3B;" width="45.176" height="105.412"/>
</g>
<rect x="173.176" y="466.824" style="fill:#78B9EB;" width="165.647" height="45.176"/>
<rect x="256" y="466.824" style="fill:#5A8BB0;" width="82.824" height="45.176"/>
</svg>